<svg width="20" height="21" viewBox="0 0 20 21" fill="none" xmlns="http://www.w3.org/2000/svg">
<path d="M11.8323 10.0233L19.6199 2.23534C20.1267 1.72877 20.1267 0.909703 19.6199 0.403126C19.1133 -0.103451 18.2943 -0.103451 17.7877 0.403126L9.99988 8.19112L2.21228 0.403126C1.70548 -0.103451 0.886669 -0.103451 0.380103 0.403126C-0.126701 0.909703 -0.126701 1.72877 0.380103 2.23534L8.1677 10.0233L0.380103 17.8113C-0.126701 18.3179 -0.126701 19.137 0.380103 19.6436C0.632555 19.8963 0.964493 20.0232 1.29619 20.0232C1.62789 20.0232 1.95959 19.8963 2.21228 19.6436L9.99988 11.8556L17.7877 19.6436C18.0404 19.8963 18.3721 20.0232 18.7038 20.0232C19.0355 20.0232 19.3672 19.8963 19.6199 19.6436C20.1267 19.137 20.1267 18.3179 19.6199 17.8113L11.8323 10.0233Z" fill="black"/>
</svg>
