<svg width="25" height="25" viewBox="0 0 25 25" fill="none" xmlns="http://www.w3.org/2000/svg">
<path d="M12.5 0C5.59375 0 0 5.73904 0 12.8172C0 18.4812 3.58125 23.2844 8.54687 24.9779C9.17187 25.0985 9.40104 24.7018 9.40104 24.3616C9.40104 24.0572 9.39062 23.2507 9.38542 22.1823C5.90833 22.9551 5.175 20.4627 5.175 20.4627C4.60625 18.9834 3.78437 18.5878 3.78437 18.5878C2.65208 17.7932 3.87187 17.8095 3.87187 17.8095C5.12708 17.8986 5.78646 19.1301 5.78646 19.1301C6.90104 21.0899 8.7125 20.5236 9.42708 20.1964C9.53958 19.3671 9.86146 18.803 10.2188 18.4823C7.44271 18.1617 4.525 17.0595 4.525 12.1487C4.525 10.7498 5.00937 9.60638 5.81146 8.70965C5.67083 8.38574 5.24896 7.0825 5.92083 5.31731C5.92083 5.31731 6.96771 4.97384 9.35833 6.63142C10.3583 6.34664 11.4208 6.20534 12.4833 6.19882C13.5458 6.20534 14.6083 6.34664 15.6083 6.63142C17.9833 4.97384 19.0302 5.31731 19.0302 5.31731C19.7021 7.0825 19.2802 8.38574 19.1552 8.70965C19.9521 9.60638 20.4365 10.7498 20.4365 12.1487C20.4365 17.0726 17.5146 18.1562 14.7333 18.4715C15.1708 18.8562 15.5771 19.6421 15.5771 20.8432C15.5771 22.5584 15.5615 23.9366 15.5615 24.3529C15.5615 24.6888 15.7802 25.0898 16.4208 24.9616C21.4219 23.279 25 18.4725 25 12.8172C25 5.73904 19.4031 0 12.5 0Z" fill="black"/>
</svg>
