<svg width="20" height="20" viewBox="0 0 20 20" fill="none" xmlns="http://www.w3.org/2000/svg">
<path d="M10 0C4.475 0 0 4.59124 0 10.2538C0 14.785 2.865 18.6275 6.8375 19.9823C7.3375 20.0788 7.52083 19.7614 7.52083 19.4893C7.52083 19.2458 7.5125 18.6006 7.50833 17.7458C4.72667 18.3641 4.14 16.3702 4.14 16.3702C3.685 15.1867 3.0275 14.8702 3.0275 14.8702C2.12167 14.2346 3.0975 14.2476 3.0975 14.2476C4.10167 14.3189 4.62917 15.3041 4.62917 15.3041C5.52083 16.8719 6.97 16.4189 7.54167 16.1571C7.63167 15.4937 7.88917 15.0424 8.175 14.7859C5.95417 14.5293 3.62 13.6476 3.62 9.71899C3.62 8.59987 4.0075 7.6851 4.64917 6.96772C4.53667 6.70859 4.19917 5.666 4.73667 4.25385C4.73667 4.25385 5.57417 3.97907 7.48667 5.30514C8.28667 5.07732 9.13667 4.96427 9.98667 4.95906C10.8367 4.96427 11.6867 5.07732 12.4867 5.30514C14.3867 3.97907 15.2242 4.25385 15.2242 4.25385C15.7617 5.666 15.4242 6.70859 15.3242 6.96772C15.9617 7.6851 16.3492 8.59987 16.3492 9.71899C16.3492 13.6581 14.0117 14.525 11.7867 14.7772C12.1367 15.085 12.4617 15.7137 12.4617 16.6745C12.4617 18.0467 12.4492 19.1493 12.4492 19.4823C12.4492 19.751 12.6242 20.0719 13.1367 19.9693C17.1375 18.6232 20 14.778 20 10.2538C20 4.59124 15.5225 0 10 0Z" fill="black"/>
</svg>
