<svg width="20" height="20" viewBox="0 0 20 20" fill="none" xmlns="http://www.w3.org/2000/svg">
<path d="M1.19249e-07 10C5.33638e-08 15.525 4.59124 20 10.2538 20C14.785 20 18.6275 17.135 19.9823 13.1625C20.0788 12.6625 19.7614 12.4792 19.4893 12.4792C19.2458 12.4792 18.6006 12.4875 17.7458 12.4917C18.3641 15.2733 16.3702 15.86 16.3702 15.86C15.1867 16.315 14.8702 16.9725 14.8702 16.9725C14.2346 17.8783 14.2476 16.9025 14.2476 16.9025C14.3189 15.8983 15.3041 15.3708 15.3041 15.3708C16.8719 14.4792 16.4189 13.03 16.1571 12.4583C15.4937 12.3683 15.0424 12.1108 14.7859 11.825C14.5293 14.0458 13.6476 16.38 9.71899 16.38C8.59987 16.38 7.6851 15.9925 6.96772 15.3508C6.70859 15.4633 5.666 15.8008 4.25385 15.2633C4.25385 15.2633 3.97907 14.4258 5.30514 12.5133C5.07732 11.7133 4.96427 10.8633 4.95906 10.0133C4.96427 9.16333 5.07732 8.31333 5.30514 7.51333C3.97907 5.61333 4.25385 4.77583 4.25385 4.77583C5.666 4.23833 6.7086 4.57583 6.96772 4.67583C7.6851 4.03833 8.59987 3.65084 9.71899 3.65084C13.6581 3.65084 14.525 5.98833 14.7772 8.21333C15.085 7.86333 15.7137 7.53833 16.6745 7.53833C18.0467 7.53833 19.1493 7.55083 19.4823 7.55083C19.751 7.55083 20.0719 7.37583 19.9693 6.86333C18.6232 2.8625 14.778 1.76226e-07 10.2538 1.22275e-07C4.59124 5.47499e-08 1.85104e-07 4.4775 1.19249e-07 10Z" fill="black"/>
</svg>
