<svg width="20" height="20" viewBox="0 0 20 20" fill="none" xmlns="http://www.w3.org/2000/svg">
<path d="M-4.37114e-07 10C-1.95718e-07 15.5225 4.4775 20 10 20C15.5225 20 20 15.5225 20 10C20 4.4775 15.5225 -2.01673e-07 10 3.97233e-08C4.4775 2.81119e-07 -6.7851e-07 4.4775 -4.37114e-07 10ZM4.5025 13.7533C4.5025 13.0517 4.97 12.5842 5.59333 12.5842C6.21667 12.5842 6.68417 13.0517 6.68417 13.8308C6.685 14.5325 6.21667 15 5.59333 15C4.97 15 4.5025 14.5325 4.5025 13.7533ZM14.1667 12.5L14.1667 15L7.5 15L7.5 12.5L14.1667 12.5ZM14.1667 4.16667L14.1667 6.52L10.5233 6.52C9.51583 6.52 9.28333 7.1475 9.28333 7.3825C9.28333 7.6175 9.43833 8.4025 10.5233 8.4025C10.6783 8.4025 14.1667 8.4025 14.1667 8.4025L14.1667 10.8333L7.5 10.8333L7.5 8.40167L8.43 8.40167C7.8875 8.08833 7.5 7.46083 7.5 6.28417C7.5 5.1075 8.43 4.16667 10.5233 4.16667L14.1667 4.16667Z" fill="black"/>
</svg>
