<svg width="20" height="20" viewBox="0 0 20 20" fill="none" xmlns="http://www.w3.org/2000/svg">
<path d="M10 0C4.4775 0 0 4.4775 0 10C0 15.5225 4.4775 20 10 20C15.5225 20 20 15.5225 20 10C20 4.4775 15.5225 0 10 0ZM6.24667 4.5025C6.94833 4.5025 7.41583 4.97 7.41583 5.59333C7.41583 6.21667 6.94833 6.68417 6.16917 6.68417C5.4675 6.685 5 6.21667 5 5.59333C5 4.97 5.4675 4.5025 6.24667 4.5025ZM7.5 14.1667L5 14.1667L5 7.5H7.5L7.5 14.1667ZM15.8333 14.1667H13.48V10.5233C13.48 9.51583 12.8525 9.28333 12.6175 9.28333C12.3825 9.28333 11.5975 9.43833 11.5975 10.5233C11.5975 10.6783 11.5975 14.1667 11.5975 14.1667H9.16667V7.5H11.5983V8.43C11.9117 7.8875 12.5392 7.5 13.7158 7.5C14.8925 7.5 15.8333 8.43 15.8333 10.5233V14.1667Z" fill="black"/>
</svg>
