<svg width="25" height="25" viewBox="0 0 25 25" fill="none" xmlns="http://www.w3.org/2000/svg">
<path d="M12.5 0C5.59687 0 0 5.59687 0 12.5C0 19.4031 5.59687 25 12.5 25C19.4031 25 25 19.4031 25 12.5C25 5.59687 19.4031 0 12.5 0ZM7.80833 5.62812C8.68542 5.62812 9.26979 6.2125 9.26979 6.99167C9.26979 7.77083 8.68542 8.35521 7.71146 8.35521C6.83437 8.35625 6.25 7.77083 6.25 6.99167C6.25 6.2125 6.83438 5.62812 7.80833 5.62812ZM9.375 17.7083H6.25L6.25 9.375H9.375L9.375 17.7083ZM19.7917 17.7083H16.85V13.1542C16.85 11.8948 16.0656 11.6042 15.7719 11.6042C15.4781 11.6042 14.4969 11.7979 14.4969 13.1542C14.4969 13.3479 14.4969 17.7083 14.4969 17.7083H11.4583L11.4583 9.375H14.4979V10.5375C14.8896 9.85937 15.674 9.375 17.1448 9.375C18.6156 9.375 19.7917 10.5375 19.7917 13.1542V17.7083Z" fill="black"/>
</svg>
