<svg width="20" height="21" viewBox="0 0 20 21" fill="none" xmlns="http://www.w3.org/2000/svg">
<path d="M20 10.3397C20 4.81558 15.5242 0.339745 10 0.339745C4.47583 0.339745 0 4.81558 0 10.3397C0 15.8639 4.47583 20.3397 10 20.3397C15.5242 20.3397 20 15.8639 20 10.3397ZM9.78333 15.7639L6.06583 6.12224C5.90417 5.67474 6.175 5.28391 6.85167 5.42891L6.85083 5.42808L14.585 7.06975C15.1333 7.19141 15.2667 7.51724 15.0083 7.97308L13.1658 10.4731L14.3275 11.6789C14.4608 11.8122 14.5733 11.9247 14.5733 12.1831L12.0292 12.0056L7.84333 7.37224C7.66583 7.17058 7.56583 7.41725 7.7425 7.68308L11.3475 13.4089L10.5775 15.8772C10.4075 16.4131 10.0417 16.4247 9.78333 15.7639V15.7639Z" fill="black"/>
</svg>
