<svg width="20" height="21" viewBox="0 0 20 21" fill="none" xmlns="http://www.w3.org/2000/svg">
<path d="M10 20.3397C15.5242 20.3397 20 15.8639 20 10.3397C20 4.81558 15.5242 0.339745 10 0.339745C4.47583 0.339745 0 4.81558 0 10.3397C0 15.8639 4.47583 20.3397 10 20.3397ZM4.57583 10.1231L14.2175 6.40558C14.665 6.24391 15.0558 6.51474 14.9108 7.19141L14.9117 7.19058L13.27 14.9247C13.1483 15.4731 12.8225 15.6064 12.3667 15.3481L9.86667 13.5056L8.66083 14.6672C8.5275 14.8006 8.415 14.9131 8.15667 14.9131L8.33417 12.3689L12.9675 8.18308C13.1692 8.00558 12.9225 7.90558 12.6567 8.08224L6.93083 11.6872L4.4625 10.9172C3.92667 10.7472 3.915 10.3814 4.57583 10.1231V10.1231Z" fill="black"/>
</svg>
