<svg width="30" height="31" viewBox="0 0 30 31" fill="none" xmlns="http://www.w3.org/2000/svg">
<path d="M29.3134 19.9544C29.8082 19.5061 30.0589 18.8483 29.9882 18.1844C29.9173 17.5205 29.5334 16.9304 28.9553 16.5966L27.0503 15.4977H27.0501C26.7173 15.2267 26.3012 15.0786 25.8721 15.0789H18.8486C18.7556 15.0791 18.6645 15.1066 18.5871 15.158L13.0527 18.8485H8.01072V19.791H13.194C13.287 19.7907 13.3781 19.7632 13.4555 19.7119L18.99 16.0213H25.8696C26.0897 16.0211 26.3026 16.1 26.4696 16.2432C26.4917 16.2624 26.5157 16.2792 26.5411 16.2937L28.4815 17.4128C28.7964 17.5929 29.0066 17.9122 29.0474 18.2728C29.0882 18.6331 28.9546 18.9914 28.6879 19.2373L26.1244 17.9555H26.1246C26.06 17.9234 25.9889 17.9065 25.9167 17.9061H20.2622C20.002 17.9061 19.791 18.1171 19.791 18.3773C19.7946 19.4232 19.5051 20.4492 18.9554 21.339C18.4058 22.2288 17.6179 22.9468 16.681 23.4117L15.3408 24.0813C15.1079 24.1976 15.0135 24.4808 15.1298 24.7136C15.2461 24.9467 15.5293 25.0411 15.7621 24.9248L17.1028 24.2548C18.2156 23.6999 19.148 22.8403 19.791 21.7762V22.147C19.791 22.272 19.8407 22.3919 19.929 22.4802C20.0174 22.5686 20.1373 22.6182 20.2622 22.6182V24.0319C20.2622 24.1568 20.3119 24.2767 20.4002 24.3651C20.4886 24.4534 20.6085 24.5031 20.7334 24.5031H21.2046V25.9167C21.2046 26.0417 21.2543 26.1616 21.3426 26.2499C21.431 26.3383 21.5509 26.3879 21.6758 26.3879H23.8058L25.1008 28.0071L20.7185 29.2021L14.2352 27.8118C14.2028 27.8051 14.1696 27.8017 14.1363 27.8015H0.942422V19.791H4.2409V18.8485H0.471211C0.210995 18.8485 0 19.0595 0 19.3197V28.2727C0 28.3977 0.0496457 28.5176 0.137997 28.606C0.226349 28.6943 0.346256 28.744 0.471211 28.744H14.0895L20.639 30.1473C20.67 30.1536 20.7015 30.1572 20.7333 30.1576C20.7751 30.1576 20.8168 30.1519 20.8572 30.1412L26.0655 28.7196L26.0727 28.7169L26.0725 28.7167C27.0351 28.3904 27.8063 27.6583 28.1822 26.714C28.8261 26.3198 29.2176 25.6182 29.2151 24.863V24.5803L29.3287 24.2391V24.2393C29.5588 23.3894 29.5294 22.4903 29.2439 21.6575C29.433 21.1089 29.4572 20.5167 29.3131 19.9545L29.3134 19.9544ZM26.219 21.7845C26.134 21.7142 26.0271 21.6757 25.9169 21.6757H20.7336V20.7333H25.8056L28.3752 22.0178C28.5429 22.5563 28.5845 23.126 28.4968 23.683L26.219 21.7845ZM28.3676 20.1296V20.1298C28.4665 20.4062 28.4881 20.7043 28.4303 20.9921L26.1274 19.8404C26.062 19.8078 25.9899 19.7909 25.9169 19.7909H20.7335V18.8485H25.8056L28.3676 20.1296ZM26.0673 27.7072L24.4002 25.6236H24.3999C24.3108 25.5113 24.1755 25.4456 24.032 25.4454H22.1472V24.503H25.2507L27.2495 26.5019C27.0053 27.0273 26.5879 27.4529 26.0673 27.7072ZM27.8612 25.7824L25.7788 23.7C25.6907 23.6111 25.5708 23.561 25.4456 23.5606H21.2047V22.6181H25.7462L28.2729 24.7241V24.8654C28.2727 25.2153 28.1229 25.5485 27.861 25.7809L27.8612 25.7824Z" fill="black"/>
<path d="M0.471357 14.1362H3.43008L6.1505 22.2959H6.15029C6.21445 22.4882 6.3943 22.618 6.5971 22.6182C6.61813 22.6182 6.63938 22.6167 6.66021 22.614C6.88445 22.5841 7.05569 22.3992 7.06831 22.1733L7.51406 14.1363H21.2045C21.3294 14.1363 21.4493 14.0867 21.5377 13.9983C21.626 13.91 21.6757 13.7901 21.6757 13.6651V0.471211C21.6757 0.346256 21.626 0.226348 21.5377 0.137997C21.4493 0.0496468 21.3294 0 21.2045 0H0.471211C0.210995 0 0 0.210995 0 0.471211V13.6651C0 13.7901 0.0496457 13.91 0.137997 13.9983C0.226349 14.0867 0.346256 14.1363 0.471211 14.1363L0.471357 14.1362ZM6.26321 19.6561L4.24077 13.589V12.557V12.5572C4.45555 12.662 4.69074 12.7186 4.92971 12.7226L5.73352 13.9284C5.82145 14.0588 5.96849 14.1366 6.12563 14.1362H6.56991L6.26321 19.6561ZM4.71198 11.737C4.42968 11.6386 4.24056 11.3725 4.24056 11.0736C4.24056 10.7747 4.42968 10.5086 4.71198 10.4101V11.737ZM7.53925 13.194V12.7228H11.3089V13.194H7.53925ZM12.2514 13.194V12.2516C12.2514 12.1267 12.2017 12.0067 12.1134 11.9184C12.025 11.83 11.9051 11.7804 11.7801 11.7804H7.06804C6.80782 11.7804 6.59683 11.9914 6.59683 12.2516V13.194H6.37763L5.65439 12.1102V10.3668H8.09709C8.22583 10.7364 8.50288 11.0355 8.86153 11.1922C9.2202 11.3487 9.62785 11.3487 9.98657 11.1922C10.3452 11.0355 10.6223 10.7364 10.751 10.3668H13.1937V12.1102L12.4705 13.194H12.2514ZM8.95288 9.84843C9.26358 9.91322 9.58457 9.91322 9.8953 9.84843V9.89555C9.8953 10.1558 9.68431 10.3668 9.42409 10.3668C9.16388 10.3668 8.95288 10.1558 8.95288 9.89555V9.84843ZM8.48441 8.58941L8.77281 8.01071H10.0752L10.3636 8.58796H10.3638C10.1072 8.82272 9.77186 8.95314 9.42413 8.95314C9.0764 8.95314 8.74106 8.82272 8.48445 8.58796L8.48441 8.58941ZM11.6741 5.65465H7.17406C7.15029 5.65339 7.12757 5.64393 7.1099 5.62773L7.06804 5.54337V5.28947C7.06888 5.2312 7.11579 5.18429 7.17407 5.18344H11.6741C11.7324 5.18429 11.7793 5.2312 11.7801 5.28947V5.54337L11.7383 5.62773C11.7206 5.64393 11.6979 5.65339 11.6741 5.65465ZM7.07831 3.76981H11.7696C11.7738 3.81693 11.7799 3.86405 11.7799 3.91117V4.25049H11.7801C11.745 4.24544 11.7096 4.24229 11.6741 4.24102H7.17404C7.13849 4.24271 7.10315 4.24628 7.06801 4.25196V3.91118C7.06801 3.86406 7.07411 3.81693 7.07831 3.76981ZM7.52028 2.82739C7.80953 2.52846 8.20712 2.35849 8.62302 2.35618H10.2251C10.6414 2.35807 11.0394 2.52804 11.3287 2.82739H7.52028ZM11.2531 6.59708L10.8871 7.32893C10.8701 7.37206 10.8593 7.4175 10.8555 7.46357L10.7882 7.32872V7.32893C10.7083 7.16906 10.5451 7.0683 10.3665 7.0683H8.48161C8.30302 7.0683 8.13977 7.16906 8.05984 7.32893L7.99252 7.46378V7.46357C7.98874 7.4175 7.97801 7.37206 7.96097 7.32893L7.59473 6.59708H11.2531ZM14.6073 11.0736C14.6061 11.3721 14.4176 11.6376 14.1361 11.737V10.4101C14.4176 10.5096 14.6061 10.775 14.6073 11.0735V11.0736ZM13.9184 12.7228C14.1574 12.7188 14.3926 12.6622 14.6073 12.5575V13.194H13.6027L13.9184 12.7228ZM0.942072 0.942547H20.7329V13.194H15.5496V10.838H15.5256C15.4697 10.4465 15.2747 10.088 14.9762 9.82845C14.6779 9.56887 14.2958 9.4254 13.9004 9.42435H10.8211C11.3886 9.00825 11.7395 8.3593 11.7772 7.65647L12.5311 6.1486C12.5862 6.06803 12.6302 5.98052 12.6611 5.88796L12.6733 5.86398C12.6792 5.84421 12.6836 5.82422 12.687 5.80403C12.6931 5.78046 12.6996 5.7569 12.704 5.73292C12.7122 5.70747 12.7183 5.68117 12.7223 5.65467V3.91119C12.7223 3.24875 12.4592 2.61366 11.9909 2.1452C11.5224 1.67694 10.8873 1.41377 10.2249 1.41377H8.62278C7.96034 1.41377 7.32526 1.67694 6.85679 2.1452C6.38853 2.61368 6.12536 3.24875 6.12536 3.91119V5.65467C6.12936 5.68181 6.13567 5.70831 6.1443 5.7344C6.1485 5.75838 6.15524 5.78152 6.16134 5.8055H6.16113C6.16449 5.8257 6.16912 5.84568 6.1748 5.86524L6.187 5.88923V5.88944C6.21813 5.98178 6.26189 6.06951 6.31722 6.14986L7.07115 7.65774C7.10881 8.36014 7.45948 9.00847 8.02661 9.42437H4.94731C4.50997 9.42437 4.09052 9.59814 3.78108 9.90737C3.47185 10.2168 3.29808 10.6363 3.29808 11.0736C3.3004 11.1527 3.30839 11.2314 3.32207 11.3092H3.29808V13.194H0.942031L0.942072 0.942547Z" fill="black"/>
<path d="M5.18375 21.6756V20.7332H1.88527C1.62506 20.7332 1.41406 20.9441 1.41406 21.2044V26.3877C1.41406 26.5126 1.46371 26.6325 1.55206 26.7209C1.64041 26.8092 1.76032 26.8589 1.88527 26.8589H10.8383C10.9632 26.8589 11.0831 26.8092 11.1715 26.7209C11.2598 26.6325 11.3095 26.5126 11.3095 26.3877V21.2044C11.3095 21.0794 11.2598 20.9595 11.1715 20.8712C11.0831 20.7828 10.9632 20.7332 10.8383 20.7332H8.01101V21.6756H8.48222V23.0892H4.24133V21.6756H5.18375ZM3.77012 24.0316H8.95343C9.07839 24.0316 9.1983 23.982 9.28665 23.8936C9.375 23.8053 9.42465 23.6854 9.42465 23.5604V21.6756H10.3671V25.9165H2.35648V21.6756H3.29891V23.5604C3.29891 23.6854 3.34855 23.8053 3.4369 23.8936C3.52525 23.982 3.64516 24.0316 3.77012 24.0316Z" fill="black"/>
<path d="M14.6079 8.95295H19.7912C19.9162 8.95295 20.0361 8.9033 20.1245 8.81495C20.2128 8.7266 20.2625 8.60669 20.2625 8.48174V1.88478C20.2625 1.75983 20.2128 1.63992 20.1245 1.55157C20.0361 1.46322 19.9162 1.41357 19.7912 1.41357H14.6079C14.3477 1.41357 14.1367 1.62457 14.1367 1.88478V8.48174C14.1367 8.60669 14.1864 8.7266 14.2747 8.81495C14.3631 8.9033 14.483 8.95295 14.6079 8.95295ZM15.0791 2.356H19.32V8.01052H15.0791V2.356Z" fill="black"/>
<path d="M19.7912 9.42407H16.4927C16.2325 9.42407 16.0215 9.63507 16.0215 9.89528V12.2513C16.0215 12.3763 16.0711 12.4962 16.1595 12.5846C16.2478 12.6729 16.3677 12.7225 16.4927 12.7225H19.7912C19.9161 12.7225 20.036 12.6729 20.1244 12.5846C20.2127 12.4962 20.2624 12.3763 20.2624 12.2513V9.89528C20.2624 9.77033 20.2127 9.65042 20.1244 9.56207C20.036 9.47372 19.9161 9.42407 19.7912 9.42407ZM19.32 11.7801H16.9639V10.3665H19.32V11.7801Z" fill="black"/>
<path d="M1.88525 1.88477H5.18373V2.82719H1.88525V1.88477Z" fill="black"/>
<path d="M1.88525 3.76953H5.18373V4.71195H1.88525V3.76953Z" fill="black"/>
<path d="M1.88525 5.6543H5.18373V6.59672H1.88525V5.6543Z" fill="black"/>
<path d="M1.88525 7.53931H3.7701V8.48173H1.88525V7.53931Z" fill="black"/>
</svg>
