<svg width="30" height="30" viewBox="0 0 30 30" fill="none" xmlns="http://www.w3.org/2000/svg">
<path d="M8.229 28.2037L8.10951 28.125H8.90638C9.03068 28.125 9.14996 28.0756 9.23785 27.9877L9.7066 27.519C9.84932 27.3762 9.88469 27.1584 9.7947 26.978L9.76854 26.9255L10.4608 26.6949C10.5296 26.6716 10.5924 26.6327 10.6441 26.5814L11.0589 26.1667V26.1665C11.7189 26.0459 12.2711 25.5958 12.5222 24.9734C12.5846 24.8376 12.6348 24.6964 12.6723 24.5515L14.3941 22.8297V22.8299C14.4816 22.7424 14.531 22.6238 14.5314 22.4999V22.0312H15.9376C16.0852 22.0312 16.2241 21.9617 16.3126 21.8437L17.7189 19.9687L17.7155 19.9664C17.7775 19.8864 17.8116 19.7885 17.8126 19.6874V18.7499C17.8126 18.527 17.6559 18.3352 17.4376 18.2906L17.4096 18.2849L17.4203 18.2812L17.492 18.2573C17.6835 18.1935 17.8126 18.0144 17.8126 17.8124V16.4062C17.8126 16.2819 17.7632 16.1626 17.6754 16.0747C17.5875 15.9868 17.4682 15.9374 17.3439 15.9374H16.4461C16.7192 15.7614 16.9741 15.5582 17.2066 15.3314C17.3895 15.1483 17.3895 14.8516 17.2066 14.6685L16.2691 13.731C16.1525 13.6146 15.9834 13.5677 15.8238 13.6077L13.3745 14.2198V14.22C13.6169 13.8237 13.8178 13.4035 13.9741 12.9661L14.388 12.6901V12.6899C15.0099 12.2739 15.5159 11.7066 15.8589 11.0414L16.441 10.1677C16.6355 9.88013 16.6729 9.51436 16.5405 9.1933C16.408 8.8725 16.1234 8.63959 15.7827 8.57305C15.4418 8.50672 15.0906 8.61553 14.8473 8.86309L13.7528 9.95756L11.9063 11.3437V11.3464C11.8472 11.3891 11.7991 11.4448 11.7656 11.5092C11.4662 12.1077 11.1138 12.6782 10.7124 13.2135L9.95529 14.2232L9.64977 14.5312H9.37501C9.19734 14.5312 9.03495 14.6314 8.95544 14.7905L8.51536 15.6713L7.55632 16.7371L7.36275 16.5435C7.27758 16.4602 7.16353 16.4131 7.04446 16.4119L7.12649 16.0837C7.38326 15.058 7.34203 13.9802 7.00742 12.9772C6.96808 12.8594 6.88353 12.7617 6.77242 12.706C6.66109 12.6504 6.53239 12.6414 6.41437 12.6805L5.00812 13.1493C4.86812 13.1959 4.75805 13.306 4.71138 13.446L4.45315 14.2228C4.33785 14.5672 4.14428 14.8801 3.88792 15.1372C3.70481 15.3203 3.70481 15.6171 3.88792 15.8002L4.69192 16.6042C4.69192 16.6163 4.68815 16.628 4.68815 16.6408V17.7348L4.44666 17.8797V17.8794C4.30541 17.9642 4.21898 18.1165 4.21877 18.2812V20.625H4.224C4.22233 20.6974 4.2374 20.769 4.26795 20.8345L4.65006 21.5985L4.30415 22.6362L3.54055 23.0177V23.0179C3.46751 23.0547 3.40536 23.1096 3.35995 23.1774L2.42245 24.5836C2.34775 24.6956 2.32473 24.8341 2.35925 24.9641C2.39378 25.0942 2.48251 25.2033 2.60305 25.2633L3.06573 25.4943L2.56182 26.25H2.34377C2.18703 26.25 2.04076 26.3282 1.95371 26.4586L0.078708 29.2711C-0.0171366 29.4149 -0.026131 29.5998 0.0554802 29.7524C0.136882 29.9048 0.295925 30 0.468773 30H7.50002C7.67769 30 7.84008 29.8997 7.91959 29.7407L8.38834 28.8032C8.49402 28.5918 8.42559 28.3349 8.22888 28.2037L8.229 28.2037ZM9.37516 26.0681V25.7812C9.37516 25.7086 9.35842 25.6369 9.32598 25.5718L8.85723 24.6343C8.81726 24.5545 8.75553 24.4878 8.67915 24.442L6.3354 23.0357C6.30568 23.0179 6.27429 23.0035 6.24165 22.9926L5.28031 22.6724L5.49439 22.0312H5.98323L7.75424 22.9166L7.75947 22.9193V22.9195C7.82455 22.952 7.89633 22.9687 7.96895 22.9687H8.24371L8.4377 23.1627V23.4375C8.43665 23.616 8.53731 23.7796 8.69697 23.8593L9.63447 24.3281C9.68219 24.3515 9.73346 24.3666 9.78619 24.3727C9.74015 24.6001 9.73241 24.8339 9.76338 25.064C9.80126 25.3373 9.91907 25.5935 10.1022 25.8L10.0595 25.8427L9.37516 26.0681ZM11.6743 24.5746C11.4343 25.0846 11.0181 25.302 10.8507 25.2233H10.8509C10.7538 25.1534 10.6946 25.0425 10.6904 24.923C10.6636 24.6658 10.7107 24.4066 10.826 24.1753C10.9451 23.8422 11.225 23.5921 11.5693 23.5112C11.5969 23.5105 11.6243 23.5158 11.6494 23.5266C11.7465 23.5965 11.8058 23.7074 11.8099 23.8269C11.8367 24.0841 11.7896 24.3434 11.6743 24.5746ZM13.5939 21.5625V22.306L12.6141 23.2851C12.5049 23.0208 12.3034 22.8053 12.047 22.6785C11.4626 22.4029 10.7481 22.6845 10.262 23.3178L10.1974 23.3341L9.89687 23.409L9.37517 23.1479V22.9687C9.37517 22.8444 9.32579 22.7251 9.2379 22.6373L8.76915 22.1685C8.72562 22.1252 8.67414 22.0907 8.61722 22.0672C8.60216 22.0607 8.58437 22.062 8.57035 22.057C8.52829 22.0425 8.48434 22.0337 8.43998 22.0312H8.07586L6.30361 21.1448H6.3034C6.23853 21.1117 6.16675 21.0941 6.09392 21.0937H5.44603L5.24953 20.7014L5.92732 19.9486H5.92753C7.05778 20.2462 8.14217 20.6968 9.1506 21.2877L9.83679 21.6997C9.90983 21.7435 9.99332 21.7667 10.0783 21.7669H11.9533C12.0776 21.7669 12.1969 21.7173 12.2848 21.6294L13.4192 20.4946L14.0482 20.9141L13.7314 21.231H13.7312C13.6433 21.3189 13.5939 21.4382 13.5939 21.5625ZM16.8752 19.3926C16.5184 19.5481 16.1381 19.6431 15.7502 19.6739L15.422 19.0093C15.3992 18.9643 15.3695 18.923 15.3339 18.8873L15.2565 18.8098L16.8752 19.1344L16.8752 19.3926ZM15.7033 21.0937H15.1941L15.675 20.6128C15.8157 20.6063 15.9536 20.5955 16.0917 20.5758L15.7033 21.0937ZM16.8752 17.4703C16.2637 17.6517 15.6332 17.7608 14.9964 17.7955C14.9945 17.7287 14.9784 17.6632 14.9495 17.603L14.5867 16.8749H16.8752L16.8752 17.4703ZM16.1921 14.9803C15.7106 15.3589 15.1464 15.6186 14.5454 15.7379L14.0476 15.8377C14.017 15.6902 13.9168 15.5667 13.7787 15.5066L13.158 15.2404L15.7939 14.5815L16.1921 14.9803ZM13.868 11.91L13.5939 12.0938L12.999 11.6972L14.1474 10.8357L14.7663 11.0424C14.5218 11.3835 14.2175 11.6775 13.868 11.91ZM15.6239 9.50767C15.6491 9.5198 15.6675 9.5424 15.6742 9.56961C15.6817 9.59639 15.6769 9.62527 15.661 9.64829L15.2776 10.2233L14.9302 10.1076L15.512 9.52587C15.5415 9.49636 15.5867 9.48904 15.6239 9.50767ZM12.3596 12.3966L13.0267 12.8415C12.7495 13.5218 12.3467 14.1441 11.8394 14.6756L11.0452 14.3354L11.4648 13.7762V13.776C11.794 13.3369 12.093 12.8762 12.3596 12.3966ZM9.25457 16.2512C9.28282 16.2196 9.30688 16.1846 9.32593 16.147L9.66472 15.4688H9.84385C9.96816 15.4688 10.0874 15.4194 10.1753 15.3315L10.42 15.0873L13.1251 16.2464V16.4063C13.1251 16.5306 13.1745 16.6499 13.2624 16.7377L13.6771 17.1525L14.0626 17.9232V18.7501C14.0626 18.8744 14.112 18.9936 14.1999 19.0815L14.6146 19.4963L14.8982 20.064L14.7239 20.2384L13.6196 19.5001C13.4338 19.3762 13.186 19.4007 13.028 19.5587L11.759 20.8277H10.208L9.63293 20.4845C8.68498 19.9293 7.67296 19.4911 6.61932 19.1799L9.25457 16.2512ZM5.15635 19.4035V18.5466L6.83255 17.5411L5.15635 19.4035ZM5.34385 14.5195L5.52905 13.9646L6.24578 13.7256V13.7254C6.37762 14.3249 6.38829 14.9448 6.27717 15.5485C6.08905 15.474 5.88439 15.4512 5.68435 15.4822C5.4845 15.5131 5.29638 15.5968 5.13942 15.7247L4.85817 15.4434C5.06827 15.1632 5.23211 14.8514 5.34385 14.5195ZM5.6251 16.6406C5.6251 16.5111 5.72994 16.4063 5.85948 16.4063C5.98901 16.4063 6.09385 16.5111 6.09385 16.6406V16.8909L5.6251 17.1722V16.6406ZM4.0711 23.801L4.72318 23.4729L5.89505 23.8638L8.07744 25.1735L8.43759 25.8917V26.2498C8.43759 26.3224 8.45433 26.3942 8.48677 26.4593L8.80464 27.0948L8.71089 27.1885L8.43759 27.1887C8.43759 27.177 8.4311 27.1661 8.43005 27.1544C8.4265 27.1094 8.41645 27.0651 8.40013 27.0228C8.39427 27.0054 8.38757 26.9883 8.37983 26.9717C8.35116 26.9144 8.31098 26.8637 8.26181 26.8225L5.91806 24.9475C5.83498 24.8806 5.73181 24.8439 5.62509 24.8435H3.86076L3.49706 24.6617L4.0711 23.801ZM4.00079 25.7811H5.4604L7.38227 27.3166L7.3172 27.4464L7.26195 27.5571L5.41877 26.3281C5.34093 26.2766 5.24969 26.2494 5.15636 26.2498H3.68877L4.00079 25.7811ZM3.22004 29.0623L3.53226 28.5936H4.54696L5.25008 29.0623H3.22004ZM7.21047 29.0623H6.55422C6.55422 29.0464 6.56133 29.0318 6.55987 29.0154C6.54585 28.8758 6.4703 28.7497 6.35353 28.6718L4.94728 27.7343C4.87028 27.6835 4.77987 27.6561 4.68759 27.6561H3.28134C3.1246 27.6561 2.97833 27.7343 2.89127 27.8647L2.09317 29.0623H1.34317L2.59288 27.1873H5.01575L7.18288 28.632L7.36578 28.7538L7.21047 29.0623Z" fill="black"/>
<path d="M0.468745 8.90625H3.92914L4.73689 10.522H4.73668C4.81599 10.6812 4.97858 10.7817 5.15625 10.7817C5.33391 10.7817 5.49651 10.6812 5.57582 10.522L6.38336 8.90625H9.84375C9.96805 8.90625 10.0873 8.85686 10.1752 8.76897C10.2631 8.68108 10.3125 8.5618 10.3125 8.4375V2.8125C10.3125 2.6882 10.2631 2.56892 10.1752 2.48103C10.0873 2.39314 9.96805 2.34375 9.84375 2.34375H0.46875C0.209893 2.34375 0 2.55364 0 2.8125V8.4375C0 8.5618 0.0493864 8.68108 0.137277 8.76897C0.225167 8.85686 0.344443 8.90625 0.468745 8.90625ZM0.937495 3.28125H9.37499V7.96875H6.09374C5.91608 7.96875 5.75369 8.06899 5.67417 8.22802L5.15624 9.26431L4.64062 8.22802C4.56089 8.06835 4.39724 7.9677 4.21874 7.96875H0.937495V3.28125Z" fill="black"/>
<path d="M20.625 18.75V26.25C20.625 26.3743 20.6744 26.4936 20.7623 26.5815C20.8502 26.6694 20.9694 26.7187 21.0937 26.7187H21.6652L22.0455 28.2388H22.0453C22.0892 28.4142 22.2301 28.5485 22.4071 28.5843C22.4376 28.5908 22.4688 28.594 22.5 28.5937C22.6475 28.5937 22.7865 28.5243 22.875 28.4062L24.1406 26.7187H27.6563C27.7806 26.7187 27.8998 26.6694 27.9877 26.5815C28.0756 26.4936 28.125 26.3743 28.125 26.25V18.75C28.125 18.6257 28.0756 18.5064 27.9877 18.4185C27.8998 18.3306 27.7806 18.2812 27.6563 18.2812H21.0938C20.8349 18.2812 20.625 18.4911 20.625 18.75ZM21.5625 19.2188H27.1875V25.7812H23.9062C23.7587 25.7812 23.6198 25.8507 23.5312 25.9687L22.7155 27.0559L22.4857 26.1362H22.486C22.4336 25.9275 22.2461 25.7812 22.0312 25.7812H21.5625L21.5625 19.2188Z" fill="black"/>
<path d="M22.5 20.1562H26.25V21.0937H22.5V20.1562Z" fill="black"/>
<path d="M24.375 22.0312H26.25V22.9687H24.375V22.0312Z" fill="black"/>
<path d="M22.5 23.9062H25.3125V24.8437H22.5V23.9062Z" fill="black"/>
<path d="M22.5 22.0312H23.4375V22.9687H22.5V22.0312Z" fill="black"/>
<path d="M3.75 4.21875H8.4375V5.15625H3.75V4.21875Z" fill="black"/>
<path d="M1.875 6.09375H6.5625V7.03125H1.875V6.09375Z" fill="black"/>
<path d="M1.875 4.21875H2.8125V5.15625H1.875V4.21875Z" fill="black"/>
<path d="M29.5312 0H0.46875C0.209893 0 0 0.209893 0 0.46875V1.40625H0.9375V0.9375H29.0625V3.75H30V0.46875C30 0.344448 29.9506 0.225166 29.8627 0.137277C29.7748 0.0493875 29.6555 0 29.5312 0Z" fill="black"/>
<path d="M0 9.84375H0.9375V26.7187H0V9.84375Z" fill="black"/>
<path d="M29.0625 13.125H23.9062C23.6474 13.125 23.4375 13.3349 23.4375 13.5937V15.9375C23.4375 16.0618 23.4869 16.1811 23.5748 16.269C23.6627 16.3569 23.7819 16.4062 23.9062 16.4062H29.0625V29.0625H20.1562V27.6562C20.1562 27.5319 20.1069 27.4127 20.019 27.3248C19.9311 27.2369 19.8118 27.1875 19.6875 27.1875H12.6562C12.3974 27.1875 12.1875 27.3974 12.1875 27.6562V29.0625H8.90625V30H29.5312C29.6555 30 29.7748 29.9506 29.8627 29.8627C29.9506 29.7748 30 29.6555 30 29.5312V11.25H29.0625V13.125ZM13.125 28.125H19.2187V29.0625H13.125V28.125ZM24.375 15.4687V14.0625H29.0625V15.4687H24.375Z" fill="black"/>
<path d="M7.5 6.09375H8.4375V7.03125H7.5V6.09375Z" fill="black"/>
<path d="M22.5 3.75H12.1875C11.9286 3.75 11.7188 3.95989 11.7188 4.21875V9.375H12.6562V4.6875H22.0312V11.25H16.875V12.1875H22.5C22.6243 12.1875 22.7436 12.1381 22.8315 12.0502C22.9194 11.9623 22.9687 11.8431 22.9687 11.7187V4.21875C22.9687 4.09445 22.9194 3.97517 22.8315 3.88728C22.7436 3.79939 22.6243 3.75 22.5 3.75Z" fill="black"/>
<path d="M24.8438 5.15625V9.84375C24.8438 9.96805 24.8931 10.0873 24.981 10.1752C25.0689 10.2631 25.1882 10.3125 25.3125 10.3125H30V9.375H25.7812V5.625H30V4.6875H25.3125C25.0536 4.6875 24.8438 4.89739 24.8438 5.15625Z" fill="black"/>
<path d="M26.7188 7.03125H27.6562V7.96875H26.7188V7.03125Z" fill="black"/>
<path d="M28.5938 7.03125H29.5312V7.96875H28.5938V7.03125Z" fill="black"/>
</svg>
