<?xml version="1.0" encoding="UTF-8"?>
<svg width="700pt" height="700pt" version="1.1" viewBox="0 0 700 700" xmlns="http://www.w3.org/2000/svg" xmlns:xlink="http://www.w3.org/1999/xlink">
 <defs>
  <symbol id="d" overflow="visible">
   <path d="m29.312-1.75c-1.5117 0.78125-3.0898 1.3711-4.7344 1.7656-1.6367 0.40625-3.3398 0.60938-5.1094 0.60938-5.3125 0-9.5273-1.4844-12.641-4.4531-3.1055-2.9688-4.6562-7-4.6562-12.094s1.5508-9.125 4.6562-12.094c3.1133-2.9688 7.3281-4.4531 12.641-4.4531 1.7695 0 3.4727 0.19922 5.1094 0.59375 1.6445 0.39844 3.2227 0.99219 4.7344 1.7812v6.5938c-1.5312-1.0391-3.0391-1.8008-4.5156-2.2812-1.4805-0.48828-3.0391-0.73438-4.6719-0.73438-2.9375 0-5.2461 0.94531-6.9219 2.8281-1.6797 1.875-2.5156 4.4648-2.5156 7.7656 0 3.293 0.83594 5.8828 2.5156 7.7656 1.6758 1.875 3.9844 2.8125 6.9219 2.8125 1.6328 0 3.1914-0.23828 4.6719-0.71875 1.4766-0.48828 2.9844-1.2539 4.5156-2.2969z"/>
  </symbol>
  <symbol id="k" overflow="visible">
   <path d="m21.453-17.406c-0.67969-0.3125-1.3516-0.53906-2.0156-0.6875-0.65625-0.15625-1.3203-0.23438-1.9844-0.23438-1.9688 0-3.4844 0.63281-4.5469 1.8906-1.0547 1.2617-1.5781 3.0703-1.5781 5.4219v11.016h-7.6562v-23.922h7.6562v3.9219c0.97656-1.5625 2.1016-2.7031 3.375-3.4219 1.2812-0.71875 2.8125-1.0781 4.5938-1.0781 0.25 0 0.52344 0.011719 0.82812 0.03125 0.30078 0.023438 0.73438 0.070312 1.2969 0.14062z"/>
  </symbol>
  <symbol id="a" overflow="visible">
   <path d="m27.562-12.031v2.1875h-17.891c0.1875 1.793 0.83203 3.1367 1.9375 4.0312 1.1133 0.89844 2.6719 1.3438 4.6719 1.3438 1.6016 0 3.25-0.23438 4.9375-0.70312 1.6875-0.47656 3.4219-1.2031 5.2031-2.1719v5.8906c-1.8047 0.6875-3.6094 1.2031-5.4219 1.5469-1.8125 0.35156-3.6211 0.53125-5.4219 0.53125-4.3359 0-7.7031-1.0977-10.109-3.2969-2.3984-2.207-3.5938-5.2969-3.5938-9.2656 0-3.9062 1.1758-6.9727 3.5312-9.2031 2.3633-2.2383 5.6094-3.3594 9.7344-3.3594 3.7578 0 6.7695 1.1367 9.0312 3.4062 2.2578 2.2617 3.3906 5.2812 3.3906 9.0625zm-7.8594-2.5312c0-1.457-0.42969-2.6289-1.2812-3.5156-0.84375-0.89453-1.9492-1.3438-3.3125-1.3438-1.4922 0-2.6992 0.41797-3.625 1.25-0.91797 0.83594-1.4922 2.0391-1.7188 3.6094z"/>
  </symbol>
  <symbol id="j" overflow="visible">
   <path d="m14.391-10.766c-1.5938 0-2.793 0.27344-3.5938 0.8125-0.80469 0.54297-1.2031 1.3398-1.2031 2.3906 0 0.96875 0.32031 1.7305 0.96875 2.2812 0.64453 0.54297 1.5469 0.8125 2.7031 0.8125 1.4375 0 2.6445-0.51562 3.625-1.5469 0.98828-1.0312 1.4844-2.3203 1.4844-3.875v-0.875zm11.688-2.8906v13.656h-7.7031v-3.5469c-1.0312 1.4492-2.1875 2.5078-3.4688 3.1719s-2.8398 1-4.6719 1c-2.4805 0-4.4961-0.72266-6.0469-2.1719-1.543-1.4453-2.3125-3.3203-2.3125-5.625 0-2.8125 0.96094-4.8672 2.8906-6.1719 1.9375-1.3125 4.9688-1.9688 9.0938-1.9688h4.5156v-0.60938c0-1.207-0.48047-2.0938-1.4375-2.6562-0.94922-0.5625-2.4375-0.84375-4.4688-0.84375-1.6367 0-3.1562 0.16797-4.5625 0.5-1.4062 0.32422-2.7188 0.8125-3.9375 1.4688v-5.8281c1.6445-0.40625 3.2891-0.70703 4.9375-0.90625 1.6562-0.20703 3.3047-0.3125 4.9531-0.3125 4.3203 0 7.4375 0.85547 9.3438 2.5625 1.9141 1.6992 2.875 4.4609 2.875 8.2812z"/>
  </symbol>
  <symbol id="i" overflow="visible">
   <path d="m12.031-30.719v6.7969h7.875v5.4688h-7.875v10.141c0 1.1172 0.21875 1.8711 0.65625 2.2656 0.4375 0.38672 1.3125 0.57812 2.625 0.57812h3.9375v5.4688h-6.5625c-3.0234 0-5.1641-0.62891-6.4219-1.8906-1.2617-1.2578-1.8906-3.3984-1.8906-6.4219v-10.141h-3.7969v-5.4688h3.7969v-6.7969z"/>
  </symbol>
  <symbol id="h" overflow="visible">
   <path d="m19.953-20.422v-12.812h7.6875v33.234h-7.6875v-3.4531c-1.0547 1.4062-2.2148 2.4375-3.4844 3.0938-1.2734 0.65625-2.7422 0.98438-4.4062 0.98438-2.9492 0-5.3711-1.1719-7.2656-3.5156-1.8867-2.3438-2.8281-5.3594-2.8281-9.0469s0.94141-6.7031 2.8281-9.0469c1.8945-2.3438 4.3164-3.5156 7.2656-3.5156 1.6562 0 3.1172 0.33594 4.3906 1 1.2812 0.65625 2.4453 1.6836 3.5 3.0781zm-5.0469 15.484c1.6445 0 2.8945-0.59766 3.75-1.7969 0.86328-1.1953 1.2969-2.9297 1.2969-5.2031 0-2.2812-0.43359-4.0195-1.2969-5.2188-0.85547-1.1953-2.1055-1.7969-3.75-1.7969-1.625 0-2.8711 0.60156-3.7344 1.7969-0.85547 1.1992-1.2812 2.9375-1.2812 5.2188 0 2.2734 0.42578 4.0078 1.2812 5.2031 0.86328 1.1992 2.1094 1.7969 3.7344 1.7969z"/>
  </symbol>
  <symbol id="g" overflow="visible">
   <path d="m16.406-4.9375c1.6328 0 2.8828-0.59766 3.75-1.7969 0.86328-1.1953 1.2969-2.9297 1.2969-5.2031 0-2.2812-0.43359-4.0195-1.2969-5.2188-0.86719-1.1953-2.1172-1.7969-3.75-1.7969-1.6367 0-2.8906 0.60547-3.7656 1.8125-0.875 1.1992-1.3125 2.9336-1.3125 5.2031 0 2.2617 0.4375 3.9961 1.3125 5.2031 0.875 1.1992 2.1289 1.7969 3.7656 1.7969zm-5.0781-15.484c1.0508-1.3945 2.2188-2.4219 3.5-3.0781 1.2812-0.66406 2.7539-1 4.4219-1 2.9453 0 5.3672 1.1719 7.2656 3.5156 1.8945 2.3438 2.8438 5.3594 2.8438 9.0469s-0.94922 6.7031-2.8438 9.0469c-1.8984 2.3438-4.3203 3.5156-7.2656 3.5156-1.668 0-3.1406-0.33594-4.4219-1s-2.4492-1.6914-3.5-3.0781v3.4531h-7.6562v-33.234h7.6562z"/>
  </symbol>
  <symbol id="f" overflow="visible">
   <path d="m0.53125-23.922h7.6562l6.4219 16.234 5.4688-16.234h7.6562l-10.062 26.188c-1.0117 2.6641-2.1953 4.5234-3.5469 5.5781-1.3438 1.0625-3.1211 1.5938-5.3281 1.5938h-4.4219v-5.0156h2.3906c1.3008 0 2.2422-0.21094 2.8281-0.625 0.59375-0.40625 1.0547-1.1484 1.3906-2.2188l0.20312-0.65625z"/>
  </symbol>
  <symbol id="e" overflow="visible">
   <path d="m0.21875-31.891h8.2656l8.4531 23.531 8.4375-23.531h8.2656l-11.812 31.891h-9.7969z"/>
  </symbol>
  <symbol id="p" overflow="visible">
   <path d="m4.0156-31.891h8.2188v31.891h-8.2188z"/>
  </symbol>
  <symbol id="c" overflow="visible">
   <path d="m4.0156-31.891h9.1875l11.594 21.875v-21.875h7.7969v31.891h-9.1875l-11.594-21.875v21.875h-7.7969z"/>
  </symbol>
  <symbol id="o" overflow="visible">
   <path d="m2.4531-31.891h26.812v4.9688l-17.109 20.703h17.594v6.2188h-27.781v-4.9844l17.109-20.688h-16.625z"/>
  </symbol>
  <symbol id="b" overflow="visible">
   <path d="m4.0156-31.891h22.203v6.2188h-13.984v5.9375h13.141v6.2188h-13.141v7.2969h14.453v6.2188h-22.672z"/>
  </symbol>
  <symbol id="n" overflow="visible">
   <path d="m26.219-30.891v6.75c-1.7617-0.78125-3.4766-1.3672-5.1406-1.7656-1.668-0.40625-3.2422-0.60938-4.7188-0.60938-1.9609 0-3.4141 0.27344-4.3594 0.8125-0.9375 0.54297-1.4062 1.3867-1.4062 2.5312 0 0.85547 0.31641 1.5234 0.95312 2 0.63281 0.46875 1.7852 0.875 3.4531 1.2188l3.5 0.70312c3.5391 0.71875 6.0625 1.8047 7.5625 3.25 1.5 1.4492 2.25 3.5117 2.25 6.1875 0 3.5234-1.0469 6.1406-3.1406 7.8594-2.0859 1.7188-5.2734 2.5781-9.5625 2.5781-2.0234 0-4.0547-0.19531-6.0938-0.57812-2.0312-0.38281-4.0625-0.95703-6.0938-1.7188v-6.9375c2.0312 1.0859 3.9922 1.9023 5.8906 2.4531 1.9062 0.54297 3.7422 0.8125 5.5156 0.8125 1.7891 0 3.1602-0.29688 4.1094-0.89062 0.95703-0.60156 1.4375-1.457 1.4375-2.5625 0-1-0.32422-1.7695-0.96875-2.3125-0.64844-0.53906-1.9375-1.0234-3.875-1.4531l-3.1875-0.70312c-3.1875-0.6875-5.5234-1.7734-7-3.2656-1.4688-1.5-2.2031-3.5156-2.2031-6.0469 0-3.1758 1.0234-5.6172 3.0781-7.3281 2.0508-1.707 5-2.5625 8.8438-2.5625 1.75 0 3.5508 0.13281 5.4062 0.39062 1.8516 0.26172 3.7695 0.65625 5.75 1.1875z"/>
  </symbol>
  <symbol id="m" overflow="visible">
   <path d="m0.21875-31.891h29.391v6.2188h-10.578v25.672h-8.2188v-25.672h-10.594z"/>
  </symbol>
  <symbol id="l" overflow="visible">
   <path d="m4.0156-31.891h8.2188v19.109c0 2.6367 0.42969 4.5234 1.2969 5.6562 0.86328 1.1367 2.2695 1.7031 4.2188 1.7031 1.9688 0 3.3789-0.56641 4.2344-1.7031 0.86328-1.1328 1.2969-3.0195 1.2969-5.6562v-19.109h8.2344v19.109c0 4.5234-1.1367 7.8867-3.4062 10.094-2.2617 2.2109-5.7148 3.3125-10.359 3.3125-4.625 0-8.0742-1.1016-10.344-3.3125-2.2617-2.207-3.3906-5.5703-3.3906-10.094z"/>
  </symbol>
 </defs>
 <g>
  <path d="m367.5 420h8.75c2.3203 0 4.5469-0.92188 6.1875-2.5625s2.5625-3.8672 2.5625-6.1875v-26.25c0-2.3203-0.92188-4.5469-2.5625-6.1875s-3.8672-2.5625-6.1875-2.5625h-140v-1.1562l53.141-7.5938h69.359c2.3203 0 4.5469-0.92188 6.1875-2.5625s2.5625-3.8672 2.5625-6.1875v-26.25c0-2.3203-0.92188-4.5469-2.5625-6.1875s-3.8672-2.5625-6.1875-2.5625h-70v0.17578c-0.41016-0.0625-0.82812-0.089843-1.2422-0.089843l-61.25 8.75-30.859 3.8594 5.582-27.93 8.582-25.75c0.26562-0.81641 0.41406-1.668 0.4375-2.5312 0-0.085937 0.042969-0.14844 0.042969-0.23438v-26.25c0-2.3203-0.92188-4.5469-2.5625-6.1875s-3.8672-2.5625-6.1875-2.5625h-26.293c-4.832 0-8.75 3.918-8.75 8.75v24.824l-8.3047 24.91c-0.078124 0.22656-0.085937 0.47266-0.14844 0.70703s-0.10547 0.21875-0.12109 0.33984l-8.75 43.75h0.14062v0.003906c-0.16797 0.55859-0.27344 1.1328-0.31641 1.7148v8.75h-8.75v-8.75c0-2.3203-0.92188-4.5469-2.5625-6.1875s-3.8672-2.5625-6.1875-2.5625h-52.5c-4.832 0-8.75 3.918-8.75 8.75v105c0 2.3203 0.92188 4.5469 2.5625 6.1875s3.8672 2.5625 6.1875 2.5625h52.5c2.3203 0 4.5469-0.92188 6.1875-2.5625s2.5625-3.8672 2.5625-6.1875v-8.75h8.75v8.75c0 4.4102 3.2852 8.1328 7.6641 8.6797l70 8.75c0.35938 0.046874 0.72266 0.070312 1.0859 0.070312h113.75c2.3203 0 4.5469-0.92188 6.1875-2.5625s2.5625-3.8672 2.5625-6.1875v-17.5h8.75c2.3203 0 4.5469-0.92188 6.1875-2.5625s2.5625-3.8672 2.5625-6.1875zm-17.5-70h-26.25v-8.75h26.25zm-43.75 0h-8.75v-8.75h8.75zm61.25 52.5h-43.75v-8.75h43.75zm-96.25 26.25h-35v-8.75h43.75v8.75zm26.25 0v-8.75h8.75v8.75zm8.75-26.25h-8.75v-8.75h8.75zm-26.25-8.75v8.75h-43.75v-8.75zm0-42.586-43.75 6.2461v-8.5742l43.75-6.2461zm-111.54-11.375 4.9609-24.789h8.3984l-4.7422 23.738zm12.844-51.039h7.8047l-2.9219 8.75h-7.8047zm2.4414-26.25h8.75v8.75h-8.75zm-61.25 183.75h-35v-87.5h35zm17.5-17.5v-52.5h8.75v52.5zm26.25 8.75v-79.773l52.5-6.5625v102.67l-52.5-6.5625zm70 8.75h26.25v8.75h-26.25zm43.75 0h8.75v8.75h-8.75zm52.5 8.75h-26.25v-8.75h26.25zm17.5-26.25h-26.25v-8.75h26.25z"/>
  <path d="m378.42 207.01c1.6602 1.8828 4.0508 2.9609 6.5625 2.9609 2.5078 0 4.8984-1.0781 6.5625-2.9609l68.18-77.875c6.3555-7.2773 10.57-16.176 12.164-25.707 1.5938-9.5273 0.50781-19.312-3.1367-28.262-3.2578-8.5469-8.8633-16.004-16.164-21.512-7.3047-5.5078-16.012-8.8438-25.125-9.6328-15.336-1.3281-30.578 3.4023-42.465 13.18-11.898-9.7734-27.141-14.512-42.48-13.215-9.1172 0.78516-17.828 4.1211-25.137 9.6289-7.3047 5.5078-12.91 12.965-16.172 21.516-3.6445 8.9492-4.7305 18.734-3.1367 28.262 1.5938 9.5312 5.8086 18.43 12.164 25.707zm-60.965-125.38c2.0938-5.5312 5.7031-10.363 10.414-13.938 4.7148-3.5742 10.34-5.7461 16.23-6.2656 1.2266-0.11328 2.457-0.17578 3.7109-0.17578 11.73 0.023438 22.883 5.0859 30.625 13.895 1.7031 1.8086 4.0781 2.8359 6.5625 2.8359s4.8594-1.0273 6.5625-2.8359c8.6406-9.7383 21.379-14.828 34.352-13.719 5.8906 0.52344 11.512 2.6953 16.223 6.2695 4.707 3.5742 8.3164 8.4023 10.406 13.934 2.4375 5.957 3.1719 12.473 2.1211 18.82-1.0508 6.3477-3.8477 12.281-8.0742 17.133l-61.59 70.375-61.59-70.375c-4.2266-4.8516-7.0234-10.785-8.0742-17.133-1.0508-6.3477-0.31641-12.863 2.1211-18.82z"/>
  <path d="m621.25 385h-52.5c-4.832 0-8.75 3.918-8.75 8.75v6.3008l-81.227-20.301c-6.8281-1.6953-14.059-0.18359-19.641 4.1055-5.582 4.2852-8.9023 10.883-9.0273 17.918-0.12109 7.0391 2.9688 13.746 8.3945 18.227h-51.625c-5.8008 0-11.367 2.3047-15.469 6.4062s-6.4062 9.668-6.4062 15.469c-0.003906 1.5859 0.17188 3.168 0.51562 4.7148-6.793 1.2148-12.613 5.5625-15.707 11.734-3.0898 6.168-3.0898 13.434 0 19.602 3.0938 6.1719 8.9141 10.52 15.707 11.734-0.34375 1.5469-0.51953 3.1289-0.51562 4.7148 0 5.8008 2.3047 11.367 6.4062 15.469s9.668 6.4062 15.469 6.4062h4.8125c-1.3125 6.4375 0.33594 13.125 4.4883 18.211 4.1562 5.0898 10.379 8.0391 16.949 8.0391h126.88v8.75c0 2.3203 0.92188 4.5469 2.5625 6.1875s3.8672 2.5625 6.1875 2.5625h52.5c2.3203 0 4.5469-0.92188 6.1875-2.5625s2.5625-3.8672 2.5625-6.1875v-157.5c0-2.3203-0.92188-4.5469-2.5625-6.1875s-3.8672-2.5625-6.1875-2.5625zm-188.12 140c-2.418 0-4.375-1.957-4.375-4.375s1.957-4.375 4.375-4.375h48.125c4.832 0 8.75-3.918 8.75-8.75s-3.918-8.75-8.75-8.75h-74.375c-2.418 0-4.375-1.957-4.375-4.375s1.957-4.375 4.375-4.375h74.375c4.832 0 8.75-3.918 8.75-8.75s-3.918-8.75-8.75-8.75h-91.875c-2.418 0-4.375-1.957-4.375-4.375s1.957-4.375 4.375-4.375h91.875c4.832 0 8.75-3.918 8.75-8.75s-3.918-8.75-8.75-8.75h-74.375c-2.418 0-4.375-1.957-4.375-4.375s1.957-4.375 4.375-4.375h91.875v78.75h17.5v-47.891c6.543 5.9688 14.465 10.215 23.055 12.355l1.0508 0.26953 4.2891-16.977-1.0664-0.25781c-7.8125-1.9414-14.75-6.4414-19.703-12.785s-7.6367-14.168-7.625-22.215h-0.14062c0.054687-3.7383-2.3047-7.0859-5.8438-8.2969l-38.867-12.957c-2.8594-0.95703-4.4531-4-3.6133-6.8945 0.84375-2.8945 3.8203-4.6094 6.7461-3.8867l85.469 21.359v106.93zm179.38 17.5h-35v-140h35z"/>
  <path d="m261.07 245h89.25c6.0742 0 11.371 4.1328 12.844 10.027l13.336 53.375c0.97656 3.8945 4.4727 6.6211 8.4883 6.6211 4.0117 0 7.5117-2.7266 8.4883-6.6211l13.336-53.375h-0.003906c1.4766-5.8984 6.7773-10.031 12.855-10.027h89.25c15.863-0.015625 31.07-6.3242 42.285-17.539 11.219-11.215 17.527-26.422 17.547-42.285v-125.35c-0.019531-15.859-6.3281-31.066-17.543-42.281-11.215-11.215-26.422-17.523-42.281-17.543h-247.85c-15.859 0.019531-31.066 6.3281-42.281 17.543-11.215 11.215-17.523 26.422-17.543 42.281v125.35c0.019531 15.859 6.3281 31.066 17.543 42.281 11.215 11.215 26.422 17.523 42.281 17.543zm-42.324-185.18c0.015625-11.223 4.4766-21.977 12.41-29.914 7.9375-7.9336 18.691-12.395 29.914-12.41h247.85c11.223 0.015625 21.977 4.4766 29.914 12.41 7.9336 7.9375 12.395 18.691 12.41 29.914v125.35c-0.015625 11.223-4.4766 21.977-12.41 29.914-7.9375 7.9336-18.691 12.395-29.914 12.41h-89.25c-6.8555-0.007812-13.52 2.2812-18.922 6.5-5.4062 4.2227-9.2422 10.129-10.898 16.785l-4.8555 19.379-4.8477-19.391c-1.6562-6.6523-5.4922-12.559-10.898-16.777-5.4062-4.2148-12.066-6.5039-18.922-6.4961h-89.25c-11.223-0.011719-21.98-4.4727-29.918-12.41-7.9336-7.9336-12.398-18.691-12.414-29.914z"/>
  <use x="70" y="691.25" xlink:href="#d"/>
  <use x="102.109375" y="691.25" xlink:href="#k"/>
  <use x="123.683594" y="691.25" xlink:href="#a"/>
  <use x="153.355469" y="691.25" xlink:href="#j"/>
  <use x="182.878906" y="691.25" xlink:href="#i"/>
  <use x="203.792969" y="691.25" xlink:href="#a"/>
  <use x="233.464844" y="691.25" xlink:href="#h"/>
  <use x="280.011719" y="691.25" xlink:href="#g"/>
  <use x="311.328125" y="691.25" xlink:href="#f"/>
  <use x="355.078125" y="691.25" xlink:href="#e"/>
  <use x="388.9375" y="691.25" xlink:href="#p"/>
  <use x="405.21875" y="691.25" xlink:href="#c"/>
  <use x="441.832031" y="691.25" xlink:href="#o"/>
  <use x="473.554688" y="691.25" xlink:href="#b"/>
  <use x="503.441406" y="691.25" xlink:href="#c"/>
  <use x="540.054688" y="691.25" xlink:href="#d"/>
  <use x="572.164062" y="691.25" xlink:href="#b"/>
  <use x="617.28125" y="691.25" xlink:href="#n"/>
  <use x="648.789062" y="691.25" xlink:href="#m"/>
  <use x="678.632812" y="691.25" xlink:href="#l"/>
 </g>
</svg>
