<svg width="31" height="30" viewBox="0 0 31 30" fill="none" xmlns="http://www.w3.org/2000/svg">
<path d="M16.3372 22.4999H16.806C16.9303 22.4999 17.0496 22.4505 17.1375 22.3627C17.2253 22.2748 17.2747 22.1555 17.2747 22.0312V20.6249C17.2747 20.5006 17.2253 20.3814 17.1375 20.2935C17.0496 20.2056 16.9303 20.1562 16.806 20.1562H9.30606V20.0943L12.1529 19.6875H15.8685C15.9928 19.6875 16.1121 19.6381 16.2 19.5502C16.2879 19.4623 16.3372 19.343 16.3372 19.2187V17.8125C16.3372 17.6882 16.2879 17.5689 16.2 17.481C16.1121 17.3931 15.9928 17.3437 15.8685 17.3437H12.1185V17.3531C12.0966 17.3498 12.0742 17.3483 12.052 17.3483L8.77076 17.8171L7.11762 18.0238L7.41665 16.5276L7.8764 15.1481C7.89063 15.1044 7.89858 15.0588 7.89984 15.0125C7.89984 15.0079 7.90214 15.0046 7.90214 15V13.5937C7.90214 13.4694 7.85275 13.3502 7.76486 13.2623C7.67697 13.1744 7.55769 13.125 7.43339 13.125H6.02485C5.766 13.125 5.55611 13.3349 5.55611 13.5937V14.9236L5.11121 16.258C5.10703 16.2702 5.10661 16.2834 5.10326 16.2959C5.09991 16.3085 5.09761 16.3076 5.09678 16.3141L4.62803 18.6579H4.63556V18.6581C4.62657 18.688 4.62091 18.7187 4.61861 18.7499V19.2187H4.14987V18.7499C4.14987 18.6256 4.10048 18.5063 4.01259 18.4185C3.9247 18.3306 3.80542 18.2812 3.68112 18.2812H0.868648C0.609793 18.2812 0.399902 18.4911 0.399902 18.7499V24.3749C0.399902 24.4992 0.449288 24.6185 0.537178 24.7063C0.625067 24.7942 0.744347 24.8436 0.868648 24.8436H3.68112C3.80542 24.8436 3.9247 24.7942 4.01259 24.7063C4.10048 24.6185 4.14987 24.4992 4.14987 24.3749V23.9061H4.61861V24.3749C4.61861 24.6111 4.7946 24.8106 5.02919 24.8399L8.77915 25.3086C8.7984 25.3111 8.81786 25.3124 8.83732 25.3124H14.931C15.0553 25.3124 15.1746 25.263 15.2625 25.1751C15.3504 25.0872 15.3998 24.9679 15.3998 24.8436V23.9061H15.8685C15.9928 23.9061 16.1121 23.8567 16.2 23.7689C16.2879 23.681 16.3373 23.5617 16.3373 23.4374L16.3372 22.4999ZM15.3997 18.75H13.9935V18.2812H15.3997V18.75ZM13.056 18.75H12.5873V18.2812H13.056V18.75ZM16.3372 21.5624H13.9935V21.0937H16.3372V21.5624ZM11.181 22.9687H9.30606V22.4999H11.6498V22.9687H11.181ZM12.5873 22.9687V22.4999H13.056V22.9687H12.5873ZM13.056 21.5624H12.5873V21.0937H13.056V21.5624ZM11.6498 21.0937V21.5624H9.30606V21.0937H11.6498ZM11.6498 18.8123L9.30606 19.1469V18.6876L11.6498 18.353V18.8123ZM5.67448 18.2029L5.94024 16.875H6.39015L6.13611 18.1466L5.67448 18.2029ZM6.36255 15.4687H6.78065L6.62412 15.9375H6.20602L6.36255 15.4687ZM6.49334 14.0625H6.96208V14.5312H6.49334V14.0625ZM3.21212 23.9062H1.33713V19.2187H3.21212V23.9062ZM4.14961 22.9687V20.1562H4.61835V22.9687H4.14961ZM5.55584 23.4374V19.1639L8.36832 18.8123V24.3125L5.55584 23.9609V23.4374ZM9.30581 23.9062H10.712V24.3749H9.30581V23.9062ZM11.6495 23.9062H12.1183V24.3749H11.6495V23.9062ZM14.462 24.3749H13.0558V23.9062H14.462V24.3749ZM15.3995 22.9687H13.9933V22.4999H15.3995V22.9687Z" fill="black"/>
<path d="M16.9221 11.0898C17.0111 11.1907 17.1391 11.2484 17.2737 11.2484C17.408 11.2484 17.5361 11.1907 17.6253 11.0898L21.2777 6.91798C21.6182 6.52813 21.844 6.05142 21.9294 5.54083C22.0147 5.03045 21.9566 4.50627 21.7613 4.02681C21.5868 3.56895 21.2865 3.16946 20.8954 2.87439C20.5041 2.57934 20.0376 2.40062 19.5494 2.35836C18.7279 2.28721 17.9113 2.54062 17.2745 3.06442C16.6372 2.54085 15.8206 2.287 14.9988 2.35648C14.5104 2.39854 14.0438 2.57725 13.6522 2.87231C13.2609 3.16737 12.9606 3.56686 12.7859 4.02494C12.5906 4.50436 12.5325 5.02854 12.6178 5.53896C12.7032 6.04956 12.929 6.52628 13.2695 6.91611L16.9221 11.0898ZM13.6562 4.37309C13.7683 4.07678 13.9617 3.81794 14.2141 3.62642C14.4666 3.43495 14.768 3.3186 15.0835 3.29077C15.1492 3.2847 15.2151 3.28135 15.2823 3.28135C15.9107 3.28261 16.5082 3.55381 16.9229 4.02572C17.0142 4.12261 17.1414 4.17764 17.2745 4.17764C17.4076 4.17764 17.5348 4.12261 17.626 4.02572C18.0889 3.50403 18.7713 3.23137 19.4663 3.29078C19.7819 3.31882 20.083 3.43517 20.3354 3.62664C20.5876 3.81812 20.7809 4.07676 20.8929 4.3731C21.0234 4.69222 21.0628 5.04129 21.0065 5.38131C20.9502 5.72136 20.8004 6.03921 20.5739 6.29914L17.2745 10.0692L13.9751 6.29914C13.7487 6.03923 13.5988 5.72137 13.5425 5.38131C13.4862 5.04125 13.5256 4.69222 13.6562 4.37309Z" fill="black"/>
<path d="M29.9311 20.6251H27.1186C26.8597 20.6251 26.6498 20.835 26.6498 21.0938V21.4314L22.2984 20.3438C21.9326 20.253 21.5453 20.334 21.2462 20.5638C20.9472 20.7933 20.7693 21.1468 20.7626 21.5236C20.7562 21.9007 20.9217 22.26 21.2123 22.5001H18.4467C18.136 22.5001 17.8378 22.6235 17.6181 22.8433C17.3983 23.063 17.2749 23.3612 17.2749 23.6719C17.2747 23.7569 17.2841 23.8417 17.3025 23.9245C16.9386 23.9896 16.6268 24.2225 16.4611 24.5531C16.2955 24.8836 16.2955 25.2728 16.4611 25.6032C16.6268 25.9339 16.9386 26.1668 17.3025 26.2318C17.2841 26.3147 17.2747 26.3994 17.2749 26.4844C17.2749 26.7952 17.3983 27.0933 17.6181 27.3131C17.8378 27.5328 18.136 27.6563 18.4467 27.6563H18.7046C18.6342 28.0011 18.7226 28.3594 18.945 28.6319C19.1677 28.9045 19.501 29.0625 19.853 29.0625H26.6501V29.5313C26.6501 29.6556 26.6994 29.7748 26.7873 29.8627C26.8752 29.9506 26.9945 30 27.1188 30H29.9313C30.0556 30 30.1749 29.9506 30.2627 29.8627C30.3506 29.7748 30.4 29.6556 30.4 29.5313V21.0938C30.4 20.9695 30.3506 20.8503 30.2627 20.7624C30.1749 20.6745 30.0556 20.6251 29.9313 20.6251L29.9311 20.6251ZM19.8533 28.125C19.7238 28.125 19.6189 28.0202 19.6189 27.8906C19.6189 27.7611 19.7238 27.6563 19.8533 27.6563H22.4314C22.6903 27.6563 22.9001 27.4464 22.9001 27.1875C22.9001 26.9287 22.6903 26.7188 22.4314 26.7188H18.4471C18.3175 26.7188 18.2127 26.6139 18.2127 26.4844C18.2127 26.3549 18.3175 26.25 18.4471 26.25H22.4314C22.6903 26.25 22.9001 26.0401 22.9001 25.7813C22.9001 25.5224 22.6903 25.3125 22.4314 25.3125H17.5096C17.38 25.3125 17.2752 25.2077 17.2752 25.0782C17.2752 24.9486 17.38 24.8438 17.5096 24.8438H22.4314C22.6903 24.8438 22.9001 24.6339 22.9001 24.375C22.9001 24.1162 22.6903 23.9063 22.4314 23.9063H18.4471C18.3175 23.9063 18.2127 23.8015 18.2127 23.6719C18.2127 23.5424 18.3175 23.4375 18.4471 23.4375H23.3689V27.6563H24.3064V25.0907C24.6569 25.4104 25.0813 25.6379 25.5415 25.7526L25.5977 25.767L25.8275 24.8575L25.7704 24.8437C25.3519 24.7397 24.9802 24.4986 24.7149 24.1588C24.4495 23.819 24.3058 23.3998 24.3064 22.9687H24.2989C24.3018 22.7685 24.1754 22.5891 23.9858 22.5243L21.9037 21.8301C21.7505 21.7789 21.6651 21.6159 21.7101 21.4608C21.7553 21.3057 21.9148 21.2139 22.0715 21.2526L26.6502 22.3968V28.1251L19.8533 28.125ZM29.4628 29.0625H27.5879V21.5626H29.4628V29.0625Z" fill="black"/>
<path d="M10.6359 13.125H15.4171C15.7425 13.125 16.0262 13.3464 16.1052 13.6622L16.8196 16.5215C16.8719 16.7302 17.0592 16.8762 17.2743 16.8762C17.4892 16.8762 17.6767 16.7302 17.729 16.5215L18.4435 13.6622H18.4432C18.5223 13.3462 18.8063 13.1248 19.1319 13.125H23.9131C24.7629 13.1242 25.5776 12.7862 26.1784 12.1854C26.7794 11.5846 27.1173 10.77 27.1184 9.92019V3.20507C27.1173 2.35549 26.7794 1.54084 26.1786 0.940039C25.5778 0.339241 24.7631 0.00131556 23.9135 0.000244141H10.636C9.7864 0.00129043 8.97175 0.339246 8.37095 0.940039C7.77015 1.54084 7.43222 2.35549 7.43115 3.20507V9.92019C7.4322 10.7698 7.77015 11.5844 8.37095 12.1852C8.97175 12.786 9.7864 13.1239 10.636 13.125H10.6359ZM8.36855 3.20475C8.36939 2.60352 8.60837 2.02742 9.03337 1.60223C9.45859 1.17722 10.0347 0.938218 10.6359 0.937414H23.9134C24.5147 0.938251 25.0908 1.17723 25.516 1.60223C25.941 2.02745 26.18 2.60352 26.1808 3.20475V9.91987C26.1799 10.5211 25.941 11.0972 25.516 11.5224C25.0907 11.9474 24.5147 12.1864 23.9134 12.1872H19.1322C18.765 12.1868 18.408 12.3094 18.1186 12.5354C17.829 12.7616 17.6235 13.078 17.5348 13.4346L17.2746 14.4728L17.0149 13.434C16.9262 13.0776 16.7207 12.7612 16.4311 12.5352C16.1415 12.3094 15.7847 12.1868 15.4175 12.1872H10.6363C10.035 12.1866 9.45876 11.9476 9.03352 11.5224C8.60851 11.0974 8.36935 10.5211 8.36849 9.91986L8.36855 3.20475Z" fill="black"/>
</svg>
