<svg width="30" height="30" viewBox="0 0 30 30" fill="none" xmlns="http://www.w3.org/2000/svg">
<path d="M16.4115 22.5003V21.1466C16.4106 21.0193 16.4945 20.9072 16.6167 20.8718C17.1058 20.7385 17.576 20.5441 18.0165 20.2934C18.1276 20.2294 18.268 20.2486 18.3576 20.3403L19.3139 21.2966C19.497 21.4795 19.7938 21.4795 19.9767 21.2966L21.3028 19.9705C21.4859 19.7874 21.4859 19.4907 21.3028 19.3076L20.346 18.3508L20.3462 18.351C20.2558 18.2606 20.2366 18.1215 20.2994 18.0102C20.5499 17.5697 20.7443 17.0994 20.8778 16.6104C20.9136 16.489 21.0253 16.4059 21.1519 16.4066H22.5052C22.6295 16.4066 22.7488 16.3572 22.8367 16.2693C22.9246 16.1814 22.974 16.0621 22.974 15.9378V14.0628C22.974 13.9385 22.9246 13.8192 22.8367 13.7313C22.7488 13.6434 22.6295 13.5941 22.5052 13.5941H21.1519C21.0245 13.5949 20.9119 13.5108 20.8767 13.3884C20.7432 12.8995 20.5488 12.4295 20.2983 11.989C20.2353 11.8777 20.2546 11.7381 20.3452 11.6479L21.3015 10.6916C21.4844 10.5084 21.4844 10.2117 21.3015 10.0288L19.9754 8.70272C19.7923 8.51961 19.4956 8.51961 19.3125 8.70272L18.3558 9.65945L18.356 9.65924C18.2658 9.74985 18.1262 9.7691 18.0151 9.70611C17.5748 9.45562 17.1046 9.26143 16.616 9.1277C16.4942 9.09213 16.4109 8.98038 16.4116 8.85357V7.50024C16.4116 7.37594 16.3622 7.25666 16.2743 7.16877C16.1864 7.08088 16.0671 7.03149 15.9428 7.03149H14.0678C13.809 7.03149 13.5991 7.24139 13.5991 7.50024V8.85357C13.5999 8.98101 13.5158 9.09359 13.3934 9.12875C12.9045 9.26226 12.4346 9.45666 11.9941 9.70716C11.8827 9.76973 11.7434 9.75048 11.653 9.66028L10.6966 8.70393C10.5135 8.52103 10.2168 8.52103 10.0339 8.70393L8.7078 10.03C8.52469 10.2131 8.52469 10.5099 8.7078 10.693L9.66452 11.6497L9.66431 11.6495C9.75492 11.7397 9.77417 11.8793 9.71118 11.9904C9.4607 12.4307 9.2665 12.9009 9.13278 13.3895C9.09762 13.5122 8.98525 13.5963 8.8576 13.5954H7.50537C7.24651 13.5954 7.03662 13.8053 7.03662 14.0642V15.9392C7.03662 16.0635 7.08601 16.1828 7.1739 16.2707C7.26179 16.3586 7.38107 16.4079 7.50537 16.4079H8.85867C8.9859 16.4071 9.09828 16.4908 9.13385 16.6132C9.26715 17.1021 9.46155 17.5721 9.71225 18.0124C9.77503 18.1237 9.75599 18.2633 9.66538 18.3537L8.70903 19.3104C8.52614 19.4935 8.52614 19.79 8.70903 19.9731L10.0351 21.2992C10.2182 21.4823 10.515 21.4823 10.6981 21.2992L11.6544 20.3429L11.6542 20.3431C11.7444 20.2523 11.8842 20.2332 11.9955 20.2962C12.4358 20.5467 12.906 20.7411 13.3946 20.8746C13.517 20.9096 13.6012 21.0219 13.6005 21.1492V22.5002C13.6005 22.6245 13.6499 22.7438 13.7378 22.8317C13.8257 22.9196 13.945 22.9689 14.0693 22.9689H15.9443C16.2025 22.9681 16.4115 22.7584 16.4115 22.5002L16.4115 22.5003ZM15.474 21.1466V22.0316H14.5365V21.1466C14.5363 20.8793 14.4486 20.6194 14.2868 20.4068C14.1249 20.1942 13.8978 20.0404 13.6402 19.969C13.2274 19.8562 12.8302 19.692 12.4581 19.4802C12.2252 19.3483 11.9555 19.2964 11.6904 19.3326C11.4252 19.3686 11.1791 19.4906 10.99 19.6798L10.3647 20.3032L9.70196 19.6409L10.3268 19.0156C10.516 18.8265 10.638 18.5806 10.6742 18.3155C10.7104 18.0505 10.6585 17.7808 10.5269 17.5479C10.3145 17.1756 10.1498 16.7782 10.0366 16.3649C9.96501 16.1073 9.8112 15.8805 9.59838 15.7187C9.38577 15.557 9.12587 15.4693 8.85862 15.4691H7.97406V14.5316H8.85862C9.12585 14.5314 9.38575 14.4437 9.59854 14.2819C9.81136 14.12 9.96517 13.8929 10.0365 13.6353C10.1495 13.2224 10.3138 12.8253 10.5254 12.4532C10.657 12.2203 10.7089 11.9506 10.6727 11.6854C10.6367 11.4203 10.5149 11.1744 10.3257 10.985L9.70189 10.3598L10.3646 9.69702L10.9895 10.3219C11.1784 10.5113 11.4243 10.6335 11.6894 10.6697C11.9546 10.7057 12.2243 10.6538 12.457 10.5219C12.8295 10.3097 13.2269 10.145 13.6402 10.0316C13.8978 9.96027 14.1248 9.80646 14.2868 9.59364C14.4485 9.38082 14.5362 9.12092 14.5364 8.85371V7.96914H15.4739V8.85371C15.4741 9.12094 15.5618 9.38084 15.7235 9.59364C15.8855 9.80646 16.1126 9.96027 16.3701 10.0316C16.783 10.1446 17.1802 10.3089 17.5522 10.5205C17.7851 10.6521 18.0549 10.704 18.32 10.6678C18.5851 10.6318 18.831 10.51 19.0204 10.3208L19.6457 9.69699L20.3084 10.3597L19.6836 10.9846C19.4944 11.1738 19.3724 11.4196 19.3362 11.6845C19.3 11.9497 19.3519 12.2194 19.4835 12.4521C19.6957 12.8246 19.8604 13.222 19.9738 13.6353C20.0452 13.8929 20.199 14.12 20.4118 14.2819C20.6246 14.4437 20.8845 14.5313 21.1517 14.5316H22.0363V15.4691H21.1517C20.8845 15.4693 20.6246 15.5569 20.4119 15.7187C20.1991 15.8805 20.0453 16.1073 19.9737 16.3649C19.8607 16.778 19.6965 17.1756 19.4849 17.5479C19.3533 17.7808 19.3014 18.0503 19.3376 18.3152C19.3736 18.5801 19.4954 18.826 19.6845 19.0152L20.3084 19.6409L19.6457 20.3032L19.0204 19.6783C18.8312 19.4892 18.5853 19.3672 18.3202 19.3312C18.0551 19.2952 17.7855 19.3469 17.5526 19.4787C17.1806 19.6909 16.7832 19.8556 16.3701 19.969C16.1125 20.0404 15.8855 20.1942 15.7235 20.4068C15.5618 20.6194 15.4741 20.8793 15.4739 21.1466L15.474 21.1466Z" fill="black"/>
<path d="M19.6928 15.0002C19.6928 13.757 19.1989 12.5648 18.3198 11.6857C17.4407 10.8066 16.2485 10.3127 15.0053 10.3127C13.7621 10.3127 12.5699 10.8066 11.6908 11.6857C10.8117 12.5648 10.3179 13.757 10.3179 15.0002C10.3179 16.2435 10.8117 17.4357 11.6908 18.3148C12.5699 19.1939 13.7621 19.6878 15.0053 19.6878C16.2481 19.6863 17.4396 19.192 18.3184 18.3133C19.1971 17.4346 19.6913 16.2431 19.6928 15.0002ZM13.1941 18.2815H14.0678V17.344H12.0827C11.9576 17.1883 11.8454 17.0228 11.7471 16.8491L13.1213 16.8752L13.139 15.9377L11.37 15.9041H11.3702C11.0607 14.6886 11.388 13.3994 12.2396 12.4788L12.8622 13.1853C12.4303 13.6913 12.193 14.335 12.1928 15.0003H13.1303C13.1303 14.503 13.3278 14.0261 13.6794 13.6744C14.0311 13.3228 14.508 13.1253 15.0052 13.1253V12.1877C14.5026 12.188 14.0091 12.324 13.5775 12.5816L12.9489 11.8682V11.868C13.6338 11.4156 14.4486 11.2017 15.2675 11.2595C16.0861 11.3175 16.8629 11.6437 17.4775 12.1878H15.9428V13.1253H18.248C18.3359 13.276 18.4131 13.4327 18.4792 13.594H16.8802V14.5315H18.7228C18.7433 14.687 18.7542 14.8435 18.7552 15.0003C18.7554 15.8327 18.4767 16.6413 17.964 17.2972L17.2952 16.6284H17.295C17.6351 16.1536 17.818 15.5842 17.8177 15.0003H16.8803C16.8803 15.4975 16.6827 15.9744 16.3312 16.3262C15.9794 16.6777 15.5025 16.8753 15.0053 16.8753V17.8128C15.5889 17.8128 16.1579 17.6299 16.6323 17.2901L17.3021 17.9591C16.7248 18.4104 16.0273 18.6818 15.2965 18.7392C14.566 18.7965 13.8346 18.6373 13.1941 18.2815Z" fill="black"/>
<path d="M15.8532 16.1724L16.3491 15.3132C16.4328 15.1681 16.4328 14.9894 16.3491 14.8444L15.8532 13.9856C15.7695 13.8406 15.6146 13.7512 15.4472 13.7512H14.4553C14.2879 13.7512 14.1332 13.8406 14.0493 13.9856L13.5525 14.8444C13.4688 14.9894 13.4688 15.1681 13.5525 15.3132L14.0493 16.1724C14.1332 16.3174 14.2879 16.4068 14.4553 16.4068H15.4472C15.6146 16.4068 15.7695 16.3174 15.8532 16.1724ZM15.1768 15.4693H14.7244L14.4994 15.0788L14.7244 14.6887H15.1754L15.4003 15.0788L15.1768 15.4693Z" fill="black"/>
<path d="M5.62841 12.6565H7.97213V11.719H5.15966C4.90081 11.719 4.69092 11.9289 4.69092 12.1877V17.8127C4.69092 17.9371 4.7403 18.0563 4.82819 18.1442C4.91608 18.2321 5.03536 18.2815 5.15966 18.2815H7.97213V17.344H5.62841V12.6565Z" fill="black"/>
<path d="M24.3769 17.344H22.0332V18.2815H24.8457C24.97 18.2815 25.0893 18.2321 25.1771 18.1442C25.265 18.0563 25.3144 17.9371 25.3144 17.8127V12.1877C25.3144 12.0634 25.265 11.9442 25.1771 11.8563C25.0893 11.7684 24.97 11.719 24.8457 11.719H22.0332V12.6565H24.3769V17.344Z" fill="black"/>
<path d="M22.4946 0.937744H27.1821V1.87524H22.4946V0.937744Z" fill="black"/>
<path d="M28.1216 0.937744H29.0591V1.87524H28.1216V0.937744Z" fill="black"/>
<path d="M22.4946 2.81274H23.4321V3.75024H22.4946V2.81274Z" fill="black"/>
<path d="M24.3784 2.81274H29.0659V3.75024H24.3784V2.81274Z" fill="black"/>
<path d="M22.4946 4.68774H27.1821V5.62524H22.4946V4.68774Z" fill="black"/>
<path d="M0.935547 24.3752H5.623V25.3127H0.935547V24.3752Z" fill="black"/>
<path d="M6.5625 24.3752H7.49999V25.3127H6.5625V24.3752Z" fill="black"/>
<path d="M0.935547 26.2502H1.87304V27.1877H0.935547V26.2502Z" fill="black"/>
<path d="M2.80713 26.2502H7.49458V27.1877H2.80713V26.2502Z" fill="black"/>
<path d="M0.935547 28.1252H5.623V29.0627H0.935547V28.1252Z" fill="black"/>
<path d="M29.938 26.0156L28.063 22.7344C27.9791 22.5892 27.824 22.4996 27.6562 22.5H23.9062C23.7384 22.4996 23.5833 22.5892 23.4994 22.7344L21.7594 25.7813H17.5378L16.087 24.3304H16.0872C18.107 24.1863 20.0745 23.6217 21.8632 22.6727C23.6522 21.7237 25.2231 20.4114 26.4751 18.8199L27.0466 18.0938C27.7437 17.2126 28.1229 16.1218 28.1229 14.9983C28.1229 13.8748 27.7437 12.7841 27.0466 11.9029L26.4732 11.1786V11.1789C25.1078 9.44281 23.3651 8.04074 21.3773 7.07833C19.3894 6.11613 17.2084 5.61915 14.9997 5.62499C14.4653 5.62562 13.9312 5.65491 13.3999 5.71309L10.6124 3.39007C10.528 3.31976 10.4219 3.28125 10.3123 3.28125H8.24037L6.50039 0.234377C6.41648 0.0891497 6.26142 -0.000416397 6.09358 1.46038e-06H2.34362C2.1758 -0.000417067 2.02074 0.0891497 1.93682 0.234377L0.0618382 3.51563C-0.0206127 3.6596 -0.0206127 3.83664 0.0618382 3.98061L1.93682 7.26187C2.01969 7.40856 2.17496 7.49959 2.34362 7.50001H6.09358C6.26141 7.50043 6.41647 7.41086 6.50039 7.26563L8.24037 4.21876H10.1426L12.1647 5.90626C8.74576 6.57215 5.6799 8.44335 3.52421 11.1797L2.95271 11.9063C2.25651 12.7872 1.87776 13.8771 1.87776 15C1.87776 16.1229 2.25652 17.2128 2.95271 18.0938L3.52608 18.8184C4.8706 20.5277 6.58128 21.9136 8.53244 22.8744C10.4834 23.8351 12.6251 24.3459 14.7997 24.3693L17.0118 26.5815H17.0116C17.0995 26.6694 17.2188 26.7187 17.3431 26.7187H21.7587L23.4987 29.7656C23.5826 29.9109 23.7376 30.0004 23.9055 30H27.6554C27.8233 30.0004 27.9783 29.9109 28.0622 29.7656L29.9372 26.4844C30.0209 26.3394 30.0209 26.1606 29.9372 26.0156L29.938 26.0156ZM5.82198 6.56276H2.61566L1.00875 3.75026L2.61566 0.937759H5.82198L7.4289 3.75026L5.82198 6.56276ZM4.25964 18.2387L3.68628 17.5136C3.12046 16.7979 2.81259 15.9125 2.81259 15.0001C2.81259 14.0877 3.12041 13.2023 3.68628 12.4866L4.25964 11.7616C5.97455 9.59336 8.30569 7.99484 10.9464 7.17659C13.587 6.35817 16.4133 6.35817 19.0538 7.17659C21.6942 7.99478 24.0254 9.59336 25.7405 11.7616L26.3139 12.4866C26.8797 13.2023 27.1875 14.0877 27.1875 15.0001C27.1875 15.9125 26.8797 16.7979 26.3139 17.5136L25.7405 18.2387C24.0256 20.4069 21.6944 22.0054 19.0538 22.8236C16.4131 23.642 13.5869 23.642 10.9464 22.8236C8.3059 22.0054 5.97471 20.4069 4.25964 18.2387ZM27.384 29.0628H24.1777L22.5708 26.2503L24.1777 23.4378H27.384L28.9909 26.2503L27.384 29.0628Z" fill="black"/>
<path d="M24.3784 24.3752H27.1909V25.3127H24.3784V24.3752Z" fill="black"/>
<path d="M24.3784 25.7815H27.1909V26.719H24.3784V25.7815Z" fill="black"/>
<path d="M24.3784 27.1877H26.2534V28.1252H24.3784V27.1877Z" fill="black"/>
<path d="M2.80713 1.87524H5.6196V2.81274H2.80713V1.87524Z" fill="black"/>
<path d="M2.80713 3.28149H5.6196V4.21899H2.80713V3.28149Z" fill="black"/>
<path d="M2.80713 4.68774H4.68211V5.62524H2.80713V4.68774Z" fill="black"/>
</svg>
