<svg width="30" height="25" viewBox="0 0 30 25" fill="none" xmlns="http://www.w3.org/2000/svg">
<path d="M7.08273 18.3441C8.24351 17.1833 9.40773 16.0191 10.5685 14.8583C10.7294 14.6974 10.8938 14.533 11.0547 14.3721H9.60287L12.034 16.8032C12.4278 17.197 13.092 17.197 13.4859 16.8032C13.9755 16.3136 14.4686 15.8205 14.9583 15.3308C15.7355 14.5535 16.5163 13.7728 17.2935 12.9956C17.475 12.8141 17.6531 12.636 17.8345 12.4545H16.3827L18.985 15.0568C19.3788 15.4506 20.043 15.4506 20.4369 15.0568C21.5839 13.9098 22.7344 12.7593 23.8816 11.6121L24.3746 11.1191C24.7547 10.739 24.7821 10.0404 24.3746 9.66721C23.9637 9.29055 23.3269 9.25974 22.9228 9.66721C21.7757 10.8143 20.6252 11.9648 19.4781 13.1119L18.985 13.605H20.4369L17.8345 11.0027C17.4408 10.6089 16.7765 10.6089 16.3827 11.0027C15.893 11.4923 15.4 11.9854 14.9103 12.4751C14.133 13.2524 13.3523 14.0331 12.575 14.8103C12.3935 14.9918 12.2155 15.1699 12.034 15.3514H13.4859L11.0547 12.9202C10.661 12.5264 9.99671 12.5264 9.60287 12.9202C8.44209 14.081 7.27787 15.2452 6.11709 16.406C5.95616 16.5669 5.7918 16.7313 5.63087 16.8922C5.25079 17.2723 5.2234 17.9709 5.63087 18.3441C6.04177 18.7207 6.67863 18.7516 7.08273 18.3441Z" fill="black"/>
<path d="M10.7565 3.83546H13.6225H18.1938H19.2484C19.786 3.83546 20.2996 3.36292 20.2756 2.80823C20.2517 2.25009 19.8236 1.78101 19.2484 1.78101H16.3824H11.8112H10.7565C10.219 1.78101 9.70534 2.25354 9.72932 2.80823C9.75329 3.36637 10.1813 3.83546 10.7565 3.83546Z" fill="black"/>
<path d="M22.2618 3.83565H26.809C27.0659 3.83565 27.3295 3.81852 27.5829 3.85277C27.4904 3.83907 27.4014 3.8288 27.3089 3.8151C27.4459 3.83565 27.576 3.87331 27.7061 3.92467L27.4596 3.82195C27.5521 3.86304 27.6308 3.91098 27.7164 3.95892C27.9013 4.06506 27.5418 3.80141 27.6685 3.91783C27.7027 3.94864 27.7335 3.97604 27.7678 4.00686C27.7986 4.03767 27.8294 4.07192 27.8568 4.10615C27.9767 4.23627 27.7164 3.89728 27.8054 4.04109C27.8602 4.13012 27.9116 4.21915 27.9561 4.31845C27.9219 4.23627 27.8876 4.15409 27.8534 4.07191C27.9047 4.20203 27.9424 4.33214 27.963 4.46911C27.9493 4.37666 27.939 4.28764 27.9253 4.19518C27.9527 4.41433 27.9424 4.64032 27.9424 4.85944V6.13324V10.4066V15.6044V20.0798C27.9424 20.7817 27.9493 21.4837 27.9424 22.1856C27.9424 22.2712 27.9356 22.3534 27.9253 22.439C27.939 22.3466 27.9493 22.2576 27.963 22.1651C27.9424 22.3021 27.9047 22.4322 27.8534 22.5623C27.8876 22.4801 27.9219 22.3979 27.9561 22.3158C27.915 22.4082 27.8671 22.487 27.8191 22.5726C27.713 22.7575 27.9766 22.3979 27.8602 22.5246C27.8294 22.5589 27.802 22.5897 27.7712 22.6239C27.7404 22.6548 27.7061 22.6856 27.6719 22.713C27.5418 22.8328 27.8808 22.5726 27.737 22.6616C27.6479 22.7164 27.5589 22.7678 27.4596 22.8123L27.7061 22.7095C27.576 22.7609 27.4459 22.7986 27.3089 22.8191C27.4014 22.8054 27.4904 22.7951 27.5829 22.7814C27.3055 22.8191 27.0145 22.7986 26.7371 22.7986H24.9634H22.2892H19.026H15.4478H11.8353H8.46939H5.62395H3.60713H2.68604C2.59701 22.7986 2.5114 22.7917 2.42238 22.7814C2.51484 22.7951 2.60386 22.8054 2.69631 22.8191C2.55935 22.7986 2.42923 22.7609 2.29911 22.7095L2.54565 22.8123C2.45319 22.7712 2.37444 22.7232 2.28884 22.6753C2.10393 22.5691 2.46347 22.8328 2.33677 22.7164C2.30253 22.6856 2.27171 22.6582 2.23748 22.6274C2.20666 22.5965 2.17584 22.5623 2.14845 22.5281C2.0286 22.3979 2.28884 22.7369 2.19981 22.5931C2.14502 22.5041 2.09366 22.4151 2.04915 22.3158C2.08339 22.3979 2.11764 22.4801 2.15187 22.5623C2.10051 22.4322 2.06284 22.3021 2.0423 22.1651C2.056 22.2576 2.06627 22.3466 2.07996 22.439C2.05257 22.2199 2.06284 21.9939 2.06284 21.7748V20.501V16.2277V11.0298V6.55443C2.06284 5.85247 2.056 5.15052 2.06284 4.44857C2.06284 4.36297 2.06969 4.28079 2.07996 4.19518C2.06627 4.28764 2.056 4.37666 2.0423 4.46911C2.06285 4.33215 2.10051 4.20203 2.15187 4.07191C2.11763 4.15409 2.08339 4.23627 2.04915 4.31845C2.09024 4.226 2.13818 4.14724 2.18611 4.06164C2.29226 3.87674 2.02861 4.23627 2.14503 4.10957C2.17584 4.07533 2.20324 4.04451 2.23405 4.01028C2.26487 3.97946 2.29912 3.94864 2.33335 3.92125C2.46347 3.8014 2.12448 4.06164 2.26829 3.97261C2.35732 3.91782 2.44635 3.86646 2.54565 3.82195L2.29911 3.92467C2.42922 3.87331 2.55934 3.83565 2.69631 3.8151C2.60386 3.8288 2.51484 3.83907 2.42238 3.85277C2.64153 3.82537 2.86752 3.83565 3.09008 3.83565H4.27829H7.08947H7.74008C8.27767 3.83565 8.79129 3.36311 8.76731 2.80842C8.74334 2.25028 8.31532 1.7812 7.74008 1.7812H3.56262C2.77852 1.7812 1.98754 1.72983 1.28558 2.16127C0.494597 2.6475 0.015234 3.50695 0.00152182 4.43487V4.57868V7.44128V12.5193V17.8918V21.5933C0.00152182 21.7987 -0.00190228 22.0007 0.00152182 22.2062C0.0186427 23.6683 1.20337 24.8496 2.66551 24.8633C3.24419 24.8702 3.82284 24.8633 4.40157 24.8633H8.40778H13.6673H19.1699H23.878H26.8399C27.0043 24.8633 27.1721 24.8668 27.3364 24.8633C28.7985 24.8462 29.9799 23.6649 29.997 22.2028C30.0038 21.4666 29.997 20.7304 29.997 19.9943V15.2108V9.73898V5.5547V4.56172C29.997 4.47269 29.997 4.38366 29.9901 4.29464C29.9079 3.38381 29.4217 2.50379 28.5759 2.08948C28.1376 1.87376 27.6856 1.78473 27.2028 1.78473H26.3537H23.7205H22.2584C21.7208 1.78473 21.2072 2.25727 21.2311 2.81196C21.2585 3.36667 21.6866 3.8358 22.2618 3.8358L22.2618 3.83565Z" fill="black"/>
<path d="M8.77076 4.5894V1.47342V1.02828C8.77076 0.49069 8.29823 -0.0229285 7.74353 0.00105221C7.1854 0.025021 6.71631 0.453041 6.71631 1.02828V4.14426V4.5894C6.71631 5.12699 7.18884 5.64061 7.74353 5.61663C8.30167 5.59266 8.77076 5.16464 8.77076 4.5894Z" fill="black"/>
<path d="M21.2344 1.02803V4.14402V4.58916C21.2344 5.12675 21.7069 5.64036 22.2616 5.61638C22.8197 5.59241 23.2888 5.16439 23.2888 4.58916V1.47317V1.02803C23.2888 0.490446 22.8163 -0.0231726 22.2616 0.000808071C21.7035 0.0247769 21.2344 0.452797 21.2344 1.02803Z" fill="black"/>
</svg>
