<svg width="31" height="32" viewBox="0 0 31 32" fill="none" xmlns="http://www.w3.org/2000/svg">
<path d="M6.58474 22.8574C6.62912 22.6935 6.67692 22.5331 6.73155 22.3726C6.78275 22.219 6.83396 22.0688 6.892 21.9152C6.92273 21.8366 6.94321 21.741 6.991 21.6694C6.99783 21.6557 6.892 21.8981 6.9398 21.7923C6.94662 21.7752 6.95687 21.7547 6.96369 21.7376C6.98418 21.6933 7.00466 21.6489 7.02514 21.6045C7.09684 21.4509 7.18219 21.3075 7.27437 21.1641C7.36995 21.0139 7.16853 21.2836 7.21974 21.2324C7.24364 21.2085 7.26412 21.1812 7.28461 21.1573C7.30509 21.1334 7.32899 21.1163 7.35289 21.0924C7.40069 21.0446 7.50652 21.0651 7.22658 21.1914C7.24023 21.1846 7.2573 21.1709 7.27096 21.1641C7.39045 21.0958 7.04564 21.2426 7.14465 21.2153C7.27779 21.1812 6.87494 21.2358 7.0115 21.2324C7.11392 21.229 6.73497 21.1743 6.86129 21.2153C6.95347 21.246 6.67352 21.1334 6.70425 21.147C6.72132 21.1538 6.73497 21.1675 6.75204 21.1743C6.54379 21.048 6.58476 21.0446 6.66669 21.1197C6.76911 21.2119 6.53013 20.9115 6.6189 21.0582C6.64279 21.0958 6.66669 21.1334 6.68718 21.1743C6.70083 21.2016 6.75887 21.3382 6.70083 21.1914C6.6428 21.0446 6.70083 21.1948 6.71108 21.2255C6.72815 21.2836 6.7418 21.3382 6.75546 21.3997C6.78618 21.5294 6.73497 21.1607 6.74863 21.3587C6.75204 21.4133 6.75204 21.4645 6.74863 21.5191C6.74863 21.543 6.73497 21.584 6.7418 21.6045C6.73156 21.5669 6.78618 21.3553 6.75204 21.5123C6.71449 21.6932 6.65646 21.8674 6.58817 22.0415C6.54038 22.1678 6.48576 22.2873 6.46186 22.4204C6.37992 22.8506 6.50624 23.3183 6.90909 23.5505C7.15831 23.6905 7.44167 23.7348 7.72501 23.7075C8.0869 23.6734 8.39754 23.6153 8.72528 23.4651C9.13154 23.2774 9.46954 22.9087 9.67093 22.5126C9.76651 22.3214 9.84504 22.1234 9.92015 21.922C9.93039 21.8947 9.94063 21.8674 9.95087 21.8435C10.0021 21.6967 9.92015 21.9527 9.89625 21.9664C9.90649 21.9596 9.91674 21.922 9.92356 21.9118C9.84846 22.0313 9.72896 22.1473 9.55486 22.2224C9.25443 22.3488 8.89257 22.2771 8.68088 22.0654C8.72867 22.1132 8.52384 21.823 8.5887 21.9527L8.62967 22.0347C8.63649 22.0483 8.63991 22.062 8.64673 22.0756C8.70136 22.1815 8.55456 21.8435 8.60235 21.9664C8.7116 22.2566 8.81743 22.5502 8.91644 22.8438C9.05641 23.2603 9.50705 23.5983 9.96796 23.4413C10.9273 23.1101 11.8354 22.6389 12.6582 22.0415C13.0474 21.7582 13.44 21.4611 13.778 21.1163C14.0921 20.7988 14.1194 20.2219 13.778 19.9078C13.44 19.5971 12.9075 19.5698 12.5695 19.9078C12.4944 19.9863 12.4124 20.058 12.3305 20.1297C12.2349 20.2117 12.1393 20.2936 12.0437 20.3721C11.9857 20.4199 11.7604 20.5906 12.013 20.3994C11.9413 20.4541 11.8696 20.5087 11.7945 20.5633C11.4565 20.8091 11.1014 21.0378 10.7327 21.2427C10.5279 21.3554 10.3197 21.4612 10.108 21.5602C10.0499 21.5875 9.98848 21.6148 9.92704 21.6387C9.869 21.6626 9.8929 21.6524 9.99873 21.608C9.96459 21.6216 9.92704 21.6353 9.8929 21.6524C9.76658 21.7036 9.64026 21.748 9.51053 21.7923C9.86217 21.9904 10.2104 22.1884 10.5621 22.3898C10.4665 22.1098 10.3743 21.8299 10.265 21.5534C10.1694 21.311 10.0773 21.0584 9.89291 20.8638C9.54469 20.5087 8.97112 20.4916 8.60929 20.8433C8.44883 21.0003 8.38055 21.1813 8.30203 21.3861C8.28155 21.4407 8.26448 21.4919 8.24399 21.5466C8.23375 21.5773 8.22009 21.6046 8.20985 21.6353C8.15523 21.7787 8.3191 21.3963 8.23716 21.567C8.20302 21.6353 8.16888 21.7036 8.13133 21.7719C8.11426 21.7992 8.09378 21.8299 8.07671 21.8572C7.98453 22.0006 8.24399 21.666 8.09719 21.8265C8.06988 21.8572 8.04257 21.8845 8.01184 21.9118C7.99819 21.9221 7.96746 21.9426 7.96063 21.9562C7.96063 21.9562 8.15523 21.8231 8.06646 21.8743C8.0255 21.8982 7.98794 21.9289 7.94356 21.9494C7.92649 21.9596 7.906 21.9665 7.88893 21.9767C7.7831 22.0382 8.1006 21.9118 7.9777 21.9392C7.87187 21.9631 7.76603 21.9904 7.65679 22.0109C7.94356 21.9494 7.72848 22.0006 7.64996 22.004C7.60216 22.0074 7.55437 22.004 7.50316 22.004C7.39049 22.0074 7.77627 22.0655 7.60899 22.0109C7.77627 22.0655 7.87528 22.1338 7.97087 22.2601C8.08353 22.4035 8.1245 22.5639 8.12791 22.6902C8.1245 22.5742 8.06305 22.9599 8.11084 22.8097C8.16205 22.6561 8.22009 22.5093 8.27813 22.3591C8.47273 21.8265 8.52394 21.212 8.31568 20.6725C8.06305 20.0171 7.5168 19.3581 6.7316 19.5527C6.2673 19.6688 5.93952 20.0409 5.70399 20.4404C5.35235 21.0344 5.11337 21.7309 4.93582 22.3966C4.81974 22.8268 5.07921 23.3422 5.53327 23.4481C5.9805 23.5539 6.46187 23.3184 6.58479 22.8575L6.58474 22.8574Z" fill="black"/>
<path d="M28.9227 20.386C28.6701 20.6386 28.4174 20.8912 28.1648 21.1439C27.8575 21.4511 27.5912 21.7618 27.4615 22.1885C27.3795 22.4548 27.3829 22.7314 27.3829 23.0079V23.7829V24.056V24.1038C27.3829 24.1277 27.3727 24.1311 27.3829 24.1686C27.4034 24.0423 27.4068 24.0253 27.3898 24.1209C27.3829 24.1584 27.3693 24.196 27.359 24.2335C27.3727 24.2028 27.3864 24.1686 27.4034 24.1379C27.3898 24.1687 27.3727 24.2028 27.3556 24.2335C27.3488 24.2472 27.3386 24.2608 27.3317 24.2745C27.2805 24.3462 27.2976 24.3291 27.3795 24.2164C27.3488 24.2335 27.3044 24.295 27.2805 24.3189C27.1679 24.4418 27.4512 24.2233 27.301 24.3018C27.2737 24.3154 27.2464 24.3359 27.2191 24.3496C27.0723 24.4384 27.4137 24.2984 27.243 24.3393C27.2088 24.3462 27.1269 24.3564 27.0996 24.3769C27.243 24.3598 27.2703 24.3564 27.1747 24.3632H27.1235C26.9528 24.3667 26.7821 24.3632 26.6114 24.3632H25.8262C25.2731 24.3632 24.7713 24.5544 24.3684 24.9402C24.5698 24.8583 24.7712 24.7729 24.9727 24.691C24.5971 24.691 24.3786 24.9334 24.1396 25.1689C23.9689 25.3396 23.7948 25.5137 23.6241 25.6844C23.5285 25.78 23.4056 25.8756 23.3203 25.9815C23.351 25.9576 23.3817 25.9303 23.4159 25.9064C23.3886 25.9234 23.3578 25.9439 23.3305 25.9576C23.211 26.0395 23.4637 25.9234 23.3715 25.9439C23.3305 25.9542 23.2861 25.9678 23.2452 25.9815C23.1496 26.0122 23.4193 25.9815 23.2588 25.978H23.1666C23.1018 25.9746 23.1257 25.978 23.2418 25.9917C23.2349 25.9883 23.0881 25.9473 23.0779 25.9473C23.1154 25.9644 23.1564 25.9815 23.194 25.9985C23.1564 25.9815 23.1189 25.9644 23.0847 25.9405C22.9413 25.8722 22.8184 25.8244 22.6545 25.8244C22.7979 25.862 22.9413 25.9029 23.0847 25.9405C23.0676 25.9303 23.0472 25.9166 23.0301 25.9064C22.9516 25.8551 23.0779 25.9405 23.0813 25.9439C23.0779 25.9303 23.0437 25.9098 23.0335 25.8961C23.0164 25.879 22.9994 25.862 22.9823 25.8449C22.9072 25.7698 22.8287 25.6913 22.7536 25.6162C22.5692 25.4318 22.3814 25.244 22.1971 25.0597C22.0025 24.8651 21.7942 24.6739 21.5382 24.5612C21.2343 24.4247 20.9339 24.3598 20.5959 24.3598C20.1691 24.3598 19.7424 24.3666 19.3156 24.3598C19.2815 24.3598 19.1313 24.3462 19.2781 24.3632C19.4249 24.3837 19.2576 24.353 19.22 24.3427C19.1996 24.3359 19.1722 24.3223 19.1518 24.3188C19.1552 24.3188 19.3156 24.4008 19.2439 24.3564C19.203 24.3291 19.1449 24.2881 19.1005 24.2711C19.1005 24.2711 19.2371 24.3905 19.1791 24.3291C19.162 24.312 19.1449 24.2984 19.1279 24.2813C19.1108 24.2642 19.0971 24.2437 19.0801 24.2301C19.022 24.172 19.1381 24.3052 19.1381 24.3086C19.1347 24.2711 19.0698 24.1959 19.0493 24.1584C19.0015 24.0765 19.0835 24.2233 19.0801 24.2267C19.0869 24.2164 19.0527 24.1277 19.0493 24.114C19.0084 23.9638 19.0493 24.2608 19.0527 24.1004V24.0901V24.0082V23.6839C19.0527 23.0318 19.1279 22.3319 18.783 21.7447C18.5338 21.318 18.1002 20.9698 17.752 20.6216L17.6052 20.4748C17.5608 20.4304 17.5198 20.386 17.4755 20.345C17.373 20.2426 17.5608 20.4884 17.4891 20.3621C17.4686 20.328 17.3867 20.1607 17.4447 20.2972C17.5028 20.4304 17.4447 20.2802 17.4345 20.2426C17.4277 20.2221 17.4277 20.1948 17.4208 20.1743C17.4174 20.1709 17.4345 20.3723 17.4345 20.287C17.4345 20.2392 17.4311 20.1948 17.4311 20.147C17.4379 19.9627 17.3901 20.2972 17.4277 20.1675C17.4413 20.1265 17.4618 20.0753 17.4686 20.0343C17.4686 20.0343 17.3833 20.2016 17.4277 20.1299C17.4413 20.1095 17.4482 20.089 17.4618 20.0685C17.4721 20.048 17.4891 20.0275 17.4994 20.007C17.5369 19.9319 17.4413 20.0821 17.4379 20.0821C17.4618 20.0651 17.4857 20.0309 17.5062 20.007C17.8066 19.6964 18.1173 19.3993 18.4211 19.0921C18.7932 18.7166 19.0015 18.2625 19.0425 17.7367C19.0561 17.5558 19.0459 17.3715 19.0459 17.1905V16.4121C19.0459 16.3507 19.0527 16.2824 19.0493 16.2209C19.0459 16.1356 19.0322 16.337 19.0322 16.3336C19.0391 16.3131 19.0425 16.2892 19.0459 16.2653C19.0561 16.2209 19.0766 16.18 19.0834 16.1356C19.1005 16.0571 19.0425 16.2346 19.0391 16.238C19.0527 16.2243 19.0595 16.1936 19.0698 16.18C19.08 16.1629 19.0937 16.1424 19.1039 16.1219C19.1551 16.0229 19.0732 16.1731 19.0493 16.1868C19.0834 16.1629 19.1107 16.1185 19.1381 16.0912C19.1551 16.0775 19.1722 16.0639 19.1859 16.0468C19.2371 15.9888 19.1039 16.1117 19.1005 16.1117C19.1312 16.1049 19.1859 16.0605 19.2132 16.0434C19.2371 16.0263 19.319 15.999 19.1927 16.0502C19.0527 16.1049 19.1824 16.0571 19.2166 16.0468C19.261 16.0332 19.3088 16.0297 19.3497 16.0161C19.3531 16.0161 19.1517 16.0297 19.2371 16.0332C19.261 16.0332 19.2849 16.0297 19.3088 16.0297H19.3531H20.0393C20.2476 16.0297 20.4524 16.0332 20.6607 16.0297C21.1967 16.0195 21.6849 15.8181 22.0707 15.446C22.3847 15.1421 22.6852 14.828 22.9958 14.5208C23.0061 14.5105 23.0163 14.5003 23.0265 14.4901C23.1324 14.374 22.9002 14.5583 23.03 14.4798C23.0641 14.4593 23.2416 14.3706 23.1085 14.4286C22.9788 14.4832 23.1324 14.4252 23.1665 14.4184C23.187 14.4115 23.2177 14.4115 23.2382 14.4013C23.2382 14.4013 23.0436 14.415 23.1324 14.4184C23.1802 14.4184 23.2314 14.4218 23.2758 14.4184C23.3611 14.4115 23.1699 14.4013 23.1699 14.4013C23.2007 14.4115 23.2348 14.415 23.2655 14.4218C23.2894 14.4286 23.3133 14.4388 23.3338 14.4423C23.4157 14.4559 23.245 14.4013 23.245 14.4013C23.2826 14.4286 23.3338 14.4491 23.3748 14.4696C23.5011 14.5379 23.2587 14.3569 23.3611 14.4593C23.3748 14.473 23.3918 14.4866 23.4055 14.5003C23.4635 14.5549 23.5182 14.613 23.5762 14.671C23.9278 15.0226 24.2726 15.4323 24.6823 15.7157C25.2559 16.1117 25.9796 16.0366 26.6386 16.0366C26.8195 16.0366 27.0073 16.0468 27.1882 16.04C27.2736 16.0366 27.0721 16.0229 27.0755 16.0229C27.096 16.0297 27.1199 16.0332 27.1438 16.0366C27.1882 16.0468 27.2292 16.0673 27.2736 16.0741C27.3521 16.0912 27.1746 16.0332 27.1711 16.0297C27.1848 16.0434 27.2155 16.0502 27.2292 16.0605C27.2462 16.0707 27.2667 16.0844 27.2872 16.0946C27.3862 16.1458 27.2394 16.0639 27.2223 16.04C27.2462 16.0741 27.2906 16.1014 27.3179 16.1287C27.3316 16.1458 27.3452 16.1629 27.3623 16.1765C27.4204 16.2278 27.2974 16.0946 27.2974 16.0912C27.3043 16.1219 27.3487 16.1765 27.3657 16.2039C27.3828 16.2278 27.4101 16.3097 27.3623 16.1834C27.3077 16.0502 27.3521 16.1561 27.3589 16.1868C27.3726 16.2346 27.3794 16.2926 27.3965 16.3404C27.3965 16.3438 27.3828 16.1424 27.3794 16.2278C27.3794 16.2517 27.3828 16.2755 27.3828 16.2994V16.3438V16.6238V17.4261C27.3828 17.7675 27.4067 18.0986 27.5398 18.4195C27.673 18.7336 27.8812 18.9794 28.1168 19.215L28.6904 19.7885C28.7552 19.8534 28.8235 19.9183 28.8884 19.9866L28.9191 20.0173C28.9396 20.0412 29.0352 20.1538 28.9498 20.0446C28.8611 19.9319 28.9805 20.1129 28.9976 20.1402C29.042 20.2119 28.9566 20.0446 28.9601 20.0446C28.9635 20.0651 28.9771 20.0924 28.9805 20.1129C28.9908 20.1504 29.0181 20.3109 29.001 20.1573C28.984 20.0036 28.9976 20.1675 28.9976 20.2051C28.9976 20.2426 28.984 20.4065 29.001 20.2528C29.0181 20.1026 28.9942 20.2597 28.9805 20.2972C28.9737 20.3177 28.9601 20.3416 28.9601 20.3655C28.9601 20.3655 29.0454 20.1982 28.9976 20.2699C28.9737 20.3075 28.9464 20.3519 28.9259 20.3928C28.8884 20.4645 28.9805 20.3177 28.9874 20.3177C28.9771 20.3143 28.9259 20.3826 28.9225 20.386C28.6118 20.7103 28.5777 21.277 28.9225 21.5945C29.2571 21.9018 29.7999 21.9393 30.131 21.5945C30.6022 21.1029 30.7831 20.4542 30.6636 19.792C30.5885 19.3857 30.3563 19.034 30.0662 18.7473L29.2536 17.9347C29.2058 17.887 29.1478 17.8016 29.0932 17.7675C29.1034 17.7743 29.1785 17.904 29.1478 17.8289C29.1375 17.805 29.1205 17.7811 29.1068 17.7572C29.0556 17.6719 29.1307 17.7094 29.1273 17.8118C29.1273 17.7914 29.1102 17.7538 29.1034 17.7333C29.1 17.7163 29.0966 17.6685 29.0829 17.6548C29.0863 17.6582 29.0932 17.8357 29.0966 17.747C29.0966 17.7197 29.0932 17.6889 29.0932 17.6582V17.4363V16.6067C29.0932 16.3199 29.1 16.0298 29.018 15.7532C28.8337 15.1353 28.383 14.6881 27.7959 14.4525C27.5091 14.3364 27.2018 14.3296 26.898 14.3296H26.0684H25.7918H25.7031C25.5529 14.3262 25.8533 14.3774 25.7133 14.3262C25.6928 14.3193 25.6211 14.292 25.6075 14.2954C25.645 14.292 25.7645 14.3774 25.6621 14.3159C25.6416 14.3023 25.6143 14.2852 25.5904 14.275C25.5153 14.2442 25.645 14.3159 25.6519 14.3296C25.6348 14.3023 25.5904 14.275 25.5665 14.2511C25.5221 14.2067 25.4778 14.1623 25.4368 14.1213L25.3139 13.9984C24.8564 13.541 24.4262 13.0084 23.7879 12.8001C23.1324 12.5851 22.4257 12.7831 21.9067 13.2132C21.7565 13.3395 21.62 13.4898 21.48 13.6297L20.8552 14.2545C20.8347 14.275 20.8143 14.2921 20.7938 14.3091C20.7255 14.3774 20.9235 14.2374 20.8347 14.275C20.8074 14.2886 20.6436 14.374 20.7665 14.3194C20.9167 14.2511 20.6606 14.3467 20.6606 14.3399C20.664 14.333 20.845 14.3296 20.7528 14.3262C20.7255 14.3262 20.6982 14.3296 20.6709 14.3296H20.6572C20.2134 14.333 19.7696 14.3228 19.3258 14.3296C18.2265 14.3433 17.3525 15.2138 17.3388 16.3131C17.332 16.7569 17.3423 17.2008 17.3388 17.6445C17.3388 17.6889 17.3286 17.846 17.3388 17.7128C17.3525 17.5729 17.3184 17.7504 17.3115 17.7845C17.2945 17.8665 17.3388 17.7128 17.3457 17.706C17.3286 17.7231 17.291 17.7982 17.2808 17.8255C17.2501 17.9006 17.3218 17.7709 17.3354 17.764C17.3149 17.7777 17.2979 17.8084 17.2808 17.8255C17.274 17.8357 17.2637 17.8426 17.2569 17.8494C17.2364 17.8699 17.2159 17.8904 17.1955 17.9108C17.0111 18.0918 16.8302 18.2761 16.6458 18.4571C16.5058 18.5971 16.3556 18.7302 16.2293 18.8804C15.7991 19.3857 15.6284 20.0309 15.7786 20.6796C15.9289 21.3248 16.4648 21.7618 16.9121 22.209C16.9701 22.2671 17.0316 22.3285 17.0896 22.3866C17.1613 22.4582 17.2432 22.5743 17.3286 22.6324C17.3217 22.6289 17.2364 22.489 17.2705 22.5641C17.2808 22.5846 17.2979 22.6085 17.3115 22.6324C17.3252 22.6563 17.3559 22.7382 17.3149 22.6255C17.2671 22.5026 17.3115 22.6255 17.3217 22.6563C17.3252 22.6699 17.332 22.7314 17.3422 22.7416C17.3354 22.7382 17.332 22.5641 17.332 22.6563C17.332 22.687 17.3354 22.7177 17.3354 22.745V22.9533V23.7931C17.3354 24.1106 17.3286 24.4349 17.4447 24.7387C17.6768 25.3533 18.1718 25.8619 18.8273 26.0121C19.1107 26.077 19.3872 26.0702 19.6739 26.0702H20.4933H20.6674C20.681 26.0702 20.763 26.0736 20.763 26.0736C20.763 26.0804 20.5581 26.036 20.6367 26.0565C20.6571 26.0633 20.6776 26.0633 20.6981 26.0702C20.7254 26.077 20.7493 26.0838 20.7766 26.0907C20.862 26.1145 20.8449 26.1589 20.7015 26.0565C20.7357 26.0804 20.7801 26.0975 20.8142 26.118C20.9542 26.1897 20.7254 26.0326 20.7766 26.0804C20.804 26.1077 20.8347 26.1316 20.862 26.1589C20.92 26.217 20.9781 26.275 21.0395 26.3365C21.2375 26.5345 21.439 26.7359 21.637 26.9339C21.9135 27.2104 22.2208 27.5348 22.6407 27.5348C22.4973 27.4972 22.3539 27.4562 22.2105 27.4187C22.808 27.7533 23.4976 27.7669 24.1087 27.4699C24.3442 27.3572 24.532 27.1797 24.7164 26.9988L25.563 26.1521C25.3616 26.2341 25.1601 26.3194 24.9587 26.4014C25.1123 26.4014 25.2591 26.3604 25.3889 26.2853C25.266 26.357 25.6552 26.0873 25.6449 26.077C25.6176 26.1009 25.5869 26.1214 25.5596 26.1453C25.5903 26.1248 25.621 26.1078 25.6518 26.0907C25.802 25.9951 25.4742 26.1282 25.6483 26.0941C25.6654 26.0907 25.6825 26.0839 25.6996 26.0804C25.7917 26.06 25.7712 26.0634 25.6347 26.0839C25.6313 26.0804 25.7508 26.077 25.7473 26.077H25.8122H26.495C26.6931 26.077 26.8911 26.0804 27.0925 26.077C27.6182 26.0736 28.1338 25.8722 28.5059 25.4967C28.8814 25.1177 29.076 24.609 29.0794 24.0799C29.0829 23.8716 29.0794 23.6668 29.0794 23.4585V22.7791V22.7416C29.0794 22.745 29.0897 22.6357 29.0863 22.6323C29.0829 22.6733 29.076 22.7109 29.0726 22.7518C29.0794 22.7177 29.0897 22.6801 29.0999 22.646C29.1341 22.4719 29.0009 22.7962 29.0965 22.6494C29.1068 22.6323 29.1136 22.6187 29.1238 22.6016C29.175 22.5265 29.1614 22.5402 29.0863 22.6392C29.0794 22.6323 29.1887 22.5299 29.2092 22.5094C29.513 22.2056 29.8203 21.8983 30.1241 21.5945C30.4416 21.277 30.4621 20.7001 30.1241 20.386C29.7895 20.0719 29.2604 20.048 28.9224 20.386L28.9227 20.386Z" fill="black"/>
<path d="M23.0509 25.9302C23.0201 25.9097 22.9894 25.8892 22.9621 25.8687C23.0201 25.9131 23.0782 25.9575 23.1362 26.0019C23.0987 25.9746 23.0645 25.9438 23.0338 25.9097C23.1157 26.1111 23.2011 26.3125 23.283 26.514C22.7982 26.7154 22.31 26.9168 21.8252 27.1182C21.8559 27.149 21.8901 27.1797 21.9242 27.207C22.0096 27.2753 22.0983 27.347 22.1905 27.4084C22.2895 27.4699 22.3954 27.504 22.508 27.5108C22.6207 27.5347 22.7333 27.5313 22.8494 27.4972C22.9621 27.4699 23.0577 27.4187 23.1396 27.3436C23.2318 27.2821 23.3069 27.2036 23.3581 27.1046C23.3854 27.0363 23.4161 26.968 23.4434 26.8997C23.4844 26.7495 23.4844 26.5959 23.4434 26.4457C23.4161 26.3774 23.3854 26.3091 23.3581 26.2409C23.2796 26.1077 23.1772 26.0053 23.0509 25.9302C23.0201 25.9097 22.9894 25.8892 22.9621 25.8687C23.0201 25.9131 23.0782 25.9575 23.1362 26.0019C23.0987 25.9746 23.0645 25.9438 23.0338 25.9097C22.9758 25.8653 22.9177 25.8209 22.8597 25.7766C22.7914 25.7492 22.7231 25.7185 22.6548 25.6912C22.5797 25.681 22.5046 25.6707 22.4295 25.6605C22.3134 25.6571 22.2008 25.681 22.1017 25.7356C22.0301 25.7561 21.9652 25.7936 21.914 25.8448C21.8491 25.8824 21.7979 25.9336 21.7604 25.9985C21.7091 26.0531 21.6716 26.1145 21.6511 26.1862C21.5965 26.2886 21.5726 26.3979 21.576 26.514C21.576 26.5515 21.5794 26.5891 21.5897 26.6266C21.5965 26.7393 21.6272 26.8451 21.6921 26.9441C21.7365 27.0192 21.7843 27.0807 21.8457 27.1353C21.8628 27.1524 21.8833 27.1694 21.9037 27.1865C21.9959 27.2616 22.0915 27.3401 22.1905 27.405C22.2895 27.4665 22.3954 27.5006 22.508 27.5074C22.6207 27.5313 22.7333 27.5279 22.8494 27.4938C22.9621 27.4665 23.0577 27.4153 23.1396 27.3401C23.2318 27.2787 23.3069 27.2002 23.3581 27.1012C23.3854 27.0329 23.4161 26.9646 23.4434 26.8963C23.4844 26.7461 23.4844 26.5925 23.4434 26.4423C23.4161 26.374 23.3854 26.3057 23.3581 26.2374C23.2796 26.1077 23.1772 26.0053 23.0509 25.9302Z" fill="black"/>
<path d="M23.1527 26.5099C23.2346 26.3084 23.3199 26.107 23.4019 25.9056C23.3951 25.9124 23.3882 25.9192 23.3814 25.9261C23.7842 26.3289 24.1871 26.7317 24.5899 27.1346C24.5968 27.1278 24.6036 27.1209 24.6104 27.1141C24.6923 27.0356 24.7538 26.9468 24.7879 26.841C24.8426 26.7386 24.8665 26.6293 24.863 26.5132C24.8665 26.3972 24.8426 26.2845 24.7879 26.1855C24.7538 26.0797 24.6958 25.9875 24.6104 25.9124C24.5524 25.868 24.4943 25.8236 24.4363 25.7792C24.3032 25.7007 24.1598 25.6632 24.0061 25.6632C23.931 25.6734 23.8559 25.6836 23.7808 25.6939C23.6374 25.7349 23.5111 25.8065 23.4053 25.9124L23.3848 25.9329C23.3029 26.0114 23.2414 26.1001 23.2073 26.206C23.1526 26.3084 23.1287 26.4176 23.1322 26.5337C23.1287 26.6498 23.1526 26.7625 23.2073 26.8615C23.2414 26.9673 23.2994 27.0595 23.3848 27.1346C23.4428 27.179 23.5009 27.2233 23.5589 27.2677C23.6921 27.3462 23.8354 27.3838 23.9891 27.3838C24.0642 27.3736 24.1393 27.3633 24.2144 27.3531C24.3578 27.3121 24.4841 27.2404 24.5899 27.1346C24.5968 27.1278 24.6036 27.1243 24.607 27.1175C24.6343 27.0902 24.6582 27.0629 24.6753 27.0288C24.7265 26.9741 24.764 26.9127 24.7845 26.841C24.8221 26.7761 24.8426 26.701 24.8426 26.6259C24.8528 26.5883 24.8562 26.5508 24.8562 26.5132C24.8596 26.3972 24.8357 26.2845 24.7811 26.1855C24.747 26.0797 24.6889 25.9875 24.6036 25.9124C24.5251 25.8304 24.4363 25.769 24.3305 25.7348C24.228 25.6802 24.1188 25.6563 24.0027 25.6597C23.9276 25.67 23.8525 25.6802 23.7774 25.6905C23.634 25.7314 23.5077 25.8031 23.4019 25.909C23.3575 25.967 23.3131 26.025 23.2687 26.0831C23.1902 26.2128 23.1527 26.3562 23.1527 26.5099Z" fill="black"/>
<path d="M24.3647 24.9431C24.0438 25.264 23.7229 25.5849 23.402 25.9059C23.8048 26.3087 24.2077 26.7115 24.6105 27.1144C24.9314 26.7935 25.2523 26.4726 25.5732 26.1516C25.3718 26.2336 25.1704 26.3189 24.969 26.4009C25.4162 26.4009 25.843 26.0082 25.8225 25.5473C25.802 25.0865 25.4469 24.6938 24.969 24.6938C24.5183 24.6938 24.2213 25.0865 23.9311 25.3767C23.7536 25.5542 23.5795 25.7317 23.402 25.9059C23.0845 26.2234 23.0606 26.8003 23.402 27.1144C23.7434 27.4284 24.2725 27.4524 24.6105 27.1144C24.9314 26.7935 25.2523 26.4726 25.5732 26.1516C25.8907 25.8341 25.9112 25.2572 25.5732 24.9431C25.2318 24.6324 24.7027 24.6051 24.3647 24.9431Z" fill="black"/>
<path d="M25.2934 20.1979C25.2934 20.2765 25.29 20.3584 25.2832 20.4369C25.2798 20.4677 25.2763 20.4984 25.2729 20.5291C25.2832 20.297 25.2968 20.3789 25.2832 20.4403C25.2559 20.5906 25.2217 20.7408 25.1739 20.8876C25.1534 20.9456 25.1261 21.0002 25.1125 21.0583C25.1671 20.85 25.1705 20.932 25.1364 21.0002C25.1193 21.0344 25.1056 21.0685 25.0886 21.1027C25.0271 21.2221 24.9588 21.3382 24.8803 21.4475C24.8632 21.4714 24.7711 21.5909 24.8667 21.4679C24.9623 21.345 24.8667 21.4645 24.8496 21.485C24.812 21.5294 24.7711 21.5738 24.7301 21.6182C24.6823 21.666 24.6345 21.7137 24.5867 21.7581C24.5594 21.782 24.5321 21.8093 24.5014 21.8332C24.4467 21.881 24.3272 21.9322 24.5355 21.8093C24.4194 21.8776 24.3136 21.963 24.1975 22.0278C24.1463 22.0552 24.0917 22.0859 24.0371 22.1098C24.0097 22.1234 23.979 22.1337 23.9551 22.1473C24.1736 22.0278 24.0575 22.1029 23.9893 22.1303C23.8595 22.1781 23.7264 22.2156 23.5932 22.2429C23.5557 22.2497 23.5181 22.2566 23.4806 22.2634C23.3986 22.2771 23.3304 22.2497 23.5454 22.2566C23.4669 22.2532 23.385 22.2702 23.3099 22.2736C23.1699 22.2771 23.0197 22.2463 22.8831 22.2566C22.8934 22.2566 23.1085 22.2941 22.9719 22.2668C22.9412 22.26 22.9104 22.2566 22.8797 22.2497C22.8046 22.2361 22.7295 22.219 22.6544 22.1985C22.5827 22.1781 22.5076 22.1542 22.4359 22.1303C22.4086 22.12 22.3779 22.1064 22.3506 22.0995C22.5452 22.1507 22.4905 22.161 22.4291 22.1337C22.2925 22.0688 22.1628 22.0005 22.0365 21.9152C21.9887 21.881 21.9409 21.8435 21.8897 21.8128C22.0774 21.922 21.9955 21.8981 21.9409 21.8503C21.9136 21.8264 21.8828 21.8025 21.8555 21.7786C21.7497 21.683 21.6541 21.5806 21.5619 21.4748C21.439 21.3348 21.678 21.6421 21.5448 21.4509C21.5107 21.4031 21.4766 21.3519 21.4458 21.3007C21.4083 21.2358 21.3707 21.1709 21.3366 21.1061L21.2956 21.0241C21.2615 20.949 21.2547 20.8466 21.3093 21.0617C21.2751 20.9285 21.2171 20.8056 21.183 20.6691C21.1693 20.6076 21.1557 20.5496 21.1454 20.4881C21.142 20.4608 21.1147 20.3038 21.1386 20.4642C21.1625 20.6247 21.1386 20.4472 21.1386 20.413C21.1283 20.2765 21.1283 20.1433 21.1352 20.0068C21.1386 19.9658 21.142 19.9282 21.1454 19.8907C21.1557 19.7746 21.1044 20.1228 21.1352 19.9556C21.1488 19.8805 21.1625 19.8053 21.1796 19.7302C21.2103 19.5971 21.2751 19.4708 21.3059 19.3376C21.3025 19.3479 21.2137 19.5391 21.2717 19.4161C21.2854 19.3888 21.2956 19.3615 21.3093 19.3342C21.3468 19.2591 21.3844 19.1874 21.4288 19.1191C21.4629 19.0611 21.5005 19.0065 21.538 18.9518C21.5551 18.9279 21.5756 18.904 21.5892 18.8802C21.4868 19.0577 21.4971 18.9962 21.538 18.9484C21.637 18.8358 21.736 18.7265 21.8453 18.6275C21.876 18.6002 22.057 18.4534 21.9306 18.5524C21.8043 18.6514 21.9921 18.5114 22.0262 18.4875C22.1457 18.409 22.272 18.3442 22.3983 18.2793C22.4666 18.2452 22.5486 18.2486 22.3403 18.3032C22.3676 18.2964 22.3983 18.2793 22.4257 18.2725C22.4905 18.2486 22.5554 18.2281 22.6203 18.2076C22.6851 18.1871 22.7534 18.1735 22.8217 18.1564C22.9036 18.1393 23.1528 18.1291 22.8695 18.1427C23.0129 18.1359 23.1528 18.1223 23.2962 18.1257C23.3611 18.1291 23.4225 18.1325 23.484 18.1393C23.6547 18.1496 23.3065 18.1086 23.4191 18.1291C23.4635 18.1359 23.5113 18.1427 23.5557 18.153C23.7127 18.1837 23.8664 18.2349 24.0166 18.2861C24.1429 18.3305 23.9483 18.2554 23.938 18.252C23.9756 18.2759 24.0234 18.2895 24.061 18.31C24.1292 18.3442 24.1941 18.3783 24.259 18.4159C24.3307 18.4568 24.3955 18.5046 24.4638 18.549C24.5218 18.59 24.5765 18.6651 24.416 18.508C24.4467 18.5388 24.4843 18.5661 24.5184 18.5934C24.6311 18.6924 24.7335 18.7982 24.8325 18.9109C24.8496 18.9314 24.8701 18.9587 24.8905 18.9792C24.7198 18.805 24.8223 18.8904 24.8632 18.9484C24.911 19.0167 24.9554 19.085 24.9964 19.1567C25.0339 19.2216 25.0681 19.2864 25.1022 19.3547C25.1193 19.3888 25.1295 19.4264 25.15 19.4571C25.1329 19.4161 25.1159 19.3752 25.0988 19.3376C25.109 19.3649 25.1193 19.3957 25.1295 19.423C25.1807 19.5664 25.2217 19.7132 25.2524 19.8634C25.2593 19.8941 25.2627 19.9248 25.2695 19.9556C25.3002 20.1228 25.2524 19.7575 25.2627 19.9146C25.2866 20.0102 25.2934 20.1024 25.2934 20.1979C25.2968 20.6452 25.6826 21.0719 26.1469 21.0515C26.6078 21.031 27.0038 20.6759 27.0004 20.198C26.9867 18.5763 25.9591 17.1697 24.4468 16.6201C23.03 16.1046 21.2991 16.5689 20.3432 17.7365C19.814 18.3818 19.5034 19.126 19.4385 19.9624C19.377 20.7169 19.5819 21.5192 19.9779 22.161C20.3534 22.7721 20.9133 23.3081 21.5722 23.6052C22.3472 23.9602 23.1665 24.0626 24.0064 23.8988C25.7441 23.5608 26.9902 21.9391 27.0039 20.198C27.0073 19.7508 26.6078 19.324 26.1504 19.3445C25.6827 19.3684 25.2969 19.7201 25.2934 20.198L25.2934 20.1979Z" fill="black"/>
<path d="M23.9141 5.58247V8.65844V13.5336V14.65C24.3989 14.4486 24.8871 14.2471 25.3719 14.0457C25.1773 13.8511 24.9827 13.6531 24.7847 13.4585C24.713 13.3868 24.6447 13.3117 24.5696 13.2469C24.2521 12.9601 23.8834 12.786 23.4635 12.7279C22.8182 12.6426 22.2174 12.885 21.7633 13.339L20.862 14.2404C20.8654 14.2369 20.7801 14.3223 20.7767 14.3189C20.7494 14.2984 20.9337 14.2199 20.8142 14.2813C20.821 14.2779 20.7186 14.3325 20.7186 14.3325C20.7118 14.295 20.8962 14.2745 20.7698 14.3052C20.7767 14.3018 20.664 14.3291 20.664 14.3325C20.6674 14.3189 20.8893 14.3189 20.7289 14.3223H20.6708C20.4011 14.3291 20.128 14.3223 19.8583 14.3223C19.5101 14.3223 19.1516 14.3018 18.8102 14.3872C18.1274 14.5579 17.5231 15.1587 17.3934 15.8586C17.2842 16.4458 17.3559 17.0637 17.3422 17.6577C17.3422 17.6884 17.332 17.7396 17.3354 17.767C17.3286 17.7328 17.3866 17.5724 17.3388 17.7021C17.332 17.7226 17.3047 17.7943 17.3081 17.8079C17.3047 17.7806 17.4037 17.6338 17.3286 17.7533C17.3183 17.767 17.2705 17.8386 17.2739 17.8455C17.2739 17.8284 17.4105 17.6953 17.3047 17.8011C17.291 17.8182 17.2739 17.8318 17.2603 17.8489C17.1852 17.9274 17.1066 18.0025 17.0281 18.081C16.7994 18.3098 16.5706 18.5351 16.3453 18.7639C15.9288 19.1838 15.6728 19.7608 15.7376 20.3582C15.7888 20.8088 15.9527 21.1912 16.2531 21.536C16.3282 21.6214 16.4102 21.6965 16.4887 21.7784C16.6662 21.9559 16.8437 22.1335 17.0178 22.311C17.1168 22.41 17.2193 22.5568 17.3353 22.6353C17.3149 22.6216 17.2295 22.4714 17.2944 22.5909C17.3046 22.6148 17.3183 22.6353 17.3319 22.6592C17.3831 22.7514 17.2841 22.4987 17.2978 22.6114C17.3012 22.6455 17.3149 22.6899 17.3285 22.7241C17.3797 22.8231 17.3319 22.55 17.3388 22.6626C17.3422 22.6968 17.3422 22.707 17.3422 22.748V22.7753C17.349 23.5195 17.2363 24.3423 17.5709 25.0319C17.8918 25.6874 18.6122 26.0697 19.3223 26.08C19.6193 26.0834 19.9163 26.08 20.2133 26.08H20.4762C20.1928 25.7966 19.9061 25.5098 19.6227 25.2265V27.6402L20.4762 26.7867H18.5814H14.0681H8.61599H3.87397C3.11267 26.7867 2.34794 26.7628 1.58658 26.7867H1.55586C1.83922 27.07 2.12599 27.3568 2.40936 27.6402V26.9369V25.0182V22.1983V18.7399V14.9709V11.1472V7.58304V4.57193V2.41433C2.40936 2.07293 2.41619 1.72813 2.40936 1.38672V1.34234C2.126 1.6257 1.83923 1.91247 1.55586 2.19584H3.44721H7.98441H13.4536H18.1819C18.9501 2.19584 19.7216 2.21974 20.4898 2.19584H20.5205C20.3191 2.1139 20.1177 2.02855 19.9162 1.94662L24.1632 6.19359C24.4807 6.51109 25.0577 6.53158 25.3717 6.19359C25.6858 5.85219 25.7097 5.32305 25.3717 4.98507L21.5105 1.12383C21.2203 0.833644 20.9711 0.512725 20.5238 0.488822C20.4453 0.485408 20.3634 0.488822 20.2849 0.488822H18.6359H15.8331H12.3679H8.72513H5.39308H2.86672C2.4468 0.488822 2.03033 0.485408 1.61038 0.488822H1.55576C1.09487 0.488822 0.702254 0.881432 0.702254 1.34232V2.04563V3.96426V6.78421V10.2425V14.0116V17.8352V21.3994V24.4105V26.5682C0.702254 26.9096 0.695425 27.2543 0.702254 27.5958V27.6401C0.702254 28.101 1.09486 28.4936 1.55576 28.4936H3.45054H7.96383H13.416H18.158C18.9193 28.4936 19.684 28.5107 20.4454 28.4936H20.4761C20.937 28.4936 21.3296 28.101 21.3296 27.6401V25.2265C21.3296 24.7656 20.937 24.373 20.4761 24.373H19.7114H19.3427C19.2949 24.373 19.1276 24.3593 19.2744 24.3764C19.428 24.3934 19.23 24.3593 19.1959 24.3491C19.0661 24.3149 19.2505 24.3661 19.2641 24.3798C19.2368 24.3559 19.189 24.3422 19.1583 24.3218C18.9944 24.2193 19.2539 24.4242 19.1583 24.3252C19.1378 24.3013 19.1139 24.2774 19.09 24.2569C18.991 24.1647 19.1344 24.2979 19.1344 24.3183C19.1344 24.2944 19.0525 24.1647 19.0354 24.1442C19.0456 24.1579 19.0798 24.2944 19.0695 24.2125C19.0661 24.1818 19.0183 24.0998 19.0354 24.0691C19.0183 24.0998 19.0456 24.2398 19.0525 24.1135V24.1101V24.0828V23.9257V22.963C19.0525 22.881 19.0559 22.8025 19.0525 22.7206C19.0354 22.2597 18.8647 21.8329 18.5779 21.4745C18.4311 21.2901 18.2502 21.1297 18.0829 20.9624C17.902 20.7814 17.721 20.6005 17.5401 20.4196C17.5128 20.3923 17.4889 20.3615 17.4616 20.3342C17.4001 20.2762 17.5196 20.4093 17.5196 20.4127C17.5128 20.3888 17.482 20.3547 17.4684 20.3308C17.4616 20.3171 17.4377 20.2591 17.424 20.2455C17.4411 20.2591 17.4889 20.4469 17.4581 20.3171C17.4513 20.2864 17.4411 20.2557 17.4342 20.2284C17.4001 20.1157 17.4445 20.2898 17.4411 20.3171C17.4445 20.2591 17.4377 20.1908 17.4377 20.1328C17.4377 20.0406 17.4923 20.1021 17.424 20.2216C17.4342 20.2011 17.4411 20.1499 17.4445 20.1294C17.4513 20.1055 17.4581 20.085 17.465 20.0611C17.4923 19.9587 17.3796 20.225 17.4342 20.1362C17.4513 20.1089 17.465 20.0816 17.4786 20.0543C17.5435 19.9484 17.5264 20.0577 17.4445 20.0884C17.4957 20.0679 17.5947 19.9314 17.6357 19.8904L17.9702 19.5558C18.1444 19.3817 18.3253 19.211 18.496 19.0301C18.8954 18.6033 19.0525 18.081 19.0525 17.504V16.531V16.2921V16.2443C19.0491 16.1077 19.0422 16.316 19.0354 16.333C19.0559 16.2784 19.0661 16.2136 19.0798 16.1589C19.1173 16.0258 18.9808 16.3296 19.0764 16.1794C19.0934 16.1555 19.1105 16.1282 19.1242 16.1043C19.1685 16.019 18.9876 16.2511 19.0832 16.1555C19.1208 16.118 19.1822 16.077 19.2095 16.0326C19.2061 16.036 19.0559 16.1282 19.1242 16.1009C19.1515 16.0906 19.1754 16.0702 19.1993 16.0531C19.3529 15.9541 19.0525 16.0906 19.1788 16.0565C19.2232 16.0463 19.4451 15.9985 19.288 16.0224C19.1378 16.0463 19.2949 16.0292 19.3427 16.0292H19.4792C20.2815 16.0292 21.1828 16.1487 21.8587 15.6263C22.0943 15.4454 22.2957 15.2269 22.504 15.0187C22.6815 14.8411 22.8625 14.6704 23.0332 14.4895C23.1424 14.37 22.9 14.5578 23.04 14.4792C23.0775 14.4588 23.2482 14.37 23.1185 14.428C22.9785 14.4895 23.1936 14.4144 23.2243 14.4076C23.3063 14.3802 23.1151 14.4212 23.1151 14.4212C23.1526 14.4246 23.197 14.4178 23.2346 14.4178C23.436 14.4212 23.0502 14.37 23.2448 14.4178C23.2687 14.4246 23.2926 14.4315 23.3165 14.4349C23.4462 14.4656 23.2687 14.4144 23.2482 14.4007C23.2824 14.4246 23.3814 14.4895 23.4189 14.4997C23.3985 14.4963 23.2653 14.3632 23.3643 14.4622C23.378 14.4758 23.3916 14.4861 23.4019 14.4997C23.5965 14.6875 23.7842 14.8821 23.9754 15.0733L24.1632 15.261C24.6855 15.7834 25.621 15.3976 25.621 14.6568V11.5808V6.70563V5.58924C25.621 5.14201 25.2284 4.71527 24.7675 4.73574C24.3066 4.7494 23.914 5.10445 23.914 5.58238L23.9141 5.58247Z" fill="black"/>
<path d="M25.1016 25.2197V29.634V30.2621C25.5284 30.0163 25.9586 29.7705 26.3853 29.5247C25.5761 29.0741 24.767 28.6268 23.9579 28.1762C23.8555 28.1181 23.7531 28.0567 23.6472 28.002C23.3468 27.8518 23.0498 27.8655 22.7596 28.0157C22.705 28.043 22.6537 28.0737 22.5991 28.1045C22.1314 28.3639 21.6603 28.6234 21.1926 28.8862C20.8102 29.0979 20.4278 29.3096 20.0455 29.5247C20.4722 29.7705 20.9024 30.0163 21.3291 30.2621V25.8478V25.2196C21.0457 25.503 20.759 25.7898 20.4756 26.0732C20.5678 26.0732 20.6702 26.0834 20.7624 26.0766C20.7863 26.0732 20.5405 26.0322 20.6634 26.0629C20.6907 26.0697 20.7214 26.0766 20.7487 26.0834C20.7726 26.0902 20.7965 26.1005 20.8204 26.1073C20.8989 26.1244 20.6224 26.0015 20.7453 26.0766C20.776 26.097 20.8102 26.1175 20.8443 26.1346C20.9502 26.1926 20.6975 26.0015 20.7897 26.0902C20.8136 26.1141 20.8375 26.1346 20.8614 26.1551C20.9058 26.1995 20.9502 26.2439 20.9945 26.2882C21.2676 26.5614 21.5442 26.8379 21.8173 27.111C21.7354 26.9096 21.65 26.7082 21.5681 26.5067C21.5681 27.0154 22.1348 27.5344 22.6435 27.5344C22.5001 27.4968 22.3568 27.4558 22.2134 27.4183C22.6811 27.6777 23.2375 27.7631 23.7531 27.6129C24.2447 27.4695 24.8523 27.0837 24.8523 26.5102C24.7704 26.7116 24.6851 26.913 24.6031 27.1144L25.3371 26.3804C25.4259 26.2917 25.5147 26.2029 25.6068 26.1141C25.7298 25.9946 25.4566 26.1927 25.6103 26.1175C25.6376 26.1039 25.6854 26.0868 25.7058 26.0663C25.5932 26.1107 25.5659 26.1244 25.6273 26.1039C25.6546 26.0937 25.6785 26.0868 25.7058 26.08C25.8527 26.0322 25.5659 26.08 25.6683 26.08C25.7605 26.08 25.8561 26.0766 25.9482 26.0766C26.3955 26.0766 26.8222 25.684 26.8017 25.2231C26.7813 24.7622 26.4262 24.3696 25.9482 24.3696C25.5113 24.3696 25.0777 24.4276 24.7021 24.6734C24.4939 24.81 24.3266 24.9807 24.1525 25.1548C23.9784 25.3289 23.8008 25.5064 23.6267 25.6805C23.3912 25.9161 23.1488 26.138 23.1488 26.5136C23.2307 26.3121 23.3161 26.1107 23.398 25.9093C23.3707 25.9332 23.3365 25.9571 23.3126 25.9844C23.3434 25.9605 23.3741 25.9332 23.4082 25.9093C23.3809 25.9264 23.3502 25.9469 23.3229 25.9605C23.1863 26.0527 23.497 25.9127 23.34 25.9571C23.3126 25.9639 23.1249 26.0254 23.2614 25.9844C23.4048 25.9434 23.1522 26.0151 23.1317 25.9776C23.1658 25.981 23.2034 25.9878 23.2375 25.9912C23.2 25.9844 23.1624 25.9742 23.1249 25.9639C22.9508 25.9332 23.2922 26.0527 23.1351 25.9707C22.9747 25.8888 22.8347 25.8239 22.6503 25.8239C22.7937 25.8615 22.9371 25.9025 23.0805 25.94C23.0532 25.923 23.0259 25.9059 23.002 25.8888C23.0942 25.9605 23.1044 25.9639 23.0327 25.9025C23.1146 26.1039 23.2 26.3053 23.2819 26.5067C23.2819 26.1073 23.0122 25.882 22.7596 25.6328C22.5718 25.445 22.3806 25.2538 22.1929 25.066C22.0017 24.8749 21.8003 24.6939 21.5544 24.5744C21.2062 24.4106 20.858 24.3628 20.479 24.3628C20.0181 24.3628 19.6255 24.7554 19.6255 25.2163V29.6305V30.2587C19.6255 30.9176 20.3458 31.3068 20.9091 30.9961C21.708 30.5523 22.5069 30.1084 23.3057 29.6646C23.4184 29.5998 23.5345 29.5383 23.6472 29.4735H22.7868C23.5857 29.9173 24.3846 30.3611 25.1835 30.8049C25.2961 30.8698 25.4122 30.9312 25.5249 30.9961C26.0882 31.3067 26.8085 30.9176 26.8085 30.2587V25.8444V25.2163C26.8085 24.769 26.4159 24.3423 25.955 24.3628C25.4941 24.3867 25.1015 24.7417 25.1015 25.2197L25.1016 25.2197Z" fill="black"/>
<path d="M23.0509 25.9302C23.0201 25.9097 22.9894 25.8892 22.9621 25.8687C23.0201 25.9131 23.0782 25.9575 23.1362 26.0019C23.0987 25.9746 23.0645 25.9438 23.0338 25.9097C23.1157 26.1111 23.2011 26.3125 23.283 26.514C22.7982 26.7154 22.31 26.9168 21.8252 27.1182C21.8559 27.149 21.8901 27.1797 21.9242 27.207C22.0096 27.2753 22.0983 27.347 22.1905 27.4084C22.2895 27.4699 22.3954 27.504 22.508 27.5108C22.6207 27.5347 22.7333 27.5313 22.8494 27.4972C22.9621 27.4699 23.0577 27.4187 23.1396 27.3436C23.2318 27.2821 23.3069 27.2036 23.3581 27.1046C23.3854 27.0363 23.4161 26.968 23.4434 26.8997C23.4844 26.7495 23.4844 26.5959 23.4434 26.4457C23.4161 26.3774 23.3854 26.3091 23.3581 26.2409C23.2796 26.1077 23.1772 26.0053 23.0509 25.9302C23.0201 25.9097 22.9894 25.8892 22.9621 25.8687C23.0201 25.9131 23.0782 25.9575 23.1362 26.0019C23.0987 25.9746 23.0645 25.9438 23.0338 25.9097C22.9758 25.8653 22.9177 25.8209 22.8597 25.7766C22.7914 25.7492 22.7231 25.7185 22.6548 25.6912C22.5797 25.681 22.5046 25.6707 22.4295 25.6605C22.3134 25.6571 22.2008 25.681 22.1017 25.7356C22.0301 25.7561 21.9652 25.7936 21.914 25.8448C21.8491 25.8824 21.7979 25.9336 21.7604 25.9985C21.7091 26.0531 21.6716 26.1145 21.6511 26.1862C21.5965 26.2886 21.5726 26.3979 21.576 26.514C21.576 26.5515 21.5794 26.5891 21.5897 26.6266C21.5965 26.7393 21.6272 26.8451 21.6921 26.9441C21.7365 27.0192 21.7843 27.0807 21.8457 27.1353C21.8628 27.1524 21.8833 27.1694 21.9037 27.1865C21.9959 27.2616 22.0915 27.3401 22.1905 27.405C22.2895 27.4665 22.3954 27.5006 22.508 27.5074C22.6207 27.5313 22.7333 27.5279 22.8494 27.4938C22.9621 27.4665 23.0577 27.4153 23.1396 27.3401C23.2318 27.2787 23.3069 27.2002 23.3581 27.1012C23.3854 27.0329 23.4161 26.9646 23.4434 26.8963C23.4844 26.7461 23.4844 26.5925 23.4434 26.4423C23.4161 26.374 23.3854 26.3057 23.3581 26.2374C23.2796 26.1077 23.1772 26.0053 23.0509 25.9302Z" fill="black"/>
<path d="M23.1527 26.5099C23.2346 26.3084 23.3199 26.107 23.4019 25.9056C23.3951 25.9124 23.3882 25.9192 23.3814 25.9261C23.7842 26.3289 24.1871 26.7317 24.5899 27.1346C24.5968 27.1278 24.6036 27.1209 24.6104 27.1141C24.6923 27.0356 24.7538 26.9468 24.7879 26.841C24.8426 26.7386 24.8665 26.6293 24.863 26.5132C24.8665 26.3972 24.8426 26.2845 24.7879 26.1855C24.7538 26.0797 24.6958 25.9875 24.6104 25.9124C24.5524 25.868 24.4943 25.8236 24.4363 25.7792C24.3032 25.7007 24.1598 25.6632 24.0061 25.6632C23.931 25.6734 23.8559 25.6836 23.7808 25.6939C23.6374 25.7349 23.5111 25.8065 23.4053 25.9124L23.3848 25.9329C23.3029 26.0114 23.2414 26.1001 23.2073 26.206C23.1526 26.3084 23.1287 26.4176 23.1322 26.5337C23.1287 26.6498 23.1526 26.7625 23.2073 26.8615C23.2414 26.9673 23.2994 27.0595 23.3848 27.1346C23.4428 27.179 23.5009 27.2233 23.5589 27.2677C23.6921 27.3462 23.8354 27.3838 23.9891 27.3838C24.0642 27.3736 24.1393 27.3633 24.2144 27.3531C24.3578 27.3121 24.4841 27.2404 24.5899 27.1346C24.5968 27.1278 24.6036 27.1243 24.607 27.1175C24.6343 27.0902 24.6582 27.0629 24.6753 27.0288C24.7265 26.9741 24.764 26.9127 24.7845 26.841C24.8221 26.7761 24.8426 26.701 24.8426 26.6259C24.8528 26.5883 24.8562 26.5508 24.8562 26.5132C24.8596 26.3972 24.8357 26.2845 24.7811 26.1855C24.747 26.0797 24.6889 25.9875 24.6036 25.9124C24.5251 25.8304 24.4363 25.769 24.3305 25.7348C24.228 25.6802 24.1188 25.6563 24.0027 25.6597C23.9276 25.67 23.8525 25.6802 23.7774 25.6905C23.634 25.7314 23.5077 25.8031 23.4019 25.909C23.3575 25.967 23.3131 26.025 23.2687 26.0831C23.1902 26.2128 23.1527 26.3562 23.1527 26.5099Z" fill="black"/>
<path d="M24.3647 24.9431C24.0438 25.264 23.7229 25.5849 23.402 25.9059C23.8048 26.3087 24.2077 26.7115 24.6105 27.1144C24.9314 26.7935 25.2523 26.4726 25.5732 26.1516C25.3718 26.2336 25.1704 26.3189 24.969 26.4009C25.4162 26.4009 25.843 26.0082 25.8225 25.5473C25.802 25.0865 25.4469 24.6938 24.969 24.6938C24.5183 24.6938 24.2213 25.0865 23.9311 25.3767C23.7536 25.5542 23.5795 25.7317 23.402 25.9059C23.0845 26.2234 23.0606 26.8003 23.402 27.1144C23.7434 27.4284 24.2725 27.4524 24.6105 27.1144C24.9314 26.7935 25.2523 26.4726 25.5732 26.1516C25.8907 25.8341 25.9112 25.2572 25.5732 24.9431C25.2318 24.6324 24.7027 24.6051 24.3647 24.9431Z" fill="black"/>
<path d="M11.7702 7.44968H14.5253H14.9248C15.372 7.44968 15.7987 7.05707 15.7783 6.59618C15.7578 6.13529 15.4027 5.74268 14.9248 5.74268H12.1697H11.7702C11.323 5.74268 10.8962 6.13529 10.9167 6.59618C10.9372 7.05707 11.2923 7.44968 11.7702 7.44968Z" fill="black"/>
<path d="M5.759 12.4071H6.95728H9.83186H13.3312H16.3423C16.8305 12.4071 17.3221 12.4174 17.8103 12.4071H17.8308C18.2781 12.4071 18.7048 12.0145 18.6843 11.5536C18.6639 11.0927 18.3088 10.7001 17.8308 10.7001H16.6325H13.758H10.2586H7.24751C6.75932 10.7001 6.26772 10.6899 5.77948 10.7001H5.759C5.31176 10.7001 4.88502 11.0927 4.90549 11.5536C4.92939 12.0179 5.28103 12.4071 5.759 12.4071Z" fill="black"/>
<path d="M5.759 16.9167H8.40141H12.5938H13.5599C14.0072 16.9167 14.4339 16.5241 14.4134 16.0632C14.393 15.6023 14.0379 15.2097 13.5599 15.2097H10.9175H6.72518H5.759C5.31176 15.2097 4.88502 15.6023 4.90549 16.0632C4.92939 16.5241 5.28103 16.9167 5.759 16.9167Z" fill="black"/>
<path d="M24.768 4.7293H21.0434H20.521C20.8044 5.01266 21.0912 5.29943 21.3745 5.5828V1.85816V1.33582C20.8898 1.53724 20.4016 1.73866 19.9168 1.94009L21.3506 3.37398C22.1119 4.13528 22.8767 4.90001 23.638 5.66137C23.8121 5.83548 23.9863 6.00959 24.1638 6.18712C24.4813 6.50462 25.0582 6.52511 25.3723 6.18712C25.6864 5.84572 25.7103 5.31658 25.3723 4.9786L23.9384 3.54471C23.1771 2.78341 22.4124 2.01868 21.651 1.25732C21.4769 1.08321 21.3028 0.909096 21.1253 0.731566C20.6029 0.209227 19.6675 0.595007 19.6675 1.33584V5.06049V5.58283C19.6675 6.04371 20.0601 6.43633 20.521 6.43633H24.2456H24.768C25.2152 6.43633 25.6419 6.04372 25.6215 5.58283C25.601 5.12194 25.2459 4.72932 24.768 4.72932L24.768 4.7293Z" fill="black"/>
</svg>
