<svg width="30" height="30" viewBox="0 0 30 30" fill="none" xmlns="http://www.w3.org/2000/svg">
<path d="M12.6587 25.0771C12.6519 24.4524 12.4846 23.8105 12.1466 23.2847C11.9827 23.0253 11.7813 22.7726 11.5491 22.5712C11.2965 22.3527 11.0268 22.1888 10.7468 22.0147C10.6341 21.943 10.5215 21.8713 10.4122 21.7927C10.3576 21.7552 10.303 21.7176 10.2483 21.6767C10.2244 21.6596 10.204 21.6425 10.18 21.6255C10.1596 21.6118 10.0025 21.4923 10.1459 21.6016C10.2893 21.7108 10.1015 21.5674 10.0708 21.5401C10.0196 21.4991 9.96838 21.4547 9.91716 21.4104C9.80791 21.3182 9.70208 21.2226 9.59966 21.1236C9.39822 20.9358 9.21045 20.7344 9.0295 20.5261C8.94073 20.4271 8.85879 20.3213 8.77344 20.2188C8.70175 20.1335 8.85538 20.3247 8.84513 20.3144C8.82124 20.2871 8.79734 20.253 8.77685 20.2222C8.73247 20.1608 8.68808 20.0993 8.6437 20.0379C8.29205 19.5428 7.995 19.0034 7.75602 18.4367L7.85844 18.6825C7.57165 17.9963 7.37705 17.2793 7.27462 16.5453C7.28828 16.6375 7.29852 16.7263 7.31218 16.8184C7.20976 16.0502 7.20634 15.2752 7.30876 14.5071C7.29511 14.5993 7.28487 14.6881 7.27121 14.7802C7.37363 14.0325 7.56824 13.3053 7.85843 12.6089L7.75601 12.8547C7.9233 12.4587 8.11791 12.0763 8.33983 11.711C8.44908 11.5335 8.56516 11.3593 8.68465 11.1886C8.71538 11.1477 8.7461 11.1033 8.77683 11.0623C8.80414 11.0248 8.92364 10.8711 8.80414 11.0248C8.68806 11.1784 8.80414 11.0248 8.83487 10.9872C8.87243 10.9394 8.90998 10.895 8.94754 10.8506C9.21725 10.5331 9.50745 10.2327 9.82155 9.95615C9.90007 9.88787 9.9786 9.81959 10.0605 9.75472C10.1015 9.72058 10.1425 9.68985 10.1834 9.65571C10.3405 9.52939 9.98884 9.79911 10.1527 9.67961C10.32 9.5567 10.4907 9.43379 10.6682 9.32113C11.0779 9.05824 11.5115 8.8295 11.9622 8.63827L11.7164 8.7407C12.4129 8.4505 13.1401 8.25248 13.8844 8.15006C13.7922 8.16371 13.7034 8.17396 13.6113 8.18761C14.3658 8.08861 15.1305 8.08861 15.8851 8.1842C15.7929 8.17054 15.7041 8.1603 15.6119 8.14664C16.3597 8.24907 17.0903 8.44709 17.7867 8.73728C17.7048 8.70314 17.6229 8.669 17.5409 8.63486C17.937 8.80215 18.3193 8.99676 18.6881 9.22208C18.8656 9.33134 19.0431 9.44742 19.2138 9.57032C19.2548 9.60105 19.2992 9.63178 19.3401 9.6625C19.3572 9.67616 19.405 9.70347 19.4118 9.71713C19.4221 9.7342 19.2172 9.5635 19.2923 9.62495C19.3777 9.69664 19.4665 9.76493 19.5518 9.83662C19.8727 10.1063 20.1698 10.3999 20.4497 10.7141C20.518 10.7926 20.5863 10.8711 20.6546 10.9531C20.6887 10.994 20.7194 11.035 20.7536 11.076C20.8799 11.233 20.6102 10.8814 20.7297 11.0452C20.8526 11.2159 20.9755 11.3866 21.0882 11.5642C21.3511 11.9773 21.5798 12.4108 21.771 12.865C21.7369 12.783 21.7027 12.7011 21.6686 12.6191C21.9588 13.3156 22.1568 14.0462 22.2592 14.7939C22.2456 14.7017 22.2353 14.613 22.2217 14.5208C22.3207 15.2821 22.3173 16.0503 22.2149 16.8083C22.2285 16.7161 22.2388 16.6273 22.2524 16.5351C22.1466 17.2862 21.9451 18.0169 21.6515 18.7134L21.7539 18.4676C21.5662 18.9046 21.3443 19.3279 21.0848 19.7308C21.0233 19.8263 20.9584 19.9219 20.8936 20.0175C20.856 20.0722 20.8185 20.1234 20.7809 20.178C20.7331 20.2429 20.5829 20.4307 20.7946 20.1678C20.6478 20.3521 20.4975 20.5331 20.3371 20.7106C20.1766 20.8847 20.0093 21.052 19.8352 21.2125C19.7498 21.291 19.6645 21.3661 19.5791 21.4378C19.5348 21.4754 19.4904 21.5129 19.446 21.5471C19.405 21.5812 19.2275 21.7178 19.3777 21.6051C19.5245 21.4924 19.3641 21.6153 19.3265 21.6427C19.2821 21.6768 19.2343 21.7109 19.1865 21.7417C19.0875 21.8134 18.9851 21.8816 18.8827 21.9465C18.6881 22.0728 18.4764 22.1787 18.2818 22.3084C17.3702 22.9195 16.8683 24.036 16.8683 25.1148V26.6067V27.6173C16.8683 27.788 16.8786 27.9588 16.8615 28.1295C16.8751 28.0373 16.8854 27.9485 16.899 27.8563C16.8888 27.9178 16.8751 27.9724 16.8547 28.0304C16.8888 27.9485 16.9229 27.8666 16.9571 27.7846C16.9537 27.788 16.9025 27.9041 16.8956 27.9007C16.8888 27.8973 17.0902 27.6754 16.9605 27.8119C16.8751 27.9007 16.8854 27.7983 17.0493 27.7471C17.0117 27.7573 16.9707 27.7915 16.9332 27.8085C17.0151 27.7744 17.0971 27.7402 17.179 27.7061C17.121 27.7266 17.0663 27.7402 17.0049 27.7505C17.0971 27.7368 17.1858 27.7266 17.278 27.7129C17.0971 27.73 16.9093 27.7198 16.7283 27.7198H15.5539H12.9251C12.7032 27.7198 12.4744 27.7368 12.2525 27.7129C12.3447 27.7266 12.4335 27.7368 12.5256 27.7505C12.4642 27.7402 12.4096 27.7266 12.3515 27.7061C12.4335 27.7402 12.5154 27.7744 12.5973 27.8085C12.5939 27.8051 12.4778 27.7539 12.4813 27.7471C12.4847 27.7402 12.7066 27.9417 12.57 27.8119C12.4813 27.7266 12.5837 27.7368 12.6349 27.9007C12.6247 27.8632 12.5905 27.8222 12.5734 27.7846C12.6076 27.8666 12.6417 27.9485 12.6759 28.0304C12.6554 27.9724 12.6417 27.9178 12.6315 27.8563C12.6451 27.9485 12.6554 28.0373 12.669 28.1295C12.6349 27.7812 12.6622 27.4228 12.6622 27.0711V25.4597C12.6588 25.3333 12.6588 25.207 12.6588 25.0773C12.6588 24.5413 12.1876 24.0292 11.6346 24.0531C11.0781 24.077 10.6104 24.5037 10.6104 25.0773V27.7539C10.6104 27.87 10.6069 27.9895 10.6138 28.1056C10.6718 28.8635 11.1942 29.5907 11.9794 29.7273C12.3242 29.7854 12.6725 29.7683 13.0207 29.7683H16.3324C16.6158 29.7683 16.8992 29.7751 17.1825 29.7683C17.8107 29.7512 18.4355 29.4166 18.7189 28.8397C18.8691 28.5358 18.9203 28.2183 18.9203 27.8837C18.9203 26.9551 18.9169 26.0299 18.9203 25.1013C18.9203 25.0023 18.9271 24.9032 18.9374 24.8042C18.9237 24.8964 18.9135 24.9852 18.8998 25.0774C18.934 24.835 18.9988 24.6028 19.091 24.3775L18.9886 24.6233C19.0671 24.4389 19.1729 24.2819 19.2754 24.1146C19.1217 24.3638 19.1729 24.2443 19.2344 24.176C19.2651 24.1419 19.2993 24.1077 19.33 24.077C19.4017 24.0087 19.5109 23.9712 19.2617 24.1214C19.3129 24.0907 19.3607 24.0565 19.4119 24.0258C19.7533 23.8278 20.0845 23.623 20.402 23.3874C21.1053 22.8616 21.7369 22.2778 22.2763 21.5813C22.8669 20.8199 23.3244 20.021 23.6863 19.1265C24.0243 18.2867 24.2121 17.4059 24.3009 16.5079C24.4682 14.818 24.137 13.1212 23.4337 11.5848C22.7577 10.1099 21.672 8.86378 20.3781 7.89762C17.7799 5.96525 14.1644 5.52824 11.1772 6.77096C9.68866 7.39233 8.34349 8.34143 7.33638 9.6115C6.3224 10.8918 5.59516 12.3872 5.33227 14.0089C5.18546 14.9239 5.14108 15.8423 5.26058 16.7641C5.39373 17.8225 5.6771 18.816 6.12779 19.7856C6.54431 20.6766 7.12472 21.5029 7.79727 22.2198C8.16941 22.6192 8.58251 22.9675 9.01271 23.2986C9.37119 23.5718 9.75356 23.8005 10.1326 24.0464C10.2964 24.1522 9.94138 23.8791 10.0848 24.0088C10.1223 24.0429 10.1599 24.0737 10.1974 24.1078C10.2691 24.1761 10.3306 24.258 10.3989 24.3263C10.1974 24.1181 10.3033 24.2034 10.3545 24.2785C10.3818 24.3195 10.4091 24.3605 10.433 24.4048C10.4842 24.4902 10.5252 24.579 10.5662 24.6711C10.532 24.5892 10.4979 24.5073 10.4637 24.4253C10.5457 24.6268 10.6037 24.835 10.6344 25.0501C10.6208 24.9579 10.6105 24.8692 10.5969 24.777C10.6071 24.8794 10.614 24.9784 10.6174 25.0808C10.6242 25.6169 11.0851 26.129 11.6416 26.1051C12.1844 26.0777 12.6658 25.651 12.659 25.0774L12.6587 25.0771Z" fill="black"/>
<path d="M13.7378 1.02502V3.531C13.7378 4.06701 14.2089 4.57913 14.762 4.55522C15.3185 4.53132 15.7862 4.10455 15.7862 3.531V1.02502C15.7862 0.48901 15.3151 -0.0231047 14.762 0.000805704C14.2089 0.0281186 13.7378 0.451471 13.7378 1.02502Z" fill="black"/>
<path d="M4.74105 4.27513L6.54027 6.07434C6.91923 6.45331 7.61574 6.48062 7.98788 6.07434C8.36343 5.66465 8.39416 5.02965 7.98788 4.62673L6.18866 2.82751C5.8097 2.44855 5.11319 2.42124 4.74105 2.82751C4.3655 3.23379 4.33477 3.86884 4.74105 4.27513Z" fill="black"/>
<path d="M23.3345 2.82422C22.7336 3.4251 22.1362 4.02255 21.5353 4.62344C21.1563 5.0024 21.129 5.69891 21.5353 6.07105C21.945 6.4466 22.58 6.47733 22.9829 6.07105C23.5838 5.47017 24.1812 4.87272 24.7821 4.27183C25.1611 3.89287 25.1884 3.19636 24.7821 2.82422C24.3758 2.44867 23.7408 2.42136 23.3345 2.82422Z" fill="black"/>
<path d="M11.6349 26.1017H13.738H17.1146H17.8896C18.4256 26.1017 18.9377 25.6305 18.9138 25.0774C18.8899 24.5209 18.4631 24.0532 17.8896 24.0532H15.7864H12.4099H11.6349C11.0989 24.0532 10.5868 24.5244 10.6107 25.0774C10.6346 25.6339 11.0613 26.1017 11.6349 26.1017Z" fill="black"/>
<path d="M17.8925 24.0535H15.7894H12.4128H11.6378C11.1018 24.0535 10.5897 24.5246 10.6136 25.0777C10.6375 25.6342 11.0643 26.1019 11.6378 26.1019H13.7409H17.1175H17.8925C18.4285 26.1019 18.9406 25.6308 18.9167 25.0777C18.8894 24.5246 18.466 24.0535 17.8925 24.0535Z" fill="black"/>
<path d="M15.7862 25.0773V22.8V19.1708V18.3378C15.7862 17.8018 15.3151 17.2896 14.762 17.3135C14.2055 17.3374 13.7378 17.7642 13.7378 18.3378V20.615V24.2442V25.0773C13.7378 25.6133 14.2089 26.1254 14.762 26.1015C15.3185 26.0776 15.7862 25.6508 15.7862 25.0773Z" fill="black"/>
<path d="M16.0286 15.6305C15.3663 16.2928 14.7039 16.9552 14.0381 17.6209H15.4857C14.8234 16.9586 14.1611 16.2962 13.4953 15.6305C13.1163 15.2515 12.4198 15.2242 12.0477 15.6305C11.6721 16.0402 11.6414 16.6752 12.0477 17.0781C12.71 17.7404 13.3724 18.4028 14.0381 19.0685C14.4308 19.4612 15.0931 19.4612 15.4857 19.0685C16.1481 18.4062 16.8104 17.7439 17.4762 17.0781C17.8551 16.6991 17.8825 16.0026 17.4762 15.6305C17.0665 15.2549 16.4315 15.2242 16.0286 15.6305Z" fill="black"/>
<path d="M0.494122 11.329C1.21793 11.6567 1.94173 11.981 2.66211 12.3088C2.92158 12.4249 3.1674 12.4897 3.45078 12.4112C3.68976 12.3464 3.94582 12.162 4.06191 11.9401C4.29748 11.4928 4.21554 10.7725 3.69318 10.5403C2.96938 10.2125 2.24557 9.88821 1.5252 9.56045C1.26573 9.44437 1.01991 9.37951 0.736529 9.45803C0.497543 9.5229 0.241483 9.70726 0.125402 9.92918C-0.110169 10.3764 -0.028231 11.0934 0.494122 11.329Z" fill="black"/>
<path d="M26.7727 12.411C27.5989 12.0832 28.4251 11.7589 29.2479 11.4311C29.5039 11.3287 29.7156 11.2058 29.859 10.96C29.9887 10.7415 30.0434 10.4171 29.9614 10.1713C29.8829 9.92208 29.7293 9.68309 29.4903 9.56018C29.2615 9.44069 28.9508 9.35875 28.7016 9.45776C27.8754 9.78552 27.0492 10.1098 26.2264 10.4376C25.9703 10.54 25.7587 10.6629 25.6153 10.9087C25.4855 11.1272 25.4309 11.4516 25.5128 11.6974C25.5914 11.9466 25.745 12.1856 25.984 12.3085C26.2127 12.428 26.5234 12.51 26.7727 12.411Z" fill="black"/>
</svg>
