<svg width="30" height="32" viewBox="0 0 30 32" fill="none" xmlns="http://www.w3.org/2000/svg">
<path d="M28.9314 26.0209H28.1875H26.1658H23.1581H19.5026H15.5018H11.4619H7.69252H4.49621H2.20752C1.84447 26.0209 1.48494 26.0173 1.12189 26.0209H1.07561C0.498991 26.0209 0.0078125 26.5085 0.0078125 27.0887V30.2352V30.6801C0.0078125 31.2567 0.49545 31.7479 1.07561 31.7479H1.81955H3.84125H6.84894H10.5044H14.5052H18.5451H22.3145H25.5108H27.7995C28.1625 31.7479 28.5221 31.7515 28.8851 31.7479H28.9314C29.508 31.7479 29.9992 31.2603 29.9992 30.6801V27.5336V27.0887C29.9992 26.5298 29.508 25.9959 28.9314 26.0209C28.3512 26.0458 27.8636 26.4907 27.8636 27.0887V30.2352V30.6801L28.9314 29.6123H28.1875H26.1658H23.1581H19.5026H15.5018H11.4619H7.69252H4.49621H2.20752C1.84447 29.6123 1.48494 29.6052 1.12189 29.6123H1.07561L2.14342 30.6801V27.5336V27.0887L1.07561 28.1565H1.81955H3.84125H6.84894H10.5044H14.5052H18.5451H22.3145H25.5108H27.7995C28.1625 28.1565 28.5221 28.16 28.8851 28.1565H28.9314C29.4902 28.1565 30.0241 27.6653 29.9992 27.0887C29.9743 26.5085 29.5294 26.0209 28.9314 26.0209Z" fill="black"/>
<path d="M25.9986 10.4061H23.176H22.7738C22.1972 10.4061 21.706 10.8938 21.706 11.4739V13.0293V16.7596V21.255V25.1704C21.706 25.8004 21.6918 26.4304 21.706 27.0604V27.0889C21.706 27.6655 22.1937 28.1567 22.7738 28.1567H25.5964H25.9986C26.5753 28.1567 27.0664 27.669 27.0664 27.0889V25.5334V21.8032V17.3077V13.3924C27.0664 12.7624 27.0807 12.1324 27.0664 11.5024V11.4739C27.0664 10.9151 26.5752 10.3812 25.9986 10.4061C25.4185 10.431 24.9308 10.876 24.9308 11.4739V13.0293V16.7596V21.255V25.1704C24.9308 25.8004 24.913 26.4304 24.9308 27.0604V27.0889L25.9986 26.0211H23.176H22.7738L23.8416 27.0889V25.5334V21.8032V17.3077V13.3924C23.8416 12.7624 23.8594 12.1324 23.8416 11.5024V11.4739L22.7738 12.5417H25.5964H25.9986C26.5575 12.5417 27.0914 12.0505 27.0664 11.4739C27.0415 10.8973 26.5966 10.4061 25.9986 10.4061Z" fill="black"/>
<path d="M16.6158 10.4061H13.7932H13.391C12.8144 10.4061 12.3232 10.8938 12.3232 11.4739V13.0293V16.7596V21.255V25.1704C12.3232 25.8004 12.309 26.4304 12.3232 27.0604V27.0889C12.3232 27.6655 12.8109 28.1567 13.391 28.1567H16.2136H16.6158C17.1924 28.1567 17.6836 27.669 17.6836 27.0889V25.5334V21.8032V17.3077V13.3924C17.6836 12.7624 17.6979 12.1324 17.6836 11.5024V11.4739C17.6836 10.9151 17.1924 10.3812 16.6158 10.4061C16.0356 10.431 15.548 10.876 15.548 11.4739V13.0293V16.7596V21.255V25.1704C15.548 25.8004 15.5302 26.4304 15.548 27.0604V27.0889L16.6158 26.0211H13.7932H13.391L14.4588 27.0889V25.5334V21.8032V17.3077V13.3924C14.4588 12.7624 14.4766 12.1324 14.4588 11.5024V11.4739L13.391 12.5417H16.2136H16.6158C17.1746 12.5417 17.7086 12.0505 17.6836 11.4739C17.6587 10.8973 17.2138 10.4061 16.6158 10.4061Z" fill="black"/>
<path d="M7.2335 10.4061H4.41091H4.0087C3.43208 10.4061 2.9409 10.8938 2.9409 11.4739V13.0293V16.7596V21.255V25.1704C2.9409 25.8004 2.92666 26.4304 2.9409 27.0604V27.0889C2.9409 27.6655 3.42854 28.1567 4.0087 28.1567H6.83129H7.2335C7.81012 28.1567 8.3013 27.669 8.3013 27.0889V25.5334V21.8032V17.3077V13.3924C8.3013 12.7624 8.31554 12.1324 8.3013 11.5024V11.4739C8.3013 10.9151 7.8101 10.3812 7.2335 10.4061C6.65332 10.431 6.1657 10.876 6.1657 11.4739V13.0293V16.7596V21.255V25.1704C6.1657 25.8004 6.1479 26.4304 6.1657 27.0604V27.0889L7.2335 26.0211H4.41091H4.0087L5.0765 27.0889V25.5334V21.8032V17.3077V13.3924C5.0765 12.7624 5.0943 12.1324 5.0765 11.5024V11.4739L4.0087 12.5417H6.83129H7.2335C7.79232 12.5417 8.32623 12.0505 8.3013 11.4739C8.27639 10.8973 7.83146 10.4061 7.2335 10.4061Z" fill="black"/>
<path d="M29.469 8.20622C29.0062 7.93926 28.5471 7.67231 28.0844 7.40533C26.9774 6.76464 25.8669 6.12392 24.7599 5.4797C23.418 4.70374 22.0797 3.92779 20.7378 3.15183C19.5775 2.4791 18.4171 1.80995 17.2603 1.13722C16.6979 0.80976 16.1355 0.471586 15.566 0.158392C15.5589 0.154832 15.5482 0.147714 15.5411 0.144154C15.2101 -0.0480514 14.7936 -0.0480514 14.4626 0.144154C13.8611 0.492976 13.2596 0.838232 12.6616 1.18703C11.2876 1.98075 9.91726 2.77806 8.54336 3.57185C7.03063 4.44745 5.5179 5.32305 4.00159 6.20223C2.98006 6.79309 1.95496 7.38752 0.933369 7.97837C0.463526 8.24888 0.0257434 8.47313 0.00790984 9.1423C-0.00988729 9.84347 0.00790984 10.5483 0.00790984 11.2495V11.4773C0.00790984 12.0539 0.495548 12.5451 1.07571 12.5451H1.81965H3.84135H6.84904H10.5045H14.5053H18.5452H22.3146H25.5109H27.7996C28.1626 12.5451 28.5222 12.5486 28.8852 12.5451H28.9315C29.5081 12.5451 29.9993 12.0574 29.9993 11.4773V9.13163C29.9993 8.57281 29.5081 8.0389 28.9315 8.06383C28.3513 8.08874 27.8637 8.53367 27.8637 9.13163V11.4773L28.9315 10.4095H28.1876H26.1659H23.1582H19.5027H15.5019H11.462H7.69262H4.4963H2.20762C1.84456 10.4095 1.48503 10.4023 1.12198 10.4095H1.07571L2.14351 11.4773V9.13163C1.96554 9.43773 1.79113 9.7474 1.61317 10.0535C2.07589 9.78655 2.53504 9.5196 2.99774 9.25262C4.10473 8.61193 5.21522 7.97121 6.32221 7.32699C7.66409 6.55103 9.00245 5.77507 10.3443 4.99912C11.5047 4.32639 12.665 3.65724 13.8219 2.98451C14.3843 2.65705 14.9609 2.34738 15.5161 2.00568C15.5233 2.00212 15.5339 1.995 15.541 1.99144H14.4626C14.9253 2.2584 15.3845 2.52535 15.8471 2.79233C16.9541 3.43302 18.0646 4.07374 19.1716 4.71796C20.5135 5.49392 21.8519 6.26988 23.1937 7.04583C24.3541 7.71856 25.5144 8.38771 26.6713 9.06044C27.2337 9.3879 27.796 9.72608 28.3655 10.0393C28.3727 10.0428 28.3833 10.0499 28.3905 10.0535C28.8745 10.3347 29.5828 10.1816 29.8498 9.6691C30.1239 9.15654 29.9851 8.50522 29.469 8.20622Z" fill="black"/>
</svg>
