<?xml version="1.0" encoding="UTF-8"?>
<svg width="700pt" height="700pt" version="1.1" viewBox="0 0 700 700" xmlns="http://www.w3.org/2000/svg" xmlns:xlink="http://www.w3.org/1999/xlink">
 <defs>
  <symbol id="v" overflow="visible">
   <path d="m1.8281-0.10938c-0.09375 0.054688-0.19531 0.089844-0.29688 0.10938-0.09375 0.019531-0.19922 0.03125-0.3125 0.03125-0.33594 0-0.60156-0.085938-0.79688-0.26562-0.1875-0.1875-0.28125-0.44141-0.28125-0.76562 0-0.3125 0.09375-0.5625 0.28125-0.75 0.19531-0.1875 0.46094-0.28125 0.79688-0.28125 0.11328 0 0.21875 0.015625 0.3125 0.046875 0.10156 0.023437 0.20312 0.058594 0.29688 0.10938v0.40625c-0.09375-0.0625-0.1875-0.10938-0.28125-0.14062s-0.19531-0.046875-0.29688-0.046875c-0.17969 0-0.32031 0.0625-0.42188 0.1875-0.10547 0.11719-0.15625 0.27344-0.15625 0.46875 0 0.21094 0.050781 0.375 0.15625 0.5 0.10156 0.11719 0.24219 0.17188 0.42188 0.17188 0.10156 0 0.20312-0.015625 0.29688-0.046875s0.1875-0.078125 0.28125-0.14062z"/>
  </symbol>
  <symbol id="f" overflow="visible">
   <path d="m1.3438-1.0938c-0.042969-0.019531-0.085938-0.03125-0.125-0.03125-0.042969-0.007812-0.085938-0.015625-0.125-0.015625-0.125 0-0.22656 0.042969-0.29688 0.125-0.0625 0.074219-0.09375 0.18359-0.09375 0.32812v0.6875h-0.46875v-1.5h0.46875v0.25c0.0625-0.09375 0.12891-0.16016 0.20312-0.20312 0.082031-0.050781 0.17969-0.078125 0.29688-0.078125h0.046875c0.019531 0 0.050781 0.007812 0.09375 0.015625z"/>
  </symbol>
  <symbol id="a" overflow="visible">
   <path d="m1.7188-0.75v0.14062h-1.1094c0.007813 0.10547 0.046875 0.1875 0.10938 0.25 0.070312 0.054687 0.17188 0.078125 0.29688 0.078125 0.10156 0 0.20703-0.015625 0.3125-0.046875 0.10156-0.03125 0.21094-0.070313 0.32812-0.125v0.35938c-0.11719 0.042969-0.23047 0.074219-0.34375 0.09375-0.11719 0.019531-0.23047 0.03125-0.34375 0.03125-0.27344 0-0.48047-0.066406-0.625-0.20312-0.14844-0.13281-0.21875-0.32812-0.21875-0.57812 0-0.23828 0.070312-0.42578 0.21875-0.5625 0.14453-0.14453 0.34766-0.21875 0.60938-0.21875 0.22656 0 0.41016 0.074219 0.54688 0.21875 0.14453 0.13672 0.21875 0.32422 0.21875 0.5625zm-0.48438-0.15625c0-0.09375-0.027344-0.16406-0.078125-0.21875-0.054688-0.0625-0.125-0.09375-0.21875-0.09375-0.085938 0-0.15625 0.027344-0.21875 0.078125-0.0625 0.054687-0.10156 0.13281-0.10938 0.23438z"/>
  </symbol>
  <symbol id="e" overflow="visible">
   <path d="m0.90625-0.67188c-0.10547 0-0.18359 0.015625-0.23438 0.046875-0.054687 0.03125-0.078125 0.085938-0.078125 0.15625 0 0.0625 0.019531 0.10938 0.0625 0.14062 0.039062 0.03125 0.097656 0.046875 0.17188 0.046875 0.09375 0 0.16406-0.03125 0.21875-0.09375 0.0625-0.0625 0.09375-0.14453 0.09375-0.25v-0.046875zm0.71875-0.1875v0.85938h-0.48438v-0.21875c-0.0625 0.09375-0.13672 0.16406-0.21875 0.20312-0.074219 0.03125-0.16797 0.046875-0.28125 0.046875-0.15625 0-0.28125-0.039062-0.375-0.125-0.09375-0.09375-0.14062-0.21094-0.14062-0.35938 0-0.17578 0.054688-0.30078 0.17188-0.375 0.125-0.082031 0.3125-0.125 0.5625-0.125h0.28125v-0.046875c0-0.070312-0.03125-0.125-0.09375-0.15625-0.054687-0.039062-0.14062-0.0625-0.26562-0.0625-0.10547 0-0.20312 0.011719-0.29688 0.03125-0.085937 0.023438-0.16406 0.054688-0.23438 0.09375v-0.35938c0.10156-0.03125 0.20703-0.050781 0.3125-0.0625 0.10156-0.007813 0.20312-0.015625 0.29688-0.015625 0.26953 0 0.46094 0.054688 0.57812 0.15625 0.125 0.10547 0.1875 0.27734 0.1875 0.51562z"/>
  </symbol>
  <symbol id="d" overflow="visible">
   <path d="m0.75-1.9219v0.42188h0.5v0.34375h-0.5v0.64062c0 0.0625 0.007812 0.10938 0.03125 0.14062 0.03125 0.023438 0.085938 0.03125 0.17188 0.03125h0.25v0.34375h-0.40625c-0.1875 0-0.32422-0.035156-0.40625-0.10938-0.074219-0.082031-0.10938-0.21875-0.10938-0.40625v-0.64062h-0.25v-0.34375h0.25v-0.42188z"/>
  </symbol>
  <symbol id="k" overflow="visible">
   <path d="m1.25-1.2812v-0.79688h0.48438v2.0781h-0.48438v-0.21875c-0.074219 0.09375-0.15234 0.16406-0.23438 0.20312-0.074219 0.03125-0.16406 0.046875-0.26562 0.046875-0.17969 0-0.32812-0.070312-0.45312-0.21875-0.11719-0.14453-0.17188-0.33203-0.17188-0.5625 0-0.22656 0.054688-0.41406 0.17188-0.5625 0.125-0.14453 0.27344-0.21875 0.45312-0.21875 0.10156 0 0.19141 0.023438 0.26562 0.0625 0.082031 0.042969 0.16016 0.10547 0.23438 0.1875zm-0.3125 0.96875c0.09375 0 0.16406-0.035156 0.21875-0.10938 0.0625-0.070313 0.09375-0.17969 0.09375-0.32812 0-0.13281-0.03125-0.23828-0.09375-0.3125-0.054688-0.082031-0.125-0.125-0.21875-0.125-0.10547 0-0.18359 0.042969-0.23438 0.125-0.054687 0.074219-0.078125 0.17969-0.078125 0.3125 0 0.14844 0.023438 0.25781 0.078125 0.32812 0.050781 0.074219 0.12891 0.10938 0.23438 0.10938z"/>
  </symbol>
  <symbol id="j" overflow="visible">
   <path d="m1.0312-0.3125c0.09375 0 0.16406-0.035156 0.21875-0.10938 0.0625-0.070313 0.09375-0.17969 0.09375-0.32812 0-0.13281-0.03125-0.23828-0.09375-0.3125-0.054688-0.082031-0.125-0.125-0.21875-0.125-0.10547 0-0.1875 0.042969-0.25 0.125-0.054688 0.074219-0.078125 0.17969-0.078125 0.3125 0 0.14844 0.023437 0.25781 0.078125 0.32812 0.0625 0.074219 0.14453 0.10938 0.25 0.10938zm-0.32812-0.96875c0.070313-0.082031 0.14453-0.14453 0.21875-0.1875 0.082031-0.039062 0.17578-0.0625 0.28125-0.0625 0.1875 0 0.33594 0.074219 0.45312 0.21875 0.11328 0.14844 0.17188 0.33594 0.17188 0.5625 0 0.23047-0.058594 0.41797-0.17188 0.5625-0.11719 0.14844-0.26562 0.21875-0.45312 0.21875-0.10547 0-0.19922-0.015625-0.28125-0.046875-0.074219-0.039062-0.14844-0.10938-0.21875-0.20312v0.21875h-0.46875v-2.0781h0.46875z"/>
  </symbol>
  <symbol id="i" overflow="visible">
   <path d="m0.03125-1.5h0.48438l0.39062 1.0156 0.34375-1.0156h0.48438l-0.625 1.6406c-0.0625 0.16406-0.14062 0.28125-0.23438 0.34375-0.085938 0.070313-0.19531 0.10938-0.32812 0.10938h-0.26562v-0.3125h0.14062c0.082031 0 0.14062-0.015625 0.17188-0.046875 0.039062-0.023437 0.070312-0.070313 0.09375-0.14062l0.015625-0.03125z"/>
  </symbol>
  <symbol id="c" overflow="visible">
   <path d="m1.3906-1.4531v0.375c-0.09375-0.050781-0.19531-0.085937-0.29688-0.10938-0.09375-0.019531-0.18359-0.03125-0.26562-0.03125-0.085937 0-0.15234 0.015625-0.20312 0.046875-0.042969 0.023437-0.0625 0.054687-0.0625 0.09375 0 0.042969 0.015625 0.074219 0.046875 0.09375 0.03125 0.023437 0.09375 0.039063 0.1875 0.046875l0.078125 0.015625c0.25 0.03125 0.41406 0.085937 0.5 0.15625 0.082031 0.0625 0.125 0.17188 0.125 0.32812s-0.0625 0.27734-0.1875 0.35938c-0.11719 0.074219-0.28906 0.10938-0.51562 0.10938-0.10547 0-0.21094-0.011719-0.3125-0.03125-0.10547-0.0078125-0.21094-0.03125-0.3125-0.0625v-0.35938c0.09375 0.054687 0.1875 0.089844 0.28125 0.10938 0.10156 0.023438 0.20703 0.03125 0.3125 0.03125 0.09375 0 0.16016-0.007812 0.20312-0.03125 0.050781-0.03125 0.078125-0.070312 0.078125-0.125 0-0.039062-0.015625-0.070312-0.046875-0.09375-0.03125-0.019531-0.10156-0.035156-0.20312-0.046875l-0.078125-0.015625c-0.21875-0.019531-0.37109-0.066406-0.45312-0.14062-0.085937-0.070313-0.125-0.17969-0.125-0.32812 0-0.15625 0.050781-0.26953 0.15625-0.34375 0.11328-0.082031 0.28125-0.125 0.5-0.125 0.09375 0 0.1875 0.011719 0.28125 0.03125 0.10156 0.011719 0.20703 0.027344 0.3125 0.046875z"/>
  </symbol>
  <symbol id="b" overflow="visible">
   <path d="m1.7344-0.90625v0.90625h-0.48438v-0.6875c0-0.13281-0.007812-0.22266-0.015625-0.26562 0-0.050781-0.007813-0.09375-0.015625-0.125-0.023438-0.03125-0.046875-0.050781-0.078125-0.0625-0.03125-0.019531-0.070313-0.03125-0.10938-0.03125-0.10547 0-0.1875 0.042969-0.25 0.125-0.054688 0.074219-0.078125 0.17969-0.078125 0.3125v0.73438h-0.46875v-2.0781h0.46875v0.79688c0.070313-0.082031 0.14844-0.14453 0.23438-0.1875 0.082031-0.039062 0.17188-0.0625 0.26562-0.0625 0.17578 0 0.30469 0.054688 0.39062 0.15625 0.09375 0.10547 0.14062 0.26172 0.14062 0.46875z"/>
  </symbol>
  <symbol id="h" overflow="visible">
   <path d="m1.7344-0.90625v0.90625h-0.48438v-0.70312c0-0.125-0.007812-0.20703-0.015625-0.25 0-0.050781-0.007813-0.09375-0.015625-0.125-0.023438-0.03125-0.046875-0.050781-0.078125-0.0625-0.03125-0.019531-0.070313-0.03125-0.10938-0.03125-0.10547 0-0.1875 0.042969-0.25 0.125-0.054688 0.074219-0.078125 0.17969-0.078125 0.3125v0.73438h-0.46875v-1.5h0.46875v0.21875c0.070313-0.082031 0.14844-0.14453 0.23438-0.1875 0.082031-0.039062 0.17188-0.0625 0.26562-0.0625 0.17578 0 0.30469 0.054688 0.39062 0.15625 0.09375 0.10547 0.14062 0.26172 0.14062 0.46875z"/>
  </symbol>
  <symbol id="u" overflow="visible">
   <path d="m0.23438-2.0781h0.46875v1.125l0.54688-0.54688h0.5625l-0.73438 0.6875 0.79688 0.8125h-0.57812l-0.59375-0.625v0.625h-0.46875z"/>
  </symbol>
  <symbol id="t" overflow="visible">
   <path d="m0.23438-1.5h0.46875v1.5h-0.46875zm0-0.57812h0.46875v0.39062h-0.46875z"/>
  </symbol>
  <symbol id="s" overflow="visible">
   <path d="m1.25-0.25c-0.074219 0.085938-0.15234 0.14844-0.23438 0.1875-0.074219 0.042969-0.16406 0.0625-0.26562 0.0625-0.17969 0-0.32812-0.070312-0.45312-0.21875-0.11719-0.14453-0.17188-0.32812-0.17188-0.54688s0.054688-0.39844 0.17188-0.54688c0.125-0.14453 0.27344-0.21875 0.45312-0.21875 0.10156 0 0.19141 0.023438 0.26562 0.0625 0.082031 0.042969 0.16016 0.10547 0.23438 0.1875v-0.21875h0.48438v1.3438c0 0.23828-0.078125 0.42188-0.23438 0.54688-0.15625 0.13281-0.375 0.20312-0.65625 0.20312-0.09375 0-0.1875-0.011719-0.28125-0.03125-0.085938-0.011719-0.16797-0.03125-0.25-0.0625v-0.375c0.082031 0.050781 0.16016 0.085938 0.23438 0.10938 0.082031 0.03125 0.16406 0.046875 0.25 0.046875 0.15625 0 0.26953-0.039062 0.34375-0.10938 0.070313-0.074219 0.10938-0.17969 0.10938-0.32812zm-0.3125-0.9375c-0.10547 0-0.18359 0.039062-0.23438 0.10938-0.054687 0.074219-0.078125 0.17969-0.078125 0.3125 0 0.13672 0.023438 0.24219 0.078125 0.3125 0.050781 0.074219 0.12891 0.10938 0.23438 0.10938 0.09375 0 0.16406-0.035156 0.21875-0.10938 0.0625-0.070313 0.09375-0.17578 0.09375-0.3125 0-0.13281-0.03125-0.23828-0.09375-0.3125-0.054688-0.070313-0.125-0.10938-0.21875-0.10938z"/>
  </symbol>
  <symbol id="r" overflow="visible">
   <path d="m1.2188-2.0781v0.3125h-0.26562c-0.074219 0-0.125 0.015625-0.15625 0.046875-0.023437 0.023438-0.03125 0.0625-0.03125 0.125v0.09375h0.40625v0.34375h-0.40625v1.1562h-0.46875v-1.1562h-0.25v-0.34375h0.25v-0.09375c0-0.16406 0.039063-0.28516 0.125-0.35938 0.09375-0.082031 0.23438-0.125 0.42188-0.125z"/>
  </symbol>
  <symbol id="g" overflow="visible">
   <path d="m0.9375-1.1875c-0.10547 0-0.1875 0.039062-0.25 0.10938-0.054688 0.074219-0.078125 0.18359-0.078125 0.32812 0 0.14844 0.023437 0.26172 0.078125 0.34375 0.0625 0.074219 0.14453 0.10938 0.25 0.10938 0.10156 0 0.17969-0.035156 0.23438-0.10938 0.0625-0.082031 0.09375-0.19531 0.09375-0.34375 0-0.14453-0.03125-0.25391-0.09375-0.32812-0.054687-0.070313-0.13281-0.10938-0.23438-0.10938zm0-0.34375c0.25781 0 0.46094 0.074219 0.60938 0.21875 0.14453 0.13672 0.21875 0.32422 0.21875 0.5625 0 0.25-0.074219 0.44531-0.21875 0.57812-0.14844 0.13672-0.35156 0.20312-0.60938 0.20312-0.26172 0-0.46484-0.066406-0.60938-0.20312-0.13672-0.13281-0.20312-0.32812-0.20312-0.57812 0-0.23828 0.066406-0.42578 0.20312-0.5625 0.14453-0.14453 0.34766-0.21875 0.60938-0.21875z"/>
  </symbol>
  <symbol id="q" overflow="visible">
   <path d="m1.6094-1.25c0.0625-0.09375 0.13281-0.16016 0.21875-0.20312 0.082031-0.050781 0.17578-0.078125 0.28125-0.078125 0.16406 0 0.29688 0.054688 0.39062 0.15625 0.09375 0.10547 0.14062 0.26172 0.14062 0.46875v0.90625h-0.48438v-0.78125-0.03125-0.0625c0-0.10156-0.015625-0.17578-0.046875-0.21875-0.03125-0.050781-0.085937-0.078125-0.15625-0.078125-0.085937 0-0.15234 0.039063-0.20312 0.10938-0.054688 0.074219-0.078125 0.18359-0.078125 0.32812v0.73438h-0.48438v-0.78125c0-0.16406-0.015625-0.26953-0.046875-0.3125-0.023437-0.050781-0.070313-0.078125-0.14062-0.078125-0.09375 0-0.16797 0.042969-0.21875 0.125-0.054688 0.074219-0.078125 0.17969-0.078125 0.3125v0.73438h-0.46875v-1.5h0.46875v0.21875c0.0625-0.082031 0.12891-0.14453 0.20312-0.1875 0.082031-0.039062 0.16406-0.0625 0.25-0.0625 0.10156 0 0.19141 0.027344 0.26562 0.078125 0.082031 0.054687 0.14453 0.12109 0.1875 0.20312z"/>
  </symbol>
  <symbol id="p" overflow="visible">
   <path d="m0.25-2h0.57812l0.71875 1.375v-1.375h0.48438v2h-0.5625l-0.73438-1.375v1.375h-0.48438z"/>
  </symbol>
  <symbol id="o" overflow="visible">
   <path d="m0.21875-0.57812v-0.92188h0.46875v0.15625 0.3125 0.23438 0.26562c0.007812 0.054688 0.023438 0.089844 0.046875 0.10938 0.019531 0.03125 0.046875 0.058594 0.078125 0.078125 0.03125 0.011719 0.066406 0.015625 0.10938 0.015625 0.09375 0 0.16406-0.035156 0.21875-0.10938 0.0625-0.070312 0.09375-0.17578 0.09375-0.3125v-0.75h0.48438v1.5h-0.48438v-0.21875c-0.074219 0.09375-0.15234 0.16406-0.23438 0.20312-0.074219 0.03125-0.15625 0.046875-0.25 0.046875-0.17969 0-0.3125-0.050781-0.40625-0.15625-0.085938-0.10156-0.125-0.25391-0.125-0.45312z"/>
  </symbol>
  <symbol id="n" overflow="visible">
   <path d="m0.25-2h0.85938c0.25 0 0.44141 0.058594 0.57812 0.17188 0.13281 0.11719 0.20312 0.27734 0.20312 0.48438 0 0.21094-0.070313 0.37109-0.20312 0.48438-0.13672 0.11719-0.32812 0.17188-0.57812 0.17188h-0.34375v0.6875h-0.51562zm0.51562 0.375v0.5625h0.28125c0.10156 0 0.17969-0.019531 0.23438-0.0625 0.050781-0.050781 0.078125-0.125 0.078125-0.21875s-0.027344-0.16016-0.078125-0.20312c-0.054688-0.050781-0.13281-0.078125-0.23438-0.078125z"/>
  </symbol>
  <symbol id="m" overflow="visible">
   <path d="m0.23438-1.5h0.46875v1.4688c0 0.20703-0.046875 0.36328-0.14062 0.46875-0.09375 0.10156-0.23438 0.15625-0.42188 0.15625h-0.23438v-0.3125h0.078125c0.09375 0 0.15625-0.023438 0.1875-0.0625 0.039063-0.042969 0.0625-0.125 0.0625-0.25zm0-0.57812h0.46875v0.39062h-0.46875z"/>
  </symbol>
  <symbol id="l" overflow="visible">
   <path d="m1.4375-1.4531v0.39062c-0.0625-0.039062-0.13281-0.070312-0.20312-0.09375-0.0625-0.019531-0.13281-0.03125-0.20312-0.03125-0.125 0-0.23047 0.042969-0.3125 0.125-0.074219 0.074219-0.10938 0.17969-0.10938 0.3125 0 0.14844 0.035156 0.26172 0.10938 0.34375 0.082031 0.074219 0.1875 0.10938 0.3125 0.10938 0.082031 0 0.15625-0.007813 0.21875-0.03125 0.070312-0.03125 0.13281-0.066406 0.1875-0.10938v0.39062c-0.074219 0.03125-0.15234 0.050781-0.23438 0.0625-0.074219 0.0078125-0.14844 0.015625-0.21875 0.015625-0.27344 0-0.48438-0.066406-0.64062-0.20312-0.14844-0.13281-0.21875-0.32812-0.21875-0.57812 0-0.23828 0.070312-0.42578 0.21875-0.5625 0.15625-0.14453 0.36719-0.21875 0.64062-0.21875 0.070313 0 0.14453 0.011719 0.21875 0.03125 0.082031 0.011719 0.16016 0.027344 0.23438 0.046875z"/>
  </symbol>
 </defs>
 <g>
  <path d="m312.59 443.24c-0.10938-10.008-2.7891-20.289-8.2031-28.711-2.625-4.1562-5.8516-8.2031-9.5703-11.43-4.0469-3.5-8.3672-6.125-12.852-8.9141-1.8047-1.1484-3.6094-2.2969-5.3594-3.5547-0.875-0.60156-1.75-1.2031-2.625-1.8594-0.38281-0.27344-0.71094-0.54688-1.0938-0.82031-0.32812-0.21875-2.8438-2.1328-0.54688-0.38281s-0.71094-0.54687-1.2031-0.98437c-0.82031-0.65625-1.6406-1.3672-2.4609-2.0781-1.75-1.4766-3.4453-3.0078-5.0859-4.5938-3.2266-3.0078-6.2344-6.2344-9.1328-9.5703-1.4219-1.5859-2.7344-3.2812-4.1016-4.9219-1.1484-1.3672 1.3125 1.6953 1.1484 1.5312-0.38281-0.4375-0.76562-0.98438-1.0938-1.4766-0.71094-0.98437-1.4219-1.9688-2.1328-2.9531-5.6328-7.9297-10.391-16.57-14.219-25.648l1.6406 3.9375c-4.5938-10.992-7.7109-22.477-9.3516-34.234 0.21875 1.4766 0.38281 2.8984 0.60156 4.375-1.6406-12.305-1.6953-24.719-0.054687-37.023-0.21875 1.4766-0.38281 2.8984-0.60156 4.375 1.6406-11.977 4.7578-23.625 9.4062-34.781l-1.6406 3.9375c2.6797-6.3438 5.7969-12.469 9.3516-18.32 1.75-2.8438 3.6094-5.6328 5.5234-8.3672 0.49219-0.65625 0.98438-1.3672 1.4766-2.0234 0.4375-0.60156 2.3516-3.0625 0.4375-0.60156-1.8594 2.4609 0 0 0.49219-0.60156 0.60156-0.76562 1.2031-1.4766 1.8047-2.1875 4.3203-5.0859 8.9688-9.8984 14-14.328 1.2578-1.0938 2.5156-2.1875 3.8281-3.2266 0.65625-0.54688 1.3125-1.0391 1.9688-1.5859 2.5156-2.0234-3.1172 2.2969-0.49219 0.38281 2.6797-1.9688 5.4141-3.9375 8.2578-5.7422 6.5625-4.2109 13.508-7.875 20.727-10.938l-3.9375 1.6406c11.156-4.6484 22.805-7.8203 34.727-9.4609-1.4766 0.21875-2.8984 0.38281-4.375 0.60156 12.086-1.5859 24.336-1.5859 36.422-0.054687-1.4766-0.21875-2.8984-0.38281-4.375-0.60156 11.977 1.6406 23.68 4.8125 34.836 9.4609-1.3125-0.54687-2.625-1.0938-3.9375-1.6406 6.3438 2.6797 12.469 5.7969 18.375 9.4062 2.8438 1.75 5.6875 3.6094 8.4219 5.5781 0.65625 0.49219 1.3672 0.98438 2.0234 1.4766 0.27344 0.21875 1.0391 0.65625 1.1484 0.875 0.16406 0.27344-3.1172-2.4609-1.9141-1.4766 1.3672 1.1484 2.7891 2.2422 4.1562 3.3906 5.1406 4.3203 9.8984 9.0234 14.383 14.055 1.0938 1.2578 2.1875 2.5156 3.2812 3.8281 0.54688 0.65625 1.0391 1.3125 1.5859 1.9688 2.0234 2.5156-2.2969-3.1172-0.38281-0.49219 1.9688 2.7344 3.9375 5.4688 5.7422 8.3125 4.2109 6.6172 7.875 13.562 10.938 20.836-0.54688-1.3125-1.0938-2.625-1.6406-3.9375 4.6484 11.156 7.8203 22.859 9.4609 34.836-0.21875-1.4766-0.38281-2.8984-0.60156-4.375 1.5859 12.195 1.5312 24.5-0.10938 36.641 0.21875-1.4766 0.38281-2.8984 0.60156-4.375-1.6953 12.031-4.9219 23.734-9.625 34.891l1.6406-3.9375c-3.0078 7-6.5625 13.781-10.719 20.234-0.98438 1.5312-2.0234 3.0625-3.0625 4.5938-0.60156 0.875-1.2031 1.6953-1.8047 2.5703-0.76562 1.0391-3.1719 4.0469 0.21875-0.16406-2.3516 2.9531-4.7578 5.8516-7.3281 8.6953-2.5703 2.7891-5.25 5.4688-8.0391 8.0391-1.3672 1.2578-2.7344 2.4609-4.1016 3.6094-0.71094 0.60156-1.4219 1.2031-2.1328 1.75-0.65625 0.54688-3.5 2.7344-1.0938 0.92969 2.3516-1.8047-0.21875 0.16406-0.82031 0.60156-0.71094 0.54688-1.4766 1.0938-2.2422 1.5859-1.5859 1.1484-3.2266 2.2422-4.8672 3.2812-3.1172 2.0234-6.5078 3.7188-9.625 5.7969-14.602 9.7891-22.641 27.672-22.641 44.953v23.898 16.188c0 2.7344 0.16406 5.4688-0.10938 8.2031 0.21875-1.4766 0.38281-2.8984 0.60156-4.375-0.16406 0.98438-0.38281 1.8594-0.71094 2.7891 0.54687-1.3125 1.0938-2.625 1.6406-3.9375-0.054687 0.054687-0.875 1.9141-0.98437 1.8594-0.10938-0.054688 3.1172-3.6094 1.0391-1.4219-1.3672 1.4219-1.2031-0.21875 1.4219-1.0391-0.60156 0.16406-1.2578 0.71094-1.8594 0.98438 1.3125-0.54688 2.625-1.0938 3.9375-1.6406-0.92969 0.32813-1.8047 0.54688-2.7891 0.71094 1.4766-0.21875 2.8984-0.38281 4.375-0.60156-2.8984 0.27344-5.9062 0.10937-8.8047 0.10937h-18.812-42.109c-3.5547 0-7.2188 0.27344-10.773-0.10937 1.4766 0.21875 2.8984 0.38281 4.375 0.60156-0.98438-0.16406-1.8594-0.38281-2.7891-0.71094 1.3125 0.54688 2.625 1.0938 3.9375 1.6406-0.054687-0.054688-1.9141-0.875-1.8594-0.98438 0.054688-0.10937 3.6094 3.1172 1.4219 1.0391-1.4219-1.3672 0.21875-1.2031 1.0391 1.4219-0.16406-0.60156-0.71094-1.2578-0.98438-1.8594 0.54688 1.3125 1.0938 2.625 1.6406 3.9375-0.32813-0.92969-0.54688-1.8047-0.71094-2.7891 0.21875 1.4766 0.38281 2.8984 0.60156 4.375-0.54687-5.5781-0.10937-11.32-0.10937-16.953v-25.812c-0.054688-2.0234-0.054688-4.0469-0.054688-6.125 0-8.5859-7.5469-16.789-16.406-16.406-8.9141 0.38281-16.406 7.2188-16.406 16.406v42.875c0 1.8594-0.054688 3.7734 0.054688 5.6328 0.92969 12.141 9.2969 23.789 21.875 25.977 5.5234 0.92969 11.102 0.65625 16.68 0.65625h53.047c4.5391 0 9.0781 0.10938 13.617 0 10.062-0.27344 20.07-5.6328 24.609-14.875 2.4062-4.8672 3.2266-9.9531 3.2266-15.312 0-14.875-0.054687-29.695 0-44.57 0-1.5859 0.10938-3.1719 0.27344-4.7578-0.21875 1.4766-0.38281 2.8984-0.60156 4.375 0.54688-3.8828 1.5859-7.6016 3.0625-11.211l-1.6406 3.9375c1.2578-2.9531 2.9531-5.4688 4.5938-8.1484-2.4609 3.9922-1.6406 2.0781-0.65625 0.98438 0.49219-0.54688 1.0391-1.0938 1.5312-1.5859 1.1484-1.0938 2.8984-1.6953-1.0938 0.71094 0.82031-0.49219 1.5859-1.0391 2.4062-1.5312 5.4688-3.1719 10.773-6.4531 15.859-10.227 11.266-8.4219 21.383-17.773 30.023-28.93 9.4609-12.195 16.789-24.992 22.586-39.32 5.4141-13.453 8.4219-27.562 9.8438-41.945 2.6797-27.07-2.625-54.25-13.891-78.859-10.828-23.625-28.219-43.586-48.945-59.062-41.617-30.953-99.531-37.953-147.38-18.047-23.844 9.9531-45.391 25.156-61.523 45.5-16.242 20.508-27.891 44.461-32.102 70.438-2.3516 14.656-3.0625 29.367-1.1484 44.133 2.1328 16.953 6.6719 32.867 13.891 48.398 6.6719 14.273 15.969 27.508 26.742 38.992 5.9609 6.3984 12.578 11.977 19.469 17.281 5.7422 4.375 11.867 8.0391 17.938 11.977 2.625 1.6953-3.0625-2.6797-0.76562-0.60156 0.60156 0.54688 1.2031 1.0391 1.8047 1.5859 1.1484 1.0938 2.1328 2.4062 3.2266 3.5-3.2266-3.3359-1.5312-1.9688-0.71094-0.76563 0.4375 0.65625 0.875 1.3125 1.2578 2.0234 0.82031 1.3672 1.4766 2.7891 2.1328 4.2656-0.54687-1.3125-1.0938-2.625-1.6406-3.9375 1.3125 3.2266 2.2422 6.5625 2.7344 10.008-0.21875-1.4766-0.38281-2.8984-0.60156-4.375 0.16406 1.6406 0.27344 3.2266 0.32812 4.8672 0.10938 8.5859 7.4922 16.789 16.406 16.406 8.6953-0.4375 16.406-7.2734 16.297-16.461z"/>
  <path d="m329.88 57.969v40.141c0 8.5859 7.5469 16.789 16.406 16.406 8.9141-0.38281 16.406-7.2188 16.406-16.406v-40.141c0-8.5859-7.5469-16.789-16.406-16.406-8.8594 0.4375-16.406 7.2188-16.406 16.406z"/>
  <path d="m185.77 110.03 28.82 28.82c6.0703 6.0703 17.227 6.5078 23.188 0 6.0156-6.5625 6.5078-16.734 0-23.188l-28.82-28.82c-6.0703-6.0703-17.227-6.5078-23.188 0-6.0156 6.5078-6.5078 16.68 0 23.188z"/>
  <path d="m483.6 86.789c-9.625 9.625-19.195 19.195-28.82 28.82-6.0703 6.0703-6.5078 17.227 0 23.188 6.5625 6.0156 16.734 6.5078 23.188 0 9.625-9.625 19.195-19.195 28.82-28.82 6.0703-6.0703 6.5078-17.227 0-23.188-6.5078-6.0156-16.68-6.4531-23.188 0z"/>
  <path d="m296.19 459.65h33.688 54.086 12.414c8.5859 0 16.789-7.5469 16.406-16.406-0.38281-8.9141-7.2188-16.406-16.406-16.406h-33.688-54.086-12.414c-8.5859 0-16.789 7.5469-16.406 16.406 0.38281 8.9141 7.2188 16.406 16.406 16.406z"/>
  <path d="m396.43 426.84h-33.688-54.086-12.414c-8.5859 0-16.789 7.5469-16.406 16.406 0.38281 8.9141 7.2188 16.406 16.406 16.406h33.688 54.086 12.414c8.5859 0 16.789-7.5469 16.406-16.406-0.4375-8.8594-7.2188-16.406-16.406-16.406z"/>
  <path d="m362.69 443.24v-36.477-58.133-13.344c0-8.5859-7.5469-16.789-16.406-16.406-8.9141 0.38281-16.406 7.2188-16.406 16.406v36.477 58.133 13.344c0 8.5859 7.5469 16.789 16.406 16.406 8.9141-0.38281 16.406-7.2188 16.406-16.406z"/>
  <path d="m366.57 291.92c-10.609 10.609-21.219 21.219-31.883 31.883h23.188c-10.609-10.609-21.219-21.219-31.883-31.883-6.0703-6.0703-17.227-6.5078-23.188 0-6.0156 6.5625-6.5078 16.734 0 23.188 10.609 10.609 21.219 21.219 31.883 31.883 6.2891 6.2891 16.898 6.2891 23.188 0 10.609-10.609 21.219-21.219 31.883-31.883 6.0703-6.0703 6.5078-17.227 0-23.188-6.5625-6.0156-16.734-6.5078-23.188 0z"/>
  <path d="m117.74 223.02c11.594 5.25 23.188 10.445 34.727 15.695 4.1562 1.8594 8.0938 2.8984 12.633 1.6406 3.8281-1.0391 7.9297-3.9922 9.7891-7.5469 3.7734-7.1641 2.4609-18.703-5.9062-22.422-11.594-5.25-23.188-10.445-34.727-15.695-4.1562-1.8594-8.0938-2.8984-12.633-1.6406-3.8281 1.0391-7.9297 3.9922-9.7891 7.5469-3.7734 7.1641-2.4609 18.648 5.9062 22.422z"/>
  <path d="m538.67 240.35c13.234-5.25 26.469-10.445 39.648-15.695 4.1016-1.6406 7.4922-3.6094 9.7891-7.5469 2.0781-3.5 2.9531-8.6953 1.6406-12.633-1.2578-3.9922-3.7188-7.8203-7.5469-9.7891-3.6641-1.9141-8.6406-3.2266-12.633-1.6406-13.234 5.25-26.469 10.445-39.648 15.695-4.1016 1.6406-7.4922 3.6094-9.7891 7.5469-2.0781 3.5-2.9531 8.6953-1.6406 12.633 1.2578 3.9922 3.7188 7.8203 7.5469 9.7891 3.6641 1.9141 8.6406 3.2266 12.633 1.6406z"/>
  <use x="70" y="568.203125" xlink:href="#v"/>
  <use x="72.007812" y="568.203125" xlink:href="#f"/>
  <use x="73.355469" y="568.203125" xlink:href="#a"/>
  <use x="75.210937" y="568.203125" xlink:href="#e"/>
  <use x="77.054688" y="568.203125" xlink:href="#d"/>
  <use x="78.363281" y="568.203125" xlink:href="#a"/>
  <use x="80.214844" y="568.203125" xlink:href="#k"/>
  <use x="83.125" y="568.203125" xlink:href="#j"/>
  <use x="85.082031" y="568.203125" xlink:href="#i"/>
  <use x="87.816406" y="568.203125" xlink:href="#c"/>
  <use x="89.445312" y="568.203125" xlink:href="#b"/>
  <use x="91.390625" y="568.203125" xlink:href="#e"/>
  <use x="93.238281" y="568.203125" xlink:href="#c"/>
  <use x="94.863281" y="568.203125" xlink:href="#b"/>
  <use x="96.8125" y="568.203125" xlink:href="#e"/>
  <use x="98.65625" y="568.203125" xlink:href="#h"/>
  <use x="100.601562" y="568.203125" xlink:href="#u"/>
  <use x="103.375" y="568.203125" xlink:href="#c"/>
  <use x="105" y="568.203125" xlink:href="#t"/>
  <use x="105.9375" y="568.203125" xlink:href="#h"/>
  <use x="107.882812" y="568.203125" xlink:href="#s"/>
  <use x="109.84375" y="568.203125" xlink:href="#b"/>
  <use x="70" y="570.9375" xlink:href="#r"/>
  <use x="71.191406" y="570.9375" xlink:href="#f"/>
  <use x="72.539062" y="570.9375" xlink:href="#g"/>
  <use x="74.417969" y="570.9375" xlink:href="#q"/>
  <use x="78.21875" y="570.9375" xlink:href="#d"/>
  <use x="79.523438" y="570.9375" xlink:href="#b"/>
  <use x="81.472656" y="570.9375" xlink:href="#a"/>
  <use x="84.277344" y="570.9375" xlink:href="#p"/>
  <use x="86.566406" y="570.9375" xlink:href="#g"/>
  <use x="88.445312" y="570.9375" xlink:href="#o"/>
  <use x="90.390625" y="570.9375" xlink:href="#h"/>
  <use x="93.289062" y="570.9375" xlink:href="#n"/>
  <use x="95.292969" y="570.9375" xlink:href="#f"/>
  <use x="96.644531" y="570.9375" xlink:href="#g"/>
  <use x="98.519531" y="570.9375" xlink:href="#m"/>
  <use x="99.457031" y="570.9375" xlink:href="#a"/>
  <use x="101.3125" y="570.9375" xlink:href="#l"/>
  <use x="102.933594" y="570.9375" xlink:href="#d"/>
 </g>
</svg>
