<svg width="26" height="30" viewBox="0 0 26 30" fill="none" xmlns="http://www.w3.org/2000/svg">
<path d="M13.6329 21.2987C13.6329 21.3217 13.6264 21.3511 13.6296 21.374C13.61 21.1809 13.6624 21.1973 13.6395 21.2857C13.6296 21.3184 13.5642 21.4951 13.6264 21.3446C13.6885 21.194 13.6002 21.3773 13.5773 21.4133C13.5413 21.4722 13.4955 21.4624 13.6362 21.3413C13.6067 21.3675 13.5838 21.4035 13.5576 21.4296C13.5184 21.4689 13.4726 21.4984 13.4366 21.5376C13.4464 21.5278 13.6067 21.4231 13.4987 21.4853C13.4726 21.4984 13.4497 21.518 13.4268 21.5311C13.3744 21.5605 13.322 21.5867 13.2697 21.6162C13.1257 21.6914 13.4202 21.5638 13.3155 21.5965C13.2795 21.6096 13.2402 21.6227 13.2042 21.6358C13.1355 21.6587 13.0635 21.6751 12.9915 21.6914C12.9588 21.698 12.9261 21.7045 12.8933 21.7111C12.7853 21.7307 13.0701 21.6947 12.9588 21.7013C12.8803 21.7045 12.8017 21.7111 12.7232 21.7111C12.6774 21.7111 12.4843 21.6751 12.4548 21.698C12.4679 21.6882 12.661 21.7373 12.517 21.7045C12.4843 21.698 12.4516 21.6914 12.4156 21.6849C12.3501 21.6718 12.2879 21.6522 12.2225 21.6325C12.193 21.6227 12.1603 21.6096 12.1309 21.5998C12 21.5573 12.1865 21.6162 12.193 21.626C12.1538 21.5834 12.0425 21.5507 11.9901 21.518C11.964 21.5016 11.9411 21.4853 11.9149 21.4689C11.784 21.3838 12.0327 21.5802 11.9607 21.5049C11.9214 21.4656 11.8789 21.4264 11.8396 21.3871C11.7774 21.3216 11.8102 21.2857 11.8789 21.4427C11.8691 21.4198 11.8462 21.3969 11.8363 21.3773C11.8233 21.3544 11.8102 21.3315 11.7971 21.3086C11.7284 21.1907 11.8593 21.5049 11.8102 21.3216C11.7742 21.194 11.8298 21.3576 11.8102 21.3642V21.266C11.8069 21.1384 11.8069 21.3773 11.7938 21.374C11.7905 21.374 11.8069 21.3118 11.8102 21.302C11.8167 21.2791 11.8233 21.2562 11.8298 21.23C11.8658 21.0926 11.7447 21.3904 11.7971 21.3053C11.8265 21.2595 11.8625 21.2071 11.8854 21.158C11.8036 21.3282 11.784 21.2758 11.8429 21.2169C11.8625 21.1973 11.8789 21.1777 11.8985 21.158C11.9182 21.1384 11.9378 21.122 11.9574 21.1024C12.0261 21.0369 12.0523 21.0828 11.9083 21.1384C11.9574 21.1188 12.0065 21.0729 12.0556 21.0468C12.0818 21.0337 12.108 21.0173 12.1341 21.0042C12.1538 20.9944 12.1734 20.9846 12.1963 20.9748C12.252 20.9486 12.2225 20.9617 12.108 21.0108C12.2258 21.001 12.3567 20.929 12.4777 20.9028C12.5007 20.8995 12.553 20.8962 12.5759 20.8864C12.4319 20.9519 12.4385 20.9028 12.5367 20.8962C12.6152 20.8897 12.697 20.8897 12.7788 20.8897C12.8279 20.8897 12.8737 20.893 12.9228 20.8962C13.0602 20.9061 12.9621 20.9257 12.8999 20.8897C12.9686 20.9257 13.0864 20.9257 13.1617 20.9486C13.1944 20.9584 13.2271 20.9682 13.2599 20.9813C13.2828 20.9911 13.309 20.9977 13.3319 21.0075C13.3908 21.0304 13.3646 21.0206 13.2533 20.9748C13.3188 21.0206 13.4006 21.05 13.4693 21.0959C13.4988 21.1155 13.5249 21.1384 13.5544 21.1548C13.3842 21.0566 13.4857 21.1024 13.538 21.1548C13.5609 21.1777 13.5806 21.2006 13.6035 21.2235C13.7049 21.3315 13.5151 21.0664 13.5871 21.2071C13.6002 21.2333 13.6166 21.2595 13.6329 21.2857C13.7016 21.4067 13.5871 21.1417 13.61 21.2333C13.6166 21.2562 13.646 21.3151 13.6395 21.338C13.6329 21.2955 13.6297 21.2497 13.6231 21.2071C13.6329 21.2398 13.6329 21.2693 13.6329 21.2987C13.6427 21.7274 14.0027 22.1365 14.4511 22.1169C14.8863 22.0972 15.2823 21.7569 15.2692 21.2987C15.243 20.2417 14.3267 19.4825 13.3384 19.3124C12.4287 19.1586 11.4109 19.332 10.7368 20.0094C10.4095 20.3399 10.2164 20.7587 10.1837 21.2202C10.1477 21.7307 10.3899 22.2444 10.7498 22.5946C11.4403 23.272 12.4777 23.4487 13.4006 23.2655C14.3627 23.0757 15.2462 22.323 15.2692 21.2922C15.279 20.8635 14.8863 20.4544 14.451 20.474C13.9994 20.5002 13.6427 20.8406 13.6329 21.2987L13.6329 21.2987Z" fill="black"/>
<path d="M22.8289 28.3604H22.1614H20.3582H17.7501H14.6281H11.3393H8.16828H5.46193H3.50829C3.22686 28.3604 2.92252 28.331 2.6411 28.3604H2.62473C2.69673 28.3899 2.76545 28.4193 2.83745 28.4488C3.0207 28.4651 3.11888 28.5666 3.13524 28.7466C3.16469 28.8186 3.19415 28.8873 3.2236 28.9593C3.22687 28.9495 3.2236 28.9364 3.2236 28.9266C3.23669 28.7629 3.2236 28.596 3.2236 28.4324V26.9336C3.2236 26.8649 3.22687 26.7929 3.2236 26.7242C3.2236 26.7078 3.22687 26.6915 3.2236 26.6751V26.6653C3.2236 26.59 3.19415 26.6587 3.13524 26.878C3.03707 27.1136 3.0207 27.2936 2.62474 27.2641H2.67055C2.78509 27.2674 2.89963 27.2641 3.01416 27.2641H4.57184H7.01311H10.0434H13.3159H16.5491H19.3929H21.5625H22.7177C22.7505 27.2641 22.7832 27.2674 22.8159 27.2641H22.8323C22.9075 27.2641 22.8388 27.2347 22.6195 27.1758C22.5476 27.1463 22.4788 27.1169 22.4068 27.0874C22.3479 26.9467 22.289 26.806 22.2301 26.6653C22.2269 26.6784 22.2301 26.6914 22.2301 26.7045C22.2039 27.1332 22.2301 27.5717 22.2301 28.0037V28.6779C22.2301 28.7499 22.2269 28.8218 22.2301 28.8906C22.2301 28.9069 22.2269 28.9266 22.2301 28.9429V28.9527C22.2596 28.8808 22.289 28.812 22.3185 28.74C22.3643 28.4946 22.5344 28.367 22.8289 28.3604C22.6064 28.3833 22.4134 28.4357 22.2498 28.5993C22.109 28.74 22.0011 28.9757 22.0109 29.1785C22.0305 29.5843 22.3741 30.0425 22.829 29.9967C23.1006 29.9705 23.3231 29.905 23.5293 29.7185C23.7387 29.532 23.8369 29.2767 23.8598 29.0018C23.8631 28.9593 23.8631 28.92 23.8631 28.8775V28.2851V26.8158C23.8631 26.77 23.8664 26.7209 23.8631 26.6751C23.85 26.302 23.67 25.9584 23.3428 25.7686C23.1759 25.6705 22.9861 25.6345 22.793 25.6279C22.685 25.6246 22.577 25.6279 22.469 25.6279H20.8982H18.3981H15.2991H11.9415H8.6625H5.79907H3.68177C3.34471 25.6279 3.00439 25.6214 2.66731 25.6279C2.02266 25.6377 1.58739 26.1188 1.58739 26.7536V28.1804V28.8284C1.58739 28.8709 1.58412 28.9134 1.58739 28.956C1.60375 29.3781 1.83283 29.7447 2.22552 29.9116C2.41532 29.9901 2.58876 29.9999 2.78184 29.9999H4.06791H6.37173H9.36932H12.6941H16.0222H19.0165H21.34H22.6588H22.8289C23.2576 29.9999 23.6667 29.6236 23.6471 29.1818C23.6274 28.7367 23.2871 28.3604 22.8289 28.3604Z" fill="black"/>
<path d="M16.4309 5.34219C16.4309 5.45673 16.4277 5.57126 16.4178 5.68907C16.4146 5.74143 16.408 5.79707 16.4048 5.84942C16.4015 5.87888 16.3982 5.9116 16.3949 5.94105C16.4015 5.88542 16.4244 5.74471 16.4015 5.88215C16.3655 6.10794 16.3131 6.33047 16.2444 6.54648C16.2117 6.65448 16.1724 6.76247 16.1331 6.86719C16.1233 6.88682 16.1168 6.90973 16.107 6.92937C16.071 7.02427 16.1789 6.76574 16.1364 6.86065C16.107 6.92283 16.0808 6.985 16.0513 7.0439C15.9531 7.2468 15.8419 7.44315 15.7175 7.62968C15.6586 7.71804 15.5965 7.79985 15.5343 7.88493C15.6783 7.67876 15.5637 7.84566 15.5245 7.89475C15.4852 7.94056 15.4459 7.98637 15.4066 8.02892C15.2528 8.20236 15.0892 8.36271 14.9125 8.50997C14.8732 8.5427 14.8274 8.57215 14.7914 8.60815C14.798 8.6016 14.9583 8.48379 14.8503 8.56233C14.8274 8.57869 14.8012 8.59833 14.7783 8.61469C14.6867 8.68014 14.5951 8.73904 14.5002 8.79795C14.4053 8.85685 14.3104 8.90921 14.2122 8.96157C14.1664 8.98448 14.1206 9.00739 14.0715 9.03029C14.0453 9.04338 14.0191 9.0532 13.9897 9.06629C13.9046 9.10883 14.1926 8.98448 14.042 9.04338C13.8326 9.1252 13.6232 9.19392 13.4039 9.243C13.345 9.25609 13.2861 9.26918 13.2272 9.279C13.1912 9.28554 13.0047 9.31172 13.1585 9.29209C13.3057 9.27245 13.1257 9.29536 13.0865 9.29863C13.0243 9.30518 12.9654 9.30845 12.9032 9.31172C12.7887 9.31827 12.6741 9.31827 12.5563 9.31172C12.504 9.30845 12.4483 9.30518 12.396 9.30191C12.3534 9.29863 12.1244 9.27245 12.2782 9.29209C12.432 9.31172 12.2422 9.28554 12.2095 9.279C12.1505 9.26918 12.0916 9.25609 12.0327 9.243C11.9182 9.21682 11.8004 9.1841 11.6891 9.1481C11.591 9.11538 11.4928 9.07938 11.3979 9.04338C11.3422 9.02048 11.2932 8.97466 11.4699 9.07284C11.4437 9.05975 11.4142 9.04666 11.3881 9.03684C11.3357 9.01066 11.2801 8.98448 11.2277 8.9583C11.0314 8.85686 10.8416 8.74232 10.6616 8.61142C10.6125 8.57542 10.4554 8.43798 10.6485 8.60487C10.6092 8.57215 10.5667 8.53942 10.5274 8.5067C10.4358 8.43143 10.3474 8.34962 10.2623 8.26781C10.1838 8.18927 10.1053 8.10746 10.03 8.02564C9.99399 7.98638 9.96127 7.94711 9.92855 7.90783C9.90237 7.87511 9.78129 7.72457 9.86637 7.83257C9.95473 7.94711 9.84346 7.79984 9.82382 7.77039C9.78783 7.7213 9.7551 7.67221 9.72238 7.62313C9.65693 7.52168 9.59475 7.42024 9.53585 7.31552C9.48349 7.22389 9.4344 7.12899 9.38859 7.03736C9.36241 6.98173 9.33623 6.92937 9.31332 6.87374C9.3035 6.84756 9.26751 6.77229 9.31987 6.88683C9.3755 7.01772 9.32314 6.8901 9.31005 6.85737C9.22824 6.64466 9.15952 6.42868 9.10716 6.20614C9.08098 6.09488 9.05807 5.98361 9.04171 5.87235C9.00898 5.67601 9.05807 6.02943 9.04171 5.88544C9.03516 5.81672 9.02862 5.748 9.02207 5.67928C9.00571 5.44366 9.00571 5.20477 9.02534 4.96587C9.02862 4.91351 9.03516 4.86115 9.04171 4.80879C9.04825 4.71717 9.02534 4.9266 9.02534 4.91351C9.03189 4.88406 9.03516 4.85461 9.03843 4.82515C9.05807 4.70734 9.08098 4.59281 9.11043 4.475C9.16279 4.25901 9.25114 4.05939 9.31332 3.84997C9.24132 4.08886 9.28714 3.91215 9.31659 3.8467C9.3395 3.80089 9.35913 3.75507 9.38204 3.70926C9.4344 3.60781 9.49003 3.50636 9.54894 3.40819C9.6013 3.32311 9.65693 3.23802 9.71257 3.15621C9.72893 3.13331 9.85655 2.96314 9.76165 3.08422C9.67329 3.19549 9.79111 3.04822 9.81728 3.0155C9.958 2.84533 10.1151 2.68498 10.2787 2.53772C10.354 2.47227 10.4325 2.41009 10.5078 2.34464C10.3114 2.51481 10.4652 2.38064 10.5143 2.34464C10.5601 2.31192 10.6092 2.27919 10.6583 2.24647C10.8383 2.12866 11.0281 2.02394 11.2244 1.93231C11.2899 1.90286 11.4699 1.85705 11.2277 1.92904C11.2768 1.91595 11.3226 1.89304 11.3717 1.87341C11.483 1.83414 11.5942 1.79814 11.7055 1.76542C11.8135 1.73596 11.9215 1.70978 12.0295 1.68688C12.0818 1.67706 12.1309 1.66724 12.1833 1.65742C12.2062 1.65415 12.2291 1.65088 12.2487 1.64761C12.4123 1.62143 12.0884 1.66397 12.1865 1.65742C12.4222 1.63779 12.6578 1.62143 12.8967 1.63124C13.0014 1.63452 13.1094 1.64433 13.2141 1.65415C13.3483 1.66724 13.1388 1.64433 13.1323 1.64106C13.1617 1.64761 13.1912 1.65088 13.2206 1.65415C13.2795 1.66397 13.3384 1.67379 13.3973 1.68688C13.6199 1.73269 13.8391 1.79487 14.0551 1.87341C14.1009 1.88977 14.15 1.91595 14.1991 1.92904C14.1925 1.92577 14.006 1.84395 14.1238 1.89631C14.1435 1.90613 14.1631 1.91268 14.1827 1.92249C14.2874 1.97158 14.3922 2.02394 14.4936 2.07957C14.5885 2.13193 14.6801 2.18757 14.7718 2.24647C14.8143 2.27265 14.8568 2.3021 14.8961 2.33156C14.9485 2.36755 15.1219 2.51482 14.919 2.34465C15.0826 2.48537 15.2463 2.61954 15.3968 2.77662C15.4721 2.85515 15.5441 2.93369 15.6128 3.01551C15.6455 3.05478 15.675 3.09405 15.7077 3.13332C15.7011 3.12677 15.5833 2.96642 15.6586 3.07114C15.675 3.09405 15.6913 3.11695 15.7077 3.13986C15.8353 3.32312 15.9531 3.51292 16.0513 3.71254C16.0742 3.75835 16.0971 3.80417 16.1168 3.84999C16.1462 3.91544 16.192 4.09215 16.12 3.85326C16.1495 3.95798 16.1986 4.05942 16.2313 4.16087C16.3033 4.38013 16.3556 4.60265 16.3916 4.82844C16.3949 4.85789 16.3982 4.88734 16.4047 4.9168C16.408 4.92989 16.3818 4.72045 16.3884 4.81208C16.3916 4.86444 16.3982 4.9168 16.4047 4.96915C16.4276 5.09678 16.4309 5.2211 16.4309 5.34219C16.4342 5.77089 16.8072 6.17997 17.249 6.16034C17.6908 6.14071 18.0704 5.80037 18.0672 5.34222C18.0606 4.2623 17.7366 3.16604 17.1018 2.28574C16.4472 1.376 15.5702 0.705142 14.5198 0.312416C12.4811 -0.446826 10.0234 0.214243 8.64574 1.89954C7.91923 2.78636 7.49054 3.83032 7.39893 4.97564C7.31057 6.07519 7.60182 7.21399 8.1483 8.16628C8.67844 9.09894 9.49331 9.91377 10.4554 10.3948C11.5059 10.9184 12.6774 11.082 13.826 10.8268C15.9663 10.3523 17.6679 8.38881 17.9919 6.24536C18.0377 5.9443 18.0704 5.64326 18.0704 5.34215C18.0737 4.91345 17.6941 4.50439 17.2523 4.52402C16.804 4.54366 16.4342 4.88399 16.4309 5.34215L16.4309 5.34219Z" fill="black"/>
<path d="M23.8561 16.2753C23.7317 17.0411 23.6107 17.8068 23.4863 18.5726C23.2474 20.0518 23.0118 21.5277 22.7729 23.0068C22.6158 23.9885 22.4587 24.9703 22.2984 25.9521C22.2951 25.9684 22.2788 26.0208 22.2853 26.0339C22.2918 26.0437 22.2035 26.2171 22.3115 25.9815C22.3966 25.7983 22.5209 25.7164 22.7042 25.6674C22.7533 25.6543 22.8056 25.6412 22.8547 25.6281H22.8514C22.8154 25.6215 22.7696 25.6281 22.7336 25.6281H22.0202H19.0848H14.8502H10.2229H6.07021H3.27223H2.65373H2.5981H2.58828H2.58501C2.82063 25.6085 2.86644 25.6903 2.99407 25.8146C3.03006 25.8506 3.17078 25.9652 3.15769 26.0404C3.16751 25.9881 3.13806 25.9095 3.12824 25.8572C2.95807 24.7903 2.78463 23.7202 2.61447 22.6534C2.37885 21.1939 2.1465 19.7311 1.91087 18.2716C1.82906 17.7643 1.74725 17.2571 1.66544 16.7498C1.6458 16.6189 1.62289 16.4913 1.60326 16.3604C1.59998 16.3342 1.59671 16.3081 1.59017 16.2819V16.2753C1.57708 16.2328 1.5509 12.8392 1.59344 16.4488C1.59344 16.5077 1.59344 16.5666 1.59671 16.6222C1.5509 16.8218 1.42981 16.9364 1.23347 16.9658C-0.0689954 17.509 0.965125 17.0444 1.02403 17.0542C1.13857 17.0738 1.27274 17.0542 1.39055 17.0542H2.28718H5.32732H9.50298H14.1106H18.5514H22.1183H24.1702C24.2356 17.0542 24.2978 17.0574 24.3632 17.0542C24.3796 17.0542 24.396 17.0574 24.4123 17.0542H24.4221H24.4254C24.504 17.0542 24.432 17.0247 24.2127 16.9658C24.1407 16.9364 24.072 16.9069 24 16.8775C23.8953 16.7662 23.8396 16.6353 23.8266 16.4913C23.8036 16.92 24.2192 17.3291 24.6447 17.3094C25.1061 17.2898 25.4399 16.9495 25.4628 16.4913C25.4955 15.8826 24.9785 15.4376 24.3993 15.4212H24.2291H23.4797H20.6033H16.4767H11.8101H7.2614H3.55039H1.34148C1.23676 15.4212 1.12877 15.4179 1.02405 15.4212C0.752436 15.431 0.487365 15.5259 0.294311 15.7223C0.0194209 15.9939 -0.0362055 16.3408 0.0194212 16.7106C0.0226937 16.7269 0.0259661 16.7433 0.0259661 16.7597C0.0456006 16.8742 0.061963 16.9887 0.0815981 17.1065C0.274676 18.3141 0.471021 19.5216 0.664099 20.7292C0.896444 22.169 1.12551 23.6089 1.35788 25.0488C1.42333 25.4645 1.49205 25.8801 1.5575 26.2957C1.56731 26.3578 1.57386 26.42 1.58695 26.4789C1.69821 26.9632 2.15308 27.2578 2.62762 27.2676C3.19048 27.2807 3.7566 27.2676 4.32275 27.2676H7.91592H12.481H17.0952H20.8225H22.7663C23.2899 27.2676 23.7906 26.96 23.879 26.4135C23.9346 26.0732 23.987 25.7361 24.0426 25.3958C24.2684 23.9984 24.4909 22.6044 24.7168 21.207C24.9229 19.9176 25.1324 18.6251 25.3386 17.3357C25.3713 17.1263 25.404 16.9201 25.44 16.7107C25.476 16.4881 25.476 16.282 25.3582 16.0791C25.26 15.9089 25.0637 15.7486 24.8706 15.7027C24.4713 15.6144 23.9281 15.8205 23.8561 16.2754L23.8561 16.2753Z" fill="black"/>
<path d="M19.9257 15.4213H18.4957H15.0563H10.897H7.30049C6.71799 15.4213 6.13224 15.4017 5.54971 15.4213H5.52353C5.78533 15.7649 6.0504 16.1118 6.31221 16.4554C6.35803 16.2231 6.40384 15.9907 6.44966 15.7584C6.46602 15.6799 6.48238 15.6013 6.50529 15.5228C6.52165 15.4639 6.54129 15.405 6.56092 15.3461C6.56747 15.3232 6.57728 15.3035 6.58383 15.2806C6.62964 15.1563 6.59037 15.2773 6.56092 15.3264C6.67546 15.1268 6.76709 14.9239 6.90126 14.7341C6.97652 14.6261 6.86526 14.7832 6.85544 14.793C6.87508 14.7734 6.89471 14.7439 6.91435 14.7243C6.95034 14.685 6.98307 14.6458 7.01907 14.6065C7.10088 14.5181 7.18924 14.4363 7.28414 14.3578C7.4314 14.2334 7.16633 14.4396 7.28087 14.361C7.32995 14.3251 7.37904 14.2923 7.4314 14.2596C7.53612 14.1942 7.64084 14.1353 7.7521 14.0829C7.77828 14.0698 7.81101 14.06 7.83719 14.0436C7.84373 14.0404 7.66701 14.1123 7.74883 14.0829C7.80119 14.0633 7.85027 14.0436 7.90263 14.0273C7.95172 14.0109 8.00408 13.9945 8.05644 13.9814C8.13825 13.9585 8.22334 13.9324 8.30514 13.9095C8.77638 13.7753 9.24761 13.6411 9.71885 13.5069C9.96101 13.4382 10.1999 13.3695 10.4421 13.3008C10.5239 13.2779 10.6057 13.255 10.6842 13.2321C10.7562 13.2124 10.8282 13.1895 10.9035 13.1731C10.9362 13.1666 11.1522 13.1142 11.0246 13.147C10.9068 13.1731 11.0246 13.147 11.0606 13.1437C11.1097 13.1404 11.1587 13.1372 11.2046 13.1372C12.1699 13.1142 13.1386 13.1372 14.1039 13.1372C14.1629 13.1372 14.2218 13.1372 14.2807 13.1404C14.3363 13.1437 14.4345 13.1306 14.4836 13.1568C14.3919 13.1077 14.3527 13.1339 14.4377 13.1535C14.4737 13.1633 14.513 13.1699 14.5523 13.1764C14.6308 13.1961 14.7094 13.219 14.7846 13.2419C15.0104 13.3073 15.233 13.3695 15.4588 13.435C15.8842 13.556 16.3063 13.6771 16.7317 13.7982C16.9543 13.8604 17.1768 13.9258 17.3993 13.988C17.4418 14.0011 17.4877 14.0142 17.5302 14.0273C17.5826 14.0436 17.6316 14.0633 17.684 14.0829C17.7495 14.1058 17.7625 14.1484 17.6186 14.0534C17.6513 14.0731 17.6905 14.0862 17.7233 14.1025C17.828 14.1516 17.9262 14.2073 18.0243 14.2694C18.0702 14.2989 18.1127 14.3283 18.1552 14.3578C18.2992 14.4625 18.0342 14.2563 18.1683 14.3676C18.2567 14.4396 18.3385 14.5181 18.417 14.6C18.453 14.6392 18.489 14.6785 18.525 14.7178C18.5447 14.7407 18.5643 14.7636 18.5839 14.7865C18.6494 14.8618 18.4727 14.6327 18.5545 14.7472C18.6854 14.937 18.7934 15.1334 18.8948 15.3395C18.7835 15.1105 18.8752 15.3003 18.8948 15.3592C18.9112 15.4115 18.9275 15.4606 18.9439 15.513C18.9701 15.5981 18.9897 15.6864 19.0061 15.7748C19.0323 15.9024 19.0584 16.0333 19.0813 16.1609C19.101 16.2624 19.1206 16.3638 19.1402 16.4653C19.2221 16.8874 19.7489 17.1656 20.1482 17.0379C20.5965 16.8939 20.8092 16.4816 20.7209 16.03C20.675 15.7977 20.6292 15.562 20.5834 15.3297C20.482 14.829 20.2693 14.3316 19.9682 13.9193C19.6148 13.4382 19.1828 13.0227 18.6527 12.7379C18.3418 12.571 18.0113 12.4565 17.6742 12.3616C17.1735 12.2176 16.6761 12.0769 16.1754 11.9329C15.5929 11.766 15.0039 11.5598 14.3985 11.5075C13.9272 11.4682 13.4462 11.4977 12.975 11.4977H11.3322C10.7039 11.4977 10.1181 11.6907 9.52253 11.8642C9.07747 11.9918 8.63241 12.1194 8.18739 12.2471C7.99431 12.3027 7.80124 12.355 7.60816 12.414C7.03875 12.5809 6.52824 12.8688 6.08321 13.255C5.6807 13.6052 5.34689 14.0633 5.13745 14.5575C4.97383 14.9371 4.88547 15.3134 4.80366 15.7159C4.78403 15.8239 4.76112 15.9286 4.74148 16.0366C4.64004 16.5504 4.96728 17.0707 5.53017 17.0707H6.96021H10.3996H14.5589H18.1554C18.7379 17.0707 19.3236 17.0838 19.9062 17.0707H19.9323C20.361 17.0707 20.7701 16.6943 20.7505 16.2526C20.7243 15.7944 20.384 15.4213 19.9258 15.4213L19.9257 15.4213Z" fill="black"/>
</svg>
