<svg width="31" height="33" viewBox="0 0 31 33" fill="none" xmlns="http://www.w3.org/2000/svg">
<path d="M29.1404 30.5508H28.385H26.3302H23.3052H19.6H15.5405H11.4416H7.63622H4.40362H2.08031C1.71517 30.5508 1.34644 30.5436 0.98131 30.5508H0.934772C0.465811 30.5508 0.0183344 30.9625 0.0398052 31.4458C0.0612846 31.929 0.433585 32.3407 0.934772 32.3407H1.69011H3.74496H6.76993H10.4751H14.5346H18.6335H22.4389H25.6715H27.9948C28.36 32.3407 28.7287 32.3479 29.0938 32.3407H29.1404C29.6093 32.3407 30.0568 31.929 30.0353 31.4458C30.0139 30.9625 29.6415 30.5508 29.1404 30.5508Z" fill="black"/>
<path d="M29.5914 13.3282C29.1188 13.0812 28.6463 12.8378 28.1738 12.5908C27.0461 12.0037 25.9185 11.4166 24.7873 10.8295C23.427 10.1207 22.063 9.41544 20.7027 8.70664C19.5321 8.09807 18.358 7.48948 17.1873 6.87737C16.6289 6.5874 16.074 6.28312 15.5084 6.00387C15.1862 5.84636 14.8855 5.84636 14.5669 6.00387C14.5061 6.03609 14.4452 6.06831 14.3843 6.10053C14.0944 6.25089 13.8008 6.40482 13.5108 6.55517C12.4476 7.10647 11.3844 7.66131 10.3212 8.21261C8.968 8.91781 7.61128 9.61948 6.25809 10.3247C5.03379 10.962 3.81303 11.5956 2.58874 12.2328C1.91928 12.58 1.24989 12.9308 0.580431 13.2781C0.548212 13.296 0.515994 13.3103 0.487354 13.3282C0.211709 13.4714 0.043457 13.7972 0.043457 14.1014V16.4784C0.043457 16.9617 0.455141 17.3734 0.938424 17.3734H1.69377H3.74861H6.77358H10.4787H14.5383H18.6372H22.4426H25.6752H27.9985C28.3636 17.3734 28.7323 17.3805 29.0975 17.3734H29.144C29.6273 17.3734 30.039 16.9617 30.039 16.4784V14.1014C30.039 13.6325 29.6273 13.185 29.144 13.2065C28.6607 13.2279 28.249 13.6002 28.249 14.1014V16.4784C28.5462 16.1813 28.8469 15.8806 29.144 15.5834H28.3887H26.3338H23.3089H19.6037H15.5441H11.4452H7.63987H4.40727H2.08397C1.71883 15.5834 1.3501 15.5763 0.984962 15.5834H0.938424C1.23555 15.8806 1.53626 16.1813 1.83339 16.4784V14.1014C1.68662 14.3592 1.53626 14.6169 1.38949 14.8746C1.85487 14.6312 2.32027 14.3914 2.78922 14.1479C3.9133 13.5644 5.04091 12.9773 6.16499 12.3938C7.52177 11.6886 8.87849 10.9833 10.2353 10.2781C11.413 9.66595 12.5872 9.05381 13.765 8.44163C14.3342 8.1445 14.9142 7.86528 15.4726 7.55387C15.4797 7.55029 15.4869 7.54671 15.4976 7.54313H14.5955C15.0609 7.78656 15.5263 8.0264 15.9953 8.26986C17.1194 8.85338 18.247 9.44048 19.371 10.024C20.7278 10.7292 22.0845 11.4345 23.4413 12.1397C24.6191 12.7518 25.7933 13.3639 26.9711 13.9761C27.5402 14.2733 28.1059 14.5775 28.6786 14.8639C28.6858 14.8675 28.693 14.8711 28.7037 14.8746C29.119 15.0894 29.6953 14.9963 29.928 14.5524C30.1285 14.1408 30.0354 13.5573 29.5915 13.3282L29.5914 13.3282Z" fill="black"/>
<path d="M6.31493 16.4751V17.9607V21.5333V25.8721V29.5951C6.31493 30.2037 6.29345 30.8123 6.31493 31.4208V31.4459C6.61206 31.1488 6.91276 30.8481 7.20989 30.5509H4.24221H3.81979C4.11692 30.8481 4.41762 31.1488 4.71475 31.4459V29.9603V26.3876V22.0489V18.3259C4.71475 17.7173 4.73623 17.1087 4.71475 16.5001V16.4751C4.41763 16.7722 4.11692 17.0729 3.81979 17.37H6.78748H7.20989C7.67885 17.37 8.12633 16.9583 8.10486 16.4751C8.08338 15.9918 7.71108 15.5801 7.20989 15.5801H4.24221H3.81979C3.33651 15.5801 2.92482 15.9918 2.92482 16.4751V17.9607V21.5333V25.8721V29.5951C2.92482 30.2037 2.9105 30.8123 2.92482 31.4208V31.4459C2.92482 31.9292 3.3365 32.3409 3.81979 32.3409H6.78748H7.20989C7.69317 32.3409 8.10486 31.9292 8.10486 31.4459V29.9603V26.3876V22.0489V18.3259C8.10486 17.7173 8.11918 17.1087 8.10486 16.5001V16.4751C8.10486 16.0061 7.69318 15.5586 7.20989 15.5801C6.72304 15.6016 6.31493 15.9739 6.31493 16.4751Z" fill="black"/>
<path d="M25.3559 16.4751V17.9607V21.5333V25.8721V29.5951C25.3559 30.2037 25.3345 30.8123 25.3559 31.4208V31.4459C25.6531 31.1488 25.9538 30.8481 26.2509 30.5509H23.2832H22.8608C23.1579 30.8481 23.4586 31.1488 23.7558 31.4459V29.9603V26.3876V22.0489V18.3259C23.7558 17.7173 23.7772 17.1087 23.7558 16.5001V16.4751C23.4586 16.7722 23.1579 17.0729 22.8608 17.37H25.8285H26.2509C26.7199 17.37 27.1673 16.9583 27.1459 16.4751C27.1244 15.9918 26.7521 15.5801 26.2509 15.5801H23.2832H22.8608C22.3775 15.5801 21.9658 15.9918 21.9658 16.4751V17.9607V21.5333V25.8721V29.5951C21.9658 30.2037 21.9515 30.8123 21.9658 31.4208V31.4459C21.9658 31.9292 22.3775 32.3409 22.8608 32.3409H25.8285H26.2509C26.7342 32.3409 27.1459 31.9292 27.1459 31.4459V29.9603V26.3876V22.0489V18.3259C27.1459 17.7173 27.1602 17.1087 27.1459 16.5001V16.4751C27.1459 16.0061 26.7342 15.5586 26.2509 15.5801C25.7676 15.6016 25.3559 15.9739 25.3559 16.4751Z" fill="black"/>
<path d="M15.6943 12.183C15.6943 12.2152 15.6907 12.251 15.6907 12.2832C15.6907 12.4587 15.7265 12.1007 15.7015 12.2152C15.6871 12.2797 15.6764 12.3405 15.6549 12.4014C15.6442 12.4372 15.6227 12.4765 15.6155 12.5123C15.6191 12.4944 15.7158 12.3119 15.6478 12.4264C15.6155 12.4837 15.5439 12.566 15.526 12.6269C15.5296 12.6126 15.6728 12.4587 15.5797 12.5553C15.5583 12.5768 15.5368 12.6018 15.5153 12.6233C15.4723 12.6663 15.4186 12.7021 15.3757 12.7486C15.501 12.6054 15.5081 12.652 15.4437 12.6913C15.4151 12.7057 15.39 12.7271 15.365 12.7415C15.3327 12.7594 15.2934 12.7737 15.2611 12.7987C15.1752 12.8596 15.4652 12.7271 15.322 12.7737C15.254 12.7952 15.186 12.8166 15.1144 12.831C14.9067 12.8739 15.322 12.8202 15.1072 12.831C15.0356 12.8345 14.9533 12.8166 14.8817 12.8274C14.896 12.8274 15.1108 12.8739 14.9748 12.8381C14.9282 12.8274 14.8817 12.8166 14.8351 12.8023C14.8029 12.7916 14.7743 12.7844 14.7456 12.7737C14.6597 12.745 14.7134 12.7164 14.828 12.8095C14.7814 12.7701 14.7134 12.7522 14.6633 12.72C14.6418 12.7057 14.6096 12.677 14.5846 12.6663C14.7278 12.7236 14.717 12.7808 14.6562 12.72C14.5989 12.6663 14.5452 12.6126 14.4915 12.5553C14.3948 12.4551 14.5416 12.6126 14.5452 12.6269C14.5344 12.5947 14.4986 12.5589 14.4807 12.5302C14.4593 12.498 14.3698 12.294 14.4306 12.4479C14.4915 12.6054 14.4092 12.3692 14.3984 12.3298C14.3913 12.2976 14.3841 12.2653 14.3769 12.2367C14.3411 12.0756 14.3841 12.4551 14.3841 12.2797V12.0792C14.3877 11.936 14.3734 12.1579 14.3698 12.1687C14.3805 12.14 14.3805 12.1042 14.3877 12.072C14.402 12.0004 14.4271 11.9324 14.4485 11.8644C14.4843 11.7606 14.3555 12.0398 14.4163 11.9467C14.4378 11.9145 14.4521 11.8751 14.4736 11.8429C14.4915 11.8107 14.5201 11.7785 14.538 11.7427C14.5846 11.646 14.4091 11.8895 14.4843 11.8107C14.5344 11.7606 14.5774 11.7069 14.6311 11.6604C14.6526 11.6425 14.6848 11.621 14.7027 11.5995C14.692 11.6138 14.5165 11.7248 14.6347 11.6568C14.692 11.6246 14.7922 11.5888 14.8387 11.5422C14.828 11.553 14.6239 11.6174 14.7564 11.578C14.7886 11.5673 14.8173 11.5565 14.8459 11.5494C14.9068 11.5315 14.9748 11.5279 15.0356 11.5064C14.8531 11.5744 14.8638 11.5207 14.9461 11.5207C14.9891 11.5207 15.0285 11.5172 15.0714 11.5172C15.1036 11.5172 15.1394 11.5207 15.1717 11.5207C15.2826 11.5243 14.9533 11.4742 15.1036 11.51C15.1824 11.5279 15.2576 11.5494 15.3363 11.5744C15.4688 11.6138 15.2647 11.5494 15.254 11.5386C15.2826 11.5673 15.3435 11.5816 15.3793 11.6031C15.4079 11.6174 15.433 11.6389 15.458 11.6532C15.6012 11.7355 15.3041 11.51 15.4258 11.6281C15.4831 11.6818 15.5368 11.7355 15.5905 11.7928C15.6514 11.8572 15.5941 11.8644 15.5368 11.7212C15.5511 11.757 15.5941 11.8035 15.612 11.8393C15.6263 11.868 15.6406 11.8966 15.6585 11.9217C15.7373 12.0577 15.5941 11.7212 15.6442 11.8823C15.6657 11.9503 15.6872 12.0183 15.7015 12.0899C15.7265 12.2009 15.6657 12.183 15.6943 12.0219C15.68 12.0792 15.6943 12.1365 15.6943 12.183C15.7015 12.652 16.1024 13.0994 16.5893 13.078C17.069 13.0565 17.4914 12.6842 17.4842 12.183C17.4663 11.1162 16.8005 10.2177 15.8017 9.8597C14.9068 9.53751 13.8042 9.84538 13.1956 10.5757C12.5262 11.3776 12.383 12.5303 12.9343 13.4396C13.4856 14.3524 14.5345 14.7713 15.5691 14.5708C16.6895 14.356 17.4663 13.2892 17.4842 12.183C17.4914 11.714 17.069 11.2666 16.5893 11.288C16.0989 11.3095 15.7015 11.6818 15.6943 12.183Z" fill="black"/>
<path d="M15.8335 16.4751V17.9607V21.5333V25.8721V29.5951C15.8335 30.2037 15.812 30.8123 15.8335 31.4208V31.4459C16.1306 31.1488 16.4313 30.8481 16.7284 30.5509H13.7608H13.3383C13.6355 30.8481 13.9362 31.1488 14.2333 31.4459V29.9603V26.3876V22.0489V18.3259C14.2333 17.7173 14.2548 17.1087 14.2333 16.5001V16.4751C13.9362 16.7722 13.6355 17.0729 13.3383 17.37H16.306H16.7284C17.1974 17.37 17.6449 16.9583 17.6234 16.4751C17.6019 15.9918 17.2296 15.5801 16.7284 15.5801H13.7608H13.3383C12.8551 15.5801 12.4434 15.9918 12.4434 16.4751V17.9607V21.5333V25.8721V29.5951C12.4434 30.2037 12.4291 30.8123 12.4434 31.4208V31.4459C12.4434 31.9292 12.8551 32.3409 13.3383 32.3409H16.306H16.7284C17.2117 32.3409 17.6234 31.9292 17.6234 31.4459V29.9603V26.3876V22.0489V18.3259C17.6234 17.7173 17.6377 17.1087 17.6234 16.5001V16.4751C17.6234 16.0061 17.2117 15.5586 16.7284 15.5801C16.2452 15.6016 15.8335 15.9739 15.8335 16.4751Z" fill="black"/>
<path d="M19.6536 3.46242H15.6155H15.0355C15.3327 3.75955 15.6334 4.06025 15.9305 4.35739V1.33242V0.89568C15.6334 1.19281 15.3327 1.49351 15.0355 1.79065H19.0736H19.6536C19.3958 1.34317 19.1381 0.892079 18.8803 0.444661C18.6405 0.963738 18.3971 1.48279 18.1572 2.00189C18.1286 2.05916 18.0999 2.12002 18.0749 2.1773C17.9281 2.50307 17.9317 2.76797 18.0785 3.09014C18.0928 3.12235 18.1071 3.15099 18.1214 3.18321C18.261 3.48034 18.3971 3.77746 18.5367 4.07458C18.6512 4.32159 18.7658 4.56502 18.8803 4.81205C19.0772 5.23805 19.7252 5.37766 20.1046 5.13424C20.545 4.85143 20.638 4.36456 20.4268 3.90994C20.1583 3.33359 19.8899 2.75726 19.6213 2.17729V3.07939C19.8898 2.50303 20.1583 1.9267 20.4268 1.34673C20.5664 1.0496 20.5987 0.738157 20.4268 0.444629C20.2693 0.172565 19.9686 0.000732422 19.6536 0.000732422H15.6155H15.0356C14.5523 0.000732422 14.1406 0.412416 14.1406 0.895699V3.92066V4.35741C14.1406 4.84068 14.5523 5.25237 15.0356 5.25237H19.0737H19.6536C20.1226 5.25237 20.5701 4.84069 20.5486 4.35741C20.5271 3.87412 20.1547 3.46242 19.6536 3.46242Z" fill="black"/>
<path d="M15.9306 6.76661V1.61524V0.89571C15.9306 0.426749 15.5189 -0.0207281 15.0356 0.000742742C14.5523 0.0222221 14.1406 0.394523 14.1406 0.89571V6.04707V6.76661C14.1406 7.23557 14.5523 7.68304 15.0356 7.66157C15.5189 7.64009 15.9306 7.26779 15.9306 6.76661Z" fill="black"/>
</svg>
