<svg width="100" height="100" viewBox="0 0 100 100" fill="none" xmlns="http://www.w3.org/2000/svg">
<rect width="100" height="100" fill="#379AD6"/>
<path fill-rule="evenodd" clip-rule="evenodd" d="M69.137 71.7493L73.6 23H26L30.4622 71.7493L49.7999 77L69.137 71.7493Z" fill="white"/>
<path fill-rule="evenodd" clip-rule="evenodd" d="M65.4919 68.5748L69.1039 26.9485H49.7993V72.8122L49.8429 72.824L65.4919 68.5748Z" fill="white"/>
<path d="M34.6768 32.8404L35.5422 38.7859L50.5795 38.6768L36.0831 44.8404L36.4618 50.7313H57.0163L56.5295 58.4767L49.9304 60.4949L43.2231 58.6403L42.8445 54.004H36.9486L37.7058 63.1131L49.7681 66.6585L62.0468 63.2221L63.5613 44.8404H49.6599L64.1022 38.6768L64.5349 32.7859L34.6768 32.8404Z" fill="#379AD6"/>
</svg>
