<svg width="100" height="100" viewBox="0 0 100 100" fill="none" xmlns="http://www.w3.org/2000/svg">
<rect width="100" height="100" fill="#21609B"/>
<path d="M23.8129 34.0884C18.4988 42.0149 19.1571 52.3245 23.2197 60.7422C23.3123 60.9475 23.4149 61.1424 23.515 61.3374C23.5726 61.4725 23.6377 61.5973 23.7078 61.7246C23.7403 61.7974 23.7854 61.8727 23.8254 61.9403C23.8905 62.0754 23.9606 62.2054 24.0282 62.3353L24.4211 63.024C24.4937 63.1514 24.5638 63.2761 24.6464 63.4035C24.7841 63.6477 24.9468 63.8894 25.0895 64.1337C25.1546 64.2351 25.2146 64.3364 25.2872 64.4378C25.53 64.8337 25.7889 65.2187 26.0632 65.5917C26.2584 65.8698 26.4537 66.1401 26.6639 66.4103C26.7315 66.5091 26.8066 66.6078 26.8767 66.7066L27.4299 67.4057C27.4975 67.4863 27.565 67.5798 27.6376 67.663C27.8829 67.9696 28.1433 68.2685 28.4036 68.57C28.4036 68.5752 28.4111 68.5804 28.4161 68.5882C28.7331 69.0044 29.0886 69.3874 29.4774 69.7317C29.6777 69.9448 29.8779 70.1579 30.0907 70.3658L30.3435 70.6179C30.6213 70.8882 30.8992 71.1584 31.192 71.4183C31.197 71.4183 31.1995 71.4235 31.2045 71.4261L31.3472 71.5561C31.6025 71.7874 31.8604 72.0187 32.1232 72.2318L32.4361 72.5046C32.6488 72.6814 32.8691 72.8503 33.0869 73.0244L33.4273 73.2947C33.6601 73.4766 33.9079 73.6559 34.1457 73.8327C34.2333 73.8976 34.3209 73.9626 34.411 74.0224L34.4836 74.0821L35.187 74.5629L35.4874 74.7708C35.8553 75.0151 36.2208 75.2464 36.5837 75.4751C36.6888 75.5297 36.794 75.5895 36.8916 75.6519C37.1619 75.813 37.4423 75.9767 37.7151 76.1274C37.8653 76.2158 38.0205 76.2912 38.1757 76.3717C38.3634 76.4809 38.5587 76.5874 38.7589 76.6966C38.8073 76.7119 38.8543 76.7319 38.8991 76.7564C38.9817 76.7953 39.0593 76.8369 39.1394 76.8785C39.4397 77.0344 39.7526 77.1826 40.078 77.3307C40.1381 77.3567 40.2032 77.3827 40.2683 77.4191C40.6287 77.5828 40.9892 77.7387 41.3621 77.8921C41.4472 77.9181 41.5373 77.9622 41.625 77.996C41.9629 78.1286 42.3108 78.2637 42.6537 78.391L42.7789 78.4378C43.1619 78.573 43.5398 78.7029 43.9278 78.8277C44.0179 78.8536 44.1105 78.8874 44.2057 78.9134C44.6036 79.0382 44.9891 79.1863 45.3896 79.2669C71.0714 84.1267 78.5357 63.2345 78.5357 63.2345C72.2654 71.712 61.1391 73.947 50.6011 71.4599C50.2106 71.3663 49.8201 71.2364 49.4271 71.1169C48.9508 70.9709 48.4776 70.8141 48.0079 70.6465L47.8527 70.5841C47.5122 70.4645 47.1843 70.332 46.8514 70.1995C46.7609 70.1605 46.6691 70.1249 46.5761 70.0929C46.2081 69.9396 45.8502 69.781 45.4947 69.6173C45.4172 69.5913 45.3521 69.5549 45.2745 69.5238C44.9721 69.3792 44.6708 69.2319 44.3709 69.082C44.2782 69.0404 44.1956 68.9962 44.1055 68.9468C43.8702 68.8325 43.6349 68.7025 43.4047 68.5778C43.2465 68.4989 43.0904 68.4158 42.9366 68.3283C42.6537 68.1724 42.3709 68.0034 42.088 67.8423C42.0029 67.7799 41.9053 67.7279 41.8077 67.6708C41.4386 67.4439 41.0731 67.2108 40.7113 66.9717C40.6107 66.9067 40.5122 66.8382 40.416 66.7664C40.1503 66.5964 39.8899 66.4178 39.635 66.231C39.5474 66.1712 39.4673 66.1063 39.3772 66.0413C39.1285 65.8625 38.8832 65.6788 38.6413 65.4903C38.5361 65.402 38.4235 65.3188 38.3109 65.2305C38.0906 65.0511 37.8678 64.8796 37.6475 64.6899L37.3522 64.4456C37.0687 64.2082 36.7899 63.9647 36.5161 63.7153C36.4876 63.6864 36.4566 63.6603 36.4235 63.6374L35.5549 62.8161L35.3046 62.5718C35.0994 62.3561 34.8891 62.1482 34.6789 61.9351L34.4361 61.6752C34.1716 61.402 33.9137 61.1222 33.6626 60.8358L33.625 60.7942C33.3597 60.4927 33.1019 60.1861 32.8416 59.8742C32.774 59.7936 32.7114 59.7079 32.6413 59.6221L32.0756 58.9022C31.787 58.5181 31.5033 58.1299 31.2246 57.738C25.3798 49.4528 23.2647 38.0179 27.943 28.6386M40.3008 27.4119C36.4485 33.1528 36.6663 40.8298 39.665 46.9007C40.1606 47.9226 40.727 48.9059 41.3596 49.8426C41.9353 50.7003 42.5711 51.7138 43.3421 52.4051C43.6099 52.7222 43.9003 53.0288 44.2031 53.3381L44.4284 53.572C44.7138 53.8579 45.0066 54.1385 45.3045 54.4166L45.3421 54.4504C45.6796 54.7564 46.0252 55.0528 46.3783 55.3392C46.4634 55.399 46.536 55.4692 46.6186 55.5289C46.9691 55.8096 47.322 56.0799 47.6875 56.3476L47.725 56.371C47.8802 56.4879 48.0454 56.5945 48.2206 56.7088C48.2907 56.7556 48.3708 56.818 48.4459 56.8647C48.7112 57.0415 48.9716 57.2078 49.2394 57.3767C49.2819 57.3949 49.3195 57.4183 49.3595 57.4365C49.5848 57.5794 49.8301 57.7172 50.0654 57.8445C50.148 57.8965 50.2281 57.9355 50.3132 57.9848C50.4809 58.0706 50.6461 58.1616 50.8063 58.2499L50.8864 58.2863C51.2243 58.4578 51.5698 58.619 51.9077 58.7801C51.9928 58.8139 52.0654 58.8425 52.138 58.8788C52.4158 59.0036 52.6987 59.1231 52.9765 59.2349C53.1017 59.2791 53.2193 59.3311 53.337 59.37C53.5923 59.4688 53.8601 59.5597 54.1129 59.6507L54.4634 59.7677C54.8288 59.8846 55.1993 60.0379 55.5847 60.1029C75.4093 63.5152 80 47.6622 80 47.6622C75.8674 53.8371 67.87 56.779 59.3469 54.4816C58.97 54.3803 58.5961 54.2676 58.2255 54.1437C58.1054 54.11 58.0002 54.071 57.8851 54.0346C57.6248 53.941 57.3569 53.8501 57.1041 53.7513L56.7437 53.611C56.4633 53.494 56.178 53.3849 55.9051 53.2601C55.82 53.2211 55.7424 53.1952 55.6774 53.1562C55.3269 52.9924 54.974 52.8313 54.6336 52.6572L54.1179 52.3791L53.8201 52.2232C53.5898 52.0984 53.377 51.9685 53.1567 51.8334C53.1034 51.807 53.0516 51.7775 53.0015 51.745C52.7362 51.5735 52.4609 51.4071 52.2081 51.2304C52.123 51.181 52.0454 51.1213 51.9653 51.0693L51.4446 50.7159C51.0842 50.456 50.7312 50.1753 50.3758 49.905C50.2957 49.8296 50.2181 49.7673 50.1405 49.6997C46.3934 46.6408 43.4372 42.4593 42.0355 37.7242C40.5586 32.802 40.884 27.282 43.4347 22.8016M54.1655 22.4195C51.8927 25.8812 51.6749 30.1797 53.2393 33.9974C54.9014 38.0516 58.3006 41.2352 62.2605 42.7426C62.4232 42.8075 62.5809 42.8621 62.7486 42.9245L62.9689 42.9947C63.1992 43.07 63.432 43.1584 63.6698 43.213C74.6233 45.4064 77.587 37.3733 78.3855 36.1935C75.7773 40.0813 71.4043 41.0143 66.0402 39.6603C65.6026 39.5468 65.1714 39.408 64.7486 39.2445C64.223 39.0528 63.7075 38.8324 63.2042 38.5844C62.2516 38.105 61.3463 37.5306 60.5008 36.8692C55.6949 33.0904 52.7187 25.876 55.8526 20" fill="white"/>
</svg>
