<svg width="100" height="100" viewBox="0 0 100 100" fill="none" xmlns="http://www.w3.org/2000/svg">
<rect width="100" height="100" fill="#F0DB4F"/>
<path d="M35.4 30.6001H44.1V55.1001C44.1 66.1001 38.8 70.0001 30.4 70.0001C28.3 70.0001 25.7 69.7001 24 69.1001L25 62.0001C26.2 62.4001 27.8 62.7001 29.5 62.7001C33.2 62.7001 35.5 61.0001 35.5 55.1001L35.4 30.6001Z" fill="white"/>
<path d="M51.8 60.4C54.1 61.6 57.8 62.8 61.5 62.8C65.5 62.8 67.6 61.1 67.6 58.5C67.6 56.1 65.8 54.7 61.1 53.1C54.7 50.8 50.4 47.2 50.4 41.5C50.4 35 56 30 65.1 30C69.5 30 72.7 30.9 75 32L73 39C71.5 38.3 68.7 37.2 65 37.2C61.2 37.2 59.4 39 59.4 40.9C59.4 43.4 61.5 44.5 66.6 46.4C73.4 48.9 76.6 52.5 76.6 58C76.6 64.5 71.7 70 61 70C56.6 70 52.2 68.8 50 67.6L51.8 60.4Z" fill="white"/>
</svg>
