<svg width="100" height="100" viewBox="0 0 100 100" fill="none" xmlns="http://www.w3.org/2000/svg">
<rect width="100" height="100" fill="#81CF08"/>
<path d="M50.2 81.9C49.3 81.9 48.5 81.7 47.7 81.2L39.9 76.6C38.7 75.9 39.3 75.7 39.7 75.6C41.3 75 41.6 74.9 43.2 74C43.4 73.9 43.6 73.9 43.8 74.1L49.8 77.7C50 77.8 50.3 77.8 50.5 77.7L73.9 64.2C74.1 64.1 74.3 63.8 74.3 63.6V36.6C74.3 36.3 74.2 36.1 73.9 36L50.6 22.4C50.4 22.3 50.1 22.3 49.9 22.4L26.5 35.8C26.3 35.9 26.1 36.2 26.1 36.4V63.4C26.1 63.6 26.2 63.9 26.5 64L32.9 67.7C36.4 69.4 38.5 67.4 38.5 65.3V38.8C38.5 38.4 38.8 38.1 39.2 38.1H42.2C42.6 38.1 42.9 38.4 42.9 38.8V65.4C42.9 70.1 40.4 72.7 36 72.7C34.6 72.7 33.6 72.7 30.6 71.2L24.5 67.7C23 66.8 22 65.2 22 63.4V36.4C22 34.7 22.9 33 24.5 32.1L47.9 18.6C49.4 17.8 51.4 17.8 52.8 18.6L76.2 32.1C77.7 33 78.7 34.6 78.7 36.4V63.4C78.7 65.1 77.8 66.8 76.2 67.7L52.7 81.3C51.9 81.7 51.1 81.9 50.2 81.9Z" fill="white"/>
<path d="M57.5001 63.2999C47.3001 63.2999 45.1001 58.5999 45.1001 54.6999C45.1001 54.2999 45.4001 53.9999 45.8001 53.9999H48.8001C49.1001 53.9999 49.4001 54.1999 49.5001 54.5999C49.9001 57.6999 51.3001 59.1999 57.5001 59.1999C62.4001 59.1999 64.5001 58.0999 64.5001 55.4999C64.5001 53.9999 63.9001 52.8999 56.2001 52.0999C49.8001 51.4999 45.8001 50.0999 45.8001 44.8999C45.8001 40.1999 49.8001 37.3999 56.5001 37.3999C64.0001 37.3999 67.7001 39.9999 68.2001 45.5999C68.2001 45.7999 68.1001 45.9999 68.0001 46.0999C67.9001 46.1999 67.7001 46.2999 67.5001 46.2999H64.5001C64.2001 46.2999 63.9001 46.0999 63.8001 45.7999C63.1001 42.5999 61.3001 41.4999 56.5001 41.4999C51.1001 41.4999 50.5001 43.3999 50.5001 44.7999C50.5001 46.4999 51.2001 46.9999 58.5001 47.9999C65.7001 48.8999 69.1001 50.2999 69.1001 55.2999C69.1001 60.3999 64.9001 63.2999 57.5001 63.2999Z" fill="white"/>
</svg>
