<svg width="100" height="100" viewBox="0 0 100 100" fill="none" xmlns="http://www.w3.org/2000/svg">
<rect width="100" height="100" fill="#00DBFC"/>
<path d="M49.7002 55.7749C52.7378 55.7749 55.2002 53.3125 55.2002 50.2749C55.2002 47.2373 52.7378 44.7749 49.7002 44.7749C46.6626 44.7749 44.2002 47.2373 44.2002 50.2749C44.2002 53.3125 46.6626 55.7749 49.7002 55.7749Z" fill="white"/>
<path d="M77.3 44.875C75.4 43.275 72.7 41.875 69.5 40.775C68.9 40.575 68.2 40.375 67.5 40.175C67.6 39.675 67.7 39.275 67.8 38.775C69.3 31.375 68.2 25.575 65 23.675C63.4 22.775 61.2 22.775 58.7 23.675C56.4 24.575 53.8 26.175 51.3 28.375C50.8 28.775 50.3 29.275 49.8 29.775C49.5 29.475 49.1 29.175 48.8 28.875C43.2 23.875 37.6 21.875 34.3 23.775C32.7 24.675 31.6 26.575 31.1 29.275C30.7 31.675 30.8 34.775 31.5 38.075C31.6 38.775 31.8 39.375 32 40.075C31.2 40.275 30.4 40.575 29.7 40.775C23 43.075 19 46.675 19 50.275C19 52.175 20.1 54.175 22.2 55.875C24.2 57.575 27 59.075 30.2 60.175C30.7 60.375 31.3 60.575 31.9 60.675C31.7 61.375 31.6 62.175 31.4 62.875C30.1 69.775 31.2 75.075 34.3 76.875C35.1 77.375 36.1 77.575 37.2 77.575C38.3 77.575 39.5 77.375 40.8 76.875C43.3 75.975 45.9 74.375 48.5 72.075C48.9 71.675 49.4 71.275 49.8 70.875C50.4 71.375 50.9 71.875 51.5 72.375C55.4 75.775 59.2 77.575 62.2 77.575C63.3 77.575 64.3 77.375 65.1 76.875C66.7 75.875 67.9 73.975 68.4 71.275C68.9 68.675 68.8 65.575 68.1 62.175C68 61.675 67.9 61.075 67.7 60.575C68.1 60.475 68.5 60.375 68.8 60.175C76 57.775 80.4 53.975 80.4 50.175C80.4 48.475 79.3 46.575 77.3 44.875ZM59.6 26.175C61.4 25.575 62.8 25.475 63.7 25.975C65.5 26.975 66.7 31.275 65.3 38.275C65.2 38.675 65.1 39.075 65 39.475C62.4 38.875 59.7 38.475 56.8 38.175C55.1 35.775 53.4 33.575 51.6 31.675C52.1 31.175 52.5 30.775 53 30.375C55.3 28.375 57.6 26.975 59.6 26.175ZM58.3 55.375C57.3 57.075 56.4 58.675 55.4 60.075C53.6 60.175 51.7 60.275 49.8 60.275C47.9 60.275 46 60.175 44.2 60.075C43.2 58.575 42.1 56.975 41.2 55.275C40.2 53.675 39.4 51.975 38.6 50.275C39.4 48.575 40.3 46.975 41.2 45.375C42.2 43.775 43.2 42.175 44.2 40.575C46 40.475 47.9 40.375 49.8 40.375C51.7 40.375 53.6 40.475 55.4 40.575C56.4 42.075 57.4 43.675 58.4 45.275C59.4 46.975 60.3 48.575 61.1 50.175C60.1 51.975 59.3 53.675 58.3 55.375ZM62.3 53.375C63.1 55.275 63.8 57.075 64.4 58.775C62.6 59.175 60.7 59.475 58.7 59.775C59.3 58.775 60 57.675 60.6 56.675C61.2 55.575 61.8 54.475 62.3 53.375ZM49.8 67.275C48.6 65.975 47.3 64.475 46.1 62.875C47.3 62.875 48.5 62.975 49.7 62.975C51 62.975 52.2 62.975 53.4 62.875C52.2 64.475 51 65.975 49.8 67.275ZM40.8 59.775C38.8 59.575 36.9 59.275 35.1 58.875C35.6 57.075 36.3 55.275 37.1 53.475C37.7 54.575 38.2 55.575 38.8 56.675C39.5 57.775 40.1 58.775 40.8 59.775ZM38.9 44.075C38.3 45.175 37.7 46.175 37.2 47.275C36.4 45.475 35.8 43.675 35.2 41.975C37 41.575 38.8 41.275 40.8 40.975C40.1 41.975 39.5 43.075 38.9 44.075ZM49.7 33.575C50.9 34.875 52.1 36.375 53.3 37.975C52.1 37.875 50.9 37.875 49.6 37.875C48.4 37.875 47.2 37.875 46 37.975C47.3 36.375 48.5 34.875 49.7 33.575ZM60.5 44.075C59.9 42.975 59.3 41.975 58.6 40.975C60.6 41.175 62.4 41.575 64.2 41.975C63.7 43.675 63 45.475 62.2 47.275C61.8 46.275 61.2 45.175 60.5 44.075ZM34 37.575C33.4 34.575 33.3 31.875 33.7 29.775C34 27.975 34.7 26.675 35.6 26.075C37.4 25.075 41.7 26.075 47 30.875C47.3 31.175 47.6 31.475 47.9 31.775C46.1 33.675 44.4 35.875 42.7 38.275C39.8 38.575 37 38.975 34.5 39.575C34.3 38.775 34.2 38.175 34 37.575ZM31.1 57.775C24.6 55.575 21.6 52.375 21.6 50.275C21.6 48.275 24.4 45.375 30.5 43.275C31.2 43.075 31.9 42.775 32.6 42.575C33.4 45.075 34.4 47.675 35.6 50.375C34.4 53.075 33.3 55.675 32.6 58.275C32.1 58.075 31.6 57.975 31.1 57.775ZM37.2 75.075C36.5 75.075 36 74.975 35.6 74.675C33.9 73.675 32.7 69.875 34 63.475C34.1 62.775 34.3 62.175 34.4 61.475C36.9 62.075 39.7 62.475 42.7 62.675C44.4 65.075 46.2 67.275 48 69.175C47.6 69.575 47.2 69.875 46.8 70.275C42.9 73.675 39.4 75.075 37.2 75.075ZM65.5 62.775C66.8 69.475 65.5 73.675 63.8 74.675C62.1 75.675 58.2 74.775 53.3 70.475C52.8 70.075 52.3 69.575 51.8 69.075C53.5 67.175 55.3 64.975 57 62.575C60 62.275 62.8 61.875 65.3 61.275C65.3 61.775 65.4 62.275 65.5 62.775ZM68 57.775C67.7 57.875 67.3 57.975 67 58.075C66.2 55.675 65.2 52.975 63.9 50.275C65.1 47.675 66.1 45.075 66.9 42.575C67.5 42.775 68.1 42.975 68.7 43.175C71.6 44.175 74 45.475 75.6 46.775C77 47.975 77.8 49.175 77.8 50.275C77.8 52.375 74.7 55.575 68 57.775Z" fill="white"/>
</svg>
