<svg width="100" height="100" viewBox="0 0 100 100" fill="none" xmlns="http://www.w3.org/2000/svg">
<rect width="100" height="100" fill="#CC6699"/>
<path d="M76.1111 24.8757C75.5111 22.4757 73.8111 20.4757 71.2111 19.0757C66.1111 16.3757 57.9111 16.2757 50.4111 18.9757C45.9111 20.5757 37.4111 24.1757 31.0111 30.0757C24.6111 36.0757 23.6111 41.3757 24.1111 43.4757C25.2111 49.2757 31.3111 53.3757 36.1111 56.7757C37.4111 57.6757 38.6111 58.4757 39.5111 59.2757C36.8111 60.6757 29.5111 64.7757 27.5111 69.0757C26.0111 72.4757 26.7111 74.9757 27.3111 76.0757C27.9111 77.3757 28.9111 78.3757 29.9111 78.6757C30.9111 78.9757 32.0111 79.0757 33.1111 79.0757C37.4111 79.0757 41.6111 76.7757 44.2111 72.8757C46.8111 68.9757 47.0111 63.7757 45.8111 60.5757C47.5111 60.1757 49.3111 60.1757 51.3111 60.3757C55.2111 60.8757 57.1111 62.3757 58.0111 63.5757C59.0111 64.8757 59.2111 66.1757 59.1111 66.9757C58.9111 68.4757 57.7111 69.3757 57.1111 69.7757C56.6111 70.0757 56.2111 70.3757 56.3111 70.9757C56.5111 71.7757 57.3111 71.6757 57.6111 71.6757C58.5111 71.4757 61.7111 69.8757 61.9111 66.2757C62.0111 64.0757 61.1111 61.8757 59.4111 60.0757C57.2111 57.7757 53.9111 56.5757 50.1111 56.6757C47.3111 56.6757 45.4111 56.9757 43.9111 57.4757L43.8111 57.3757C42.4111 55.8757 40.5111 54.4757 38.8111 53.0757C34.8111 50.0757 31.1111 47.1757 31.3111 42.8757C31.6111 37.4757 36.9111 32.1757 47.2111 27.0757C56.3111 22.5757 63.7111 22.3757 67.6111 23.7757C69.2111 24.3757 70.3111 25.1757 70.7111 26.0757C71.5111 27.7757 71.2111 29.9757 69.8111 32.3757C67.5111 36.3757 61.7111 41.3757 52.8111 42.3757C47.4111 42.9757 45.1111 40.5757 45.0111 40.4757C44.4111 39.7757 44.0111 39.3757 43.3111 39.7757C42.5111 40.1757 42.9111 41.2757 43.1111 41.6757C43.5111 42.7757 45.2111 44.6757 48.1111 45.6757C50.4111 46.4757 56.3111 46.9757 63.6111 44.1757C72.0111 40.7757 77.8111 31.7757 76.1111 24.8757ZM41.6111 67.4757C41.5111 67.6757 41.5111 67.8757 41.4111 68.0757C41.3111 68.2757 41.2111 68.4757 41.2111 68.6757C40.8111 69.5757 40.2111 70.4757 39.4111 71.2757C37.1111 73.7757 34.0111 74.4757 33.0111 73.8757C32.7111 73.6757 32.6111 73.3757 32.5111 72.9757C32.3111 71.7757 33.0111 69.3757 35.1111 67.2757C37.6111 64.6757 41.1111 62.7757 41.9111 62.3757C42.2111 64.1757 42.1111 65.8757 41.6111 67.4757Z" fill="white"/>
</svg>
